<svg width="509" height="720" viewBox="0 0 509 720" fill="none" xmlns="http://www.w3.org/2000/svg">
<path d="M508.463 572H483.963C466.566 572 452.463 586.103 452.463 603.5C452.463 620.897 466.566 635 483.963 635H508.463V572Z" fill="#E8D0D0"/>
<path d="M483.963 572.5C466.842 572.5 452.963 586.379 452.963 603.5C452.963 620.621 466.842 634.5 483.963 634.5H507.963V572.5H483.963Z" stroke="#3E3A39" stroke-opacity="0.6" stroke-linejoin="round"/>
<rect x="0.5" y="0.5" width="411.769" height="719" rx="29.5" fill="#E8D0D0" stroke="#3E3A39"/>
<rect x="9.08496" y="9.63135" width="393.507" height="700.738" rx="26.75" fill="white" stroke="#3E3A39" stroke-width="0.5"/>
<rect width="114.164" height="49.8169" rx="24.9085" transform="matrix(-1 0 0 1 161.433 549.381)" fill="#E8D0D0"/>
<rect width="114.164" height="49.8169" rx="24.9085" transform="matrix(-1 0 0 1 161.433 607.5)" fill="#E8D0D0"/>
<g opacity="0.4" filter="url(#filter0_g_2024_2764)">
<rect x="41.542" y="48.5781" width="327.339" height="437.567" rx="11.5" stroke="#3E3A39" stroke-opacity="0.6"/>
</g>
<rect x="197.004" y="571.856" width="171.987" height="63.6352" rx="30" fill="#E8D0D0"/>
<path d="M294.457 650.692C294.457 650.868 294.423 651.043 294.356 651.206C294.289 651.369 294.19 651.517 294.066 651.642L283.946 661.759C283.695 662.01 283.354 662.151 282.998 662.151C282.643 662.151 282.302 662.01 282.05 661.759L271.931 651.642C271.679 651.39 271.538 651.048 271.538 650.692C271.538 650.336 271.68 649.994 271.932 649.743C272.184 649.491 272.526 649.35 272.882 649.35C273.238 649.35 273.58 649.492 273.831 649.744L282.998 658.911L292.165 649.744C292.353 649.556 292.592 649.429 292.852 649.377C293.112 649.325 293.381 649.352 293.626 649.453C293.871 649.555 294.081 649.727 294.228 649.947C294.376 650.167 294.454 650.427 294.455 650.692L294.457 650.692Z" fill="#3E3A39" fill-opacity="0.2"/>
<path d="M271.539 556.655C271.539 556.479 271.573 556.304 271.64 556.141C271.707 555.978 271.806 555.83 271.93 555.705L282.05 545.588C282.301 545.337 282.642 545.196 282.998 545.196C283.353 545.196 283.694 545.337 283.946 545.588L294.065 555.705C294.317 555.957 294.458 556.299 294.458 556.655C294.458 557.011 294.316 557.353 294.064 557.605C293.812 557.856 293.47 557.998 293.114 557.997C292.758 557.997 292.416 557.855 292.165 557.603L282.998 548.437L273.831 557.603C273.643 557.791 273.404 557.918 273.144 557.97C272.884 558.022 272.615 557.995 272.37 557.894C272.125 557.792 271.915 557.621 271.768 557.4C271.62 557.18 271.542 556.921 271.541 556.655L271.539 556.655Z" fill="#3E3A39" fill-opacity="0.2"/>
<rect x="136.026" y="21.1074" width="140.717" height="17.5896" rx="8.79479" fill="#D9D9D9"/>
<rect x="41.042" y="543.152" width="126.618" height="120.391" rx="12" fill="#E8D0D0" fill-opacity="0.2"/>
<path d="M490.963 0.5C481.574 0.5 473.963 8.11116 473.963 17.5V702.5C473.963 711.889 481.574 719.5 490.963 719.5C500.352 719.5 507.963 711.889 507.963 702.5V17.5C507.963 8.11117 500.352 0.5 490.963 0.5Z" fill="#E8D0D0" stroke="#3E3A39"/>
<path d="M173.523 275.6V277.85H149.313V275.6H173.523ZM149.073 299.63C150.893 298.13 152.223 296.78 153.063 295.58C153.923 294.38 154.493 293.06 154.773 291.62C155.073 290.16 155.223 288.15 155.223 285.59V276.41H157.563V285.35C157.563 288.23 157.383 290.52 157.023 292.22C156.683 293.92 156.043 295.45 155.103 296.81C154.183 298.15 152.763 299.66 150.843 301.34L149.073 299.63ZM168.243 276.62V300.95H165.843V276.62H168.243ZM174.783 286.07V288.35H148.083V286.07H174.783ZM191.433 297.2H201.693V299.3H191.433V297.2ZM178.383 279.23H188.223V281.45C187.883 285.07 187.433 287.93 186.873 290.03C186.313 292.11 185.493 293.94 184.413 295.52C183.333 297.1 181.723 298.94 179.583 301.04L178.023 299.48C180.143 297.5 181.703 295.76 182.703 294.26C183.723 292.76 184.463 291.1 184.923 289.28C185.383 287.44 185.773 284.83 186.093 281.45H178.383V279.23ZM178.923 290.78C180.263 285.48 181.153 279.78 181.593 273.68L183.723 273.83C183.463 276.89 183.133 279.74 182.733 282.38C182.353 285 181.873 287.5 181.293 289.88C181.673 290.2 182.103 290.57 182.583 290.99C183.063 291.39 183.573 291.83 184.113 292.31C186.013 294.01 187.693 295.59 189.153 297.05L187.803 298.94C187.243 298.34 186.583 297.68 185.823 296.96C185.083 296.22 184.333 295.5 183.573 294.8C182.793 294.08 181.993 293.37 181.173 292.67C180.373 291.95 179.623 291.32 178.923 290.78ZM189.033 283.43C190.173 282.13 191.253 280.59 192.273 278.81C193.313 277.01 194.223 275.21 195.003 273.41L197.163 274.22C196.743 275.24 196.183 276.39 195.483 277.67C194.803 278.93 194.113 280.1 193.413 281.18C192.813 282.08 192.373 282.71 192.093 283.07L202.083 282.56L202.473 284.57L189.543 285.29L189.033 283.43ZM199.893 276.86C200.473 277.76 201.243 279.09 202.203 280.85C203.183 282.59 204.033 284.15 204.753 285.53L202.773 286.67C202.193 285.43 201.413 283.9 200.433 282.08C199.473 280.26 198.693 278.86 198.093 277.88L199.893 276.86ZM190.173 288.62H202.983V301.04H200.763V290.72H192.333V301.01H190.173V288.62ZM215.703 277.28H234.393V279.41H215.703V277.28ZM214.653 299.09C217.293 298.39 219.263 297.65 220.563 296.87C221.883 296.09 222.773 295.18 223.233 294.14C223.693 293.08 223.923 291.68 223.923 289.94V287.66C223.923 285.3 223.923 282.81 223.923 280.19C223.943 277.57 223.943 275.41 223.923 273.71H226.053V289.88C226.053 292.08 225.753 293.85 225.153 295.19C224.553 296.53 223.523 297.66 222.063 298.58C220.603 299.5 218.483 300.38 215.703 301.22L214.653 299.09ZM218.973 291.08C220.333 293.18 222.243 294.82 224.703 296C227.183 297.18 230.523 297.99 234.723 298.43L234.093 300.74C229.733 300.1 226.243 299.13 223.623 297.83C221.003 296.51 218.933 294.69 217.413 292.37L218.973 291.08ZM216.753 282.29H233.193V290.15H216.753V282.29ZM218.823 284.27V288.08H231.093V284.27H218.823ZM207.873 286.91C208.853 285.53 209.833 283.66 210.813 281.3C211.813 278.92 212.693 276.38 213.453 273.68L215.583 274.25C214.803 277.25 213.863 279.98 212.763 282.44C211.663 284.88 210.343 287.21 208.803 289.43L207.873 286.91ZM211.353 281.18L213.453 280.1V301.13H211.353V281.18ZM250.683 276.23H252.993V300.47H250.683V276.23ZM238.173 300.08C239.013 298.7 239.623 297.51 240.003 296.51C240.383 295.49 240.643 294.34 240.783 293.06C240.923 291.76 240.993 289.93 240.993 287.57V275.39H262.863V297.26C262.863 298.14 262.743 298.82 262.503 299.3C262.263 299.8 261.873 300.15 261.333 300.35C260.813 300.55 260.073 300.65 259.113 300.65H256.053L255.693 298.34H258.423C259.043 298.34 259.493 298.3 259.773 298.22C260.073 298.12 260.273 297.94 260.373 297.68C260.473 297.42 260.523 297.02 260.523 296.48V277.64H243.303V288.38C243.303 290.44 243.213 292.17 243.033 293.57C242.853 294.95 242.553 296.23 242.133 297.41C241.713 298.57 241.103 299.83 240.303 301.19L238.173 300.08ZM242.103 290.06H261.273V292.31H242.103V290.06ZM242.103 282.86H261.213V285.11H242.103V282.86Z" fill="#3E3A39"/>
<path d="M147.485 247.88V203.72H150.965V247.88H147.485ZM121.505 226.58V223.34H148.205V226.58H121.505ZM122.225 203.72V247.88H118.745V203.72H122.225ZM164.061 244.58H187.881V247.88H160.581V203.72H187.101V207.02H164.061V223.22H185.841V226.46H164.061V244.58ZM198.456 244.58H221.856V247.88H194.976V203.72H198.456V244.58ZM231.327 244.58H254.727V247.88H227.847V203.72H231.327V244.58ZM277.022 248.72C273.102 248.72 269.662 247.78 266.702 245.9C263.742 244.02 261.442 241.36 259.802 237.92C258.202 234.44 257.402 230.4 257.402 225.8C257.402 221.16 258.202 217.12 259.802 213.68C261.442 210.2 263.742 207.54 266.702 205.7C269.662 203.82 273.102 202.88 277.022 202.88C280.942 202.88 284.382 203.82 287.342 205.7C290.302 207.54 292.602 210.2 294.242 213.68C295.882 217.12 296.702 221.16 296.702 225.8C296.702 230.4 295.882 234.44 294.242 237.92C292.602 241.36 290.302 244.02 287.342 245.9C284.382 247.78 280.942 248.72 277.022 248.72ZM277.022 245.42C280.222 245.42 283.022 244.62 285.422 243.02C287.862 241.42 289.762 239.14 291.122 236.18C292.482 233.22 293.162 229.76 293.162 225.8C293.162 221.8 292.482 218.34 291.122 215.42C289.762 212.46 287.862 210.18 285.422 208.58C283.022 206.98 280.222 206.18 277.022 206.18C273.822 206.18 271.002 206.98 268.562 208.58C266.162 210.18 264.282 212.46 262.922 215.42C261.602 218.34 260.942 221.8 260.942 225.8C260.942 229.76 261.602 233.22 262.922 236.18C264.282 239.14 266.162 241.42 268.562 243.02C271.002 244.62 273.822 245.42 277.022 245.42Z" fill="#3E3A39"/>
<path opacity="0.6" d="M124.887 446.922H126.057V460.224H124.887V446.922ZM119.379 446.256H131.565V453.816H119.379V446.256ZM120.567 447.354V452.718H130.377V447.354H120.567ZM117.651 455.868H133.275V457.02H117.651V455.868ZM121.035 444.168L121.935 443.52L123.933 445.824L122.943 446.454L121.035 444.168ZM120.045 449.496H130.881V450.576H120.045V449.496ZM126.435 446.598C126.795 446.202 127.221 445.704 127.713 445.104C128.217 444.492 128.619 443.976 128.919 443.556L129.981 444.096C129.705 444.48 129.339 444.954 128.883 445.518C128.427 446.07 128.013 446.568 127.641 447.012L126.435 446.598ZM135.813 447.21H140.745V448.398H135.813V447.21ZM136.695 458.712C137.007 458.712 137.241 458.688 137.397 458.64C137.553 458.58 137.661 458.49 137.721 458.37C137.781 458.238 137.811 458.034 137.811 457.758V444.006H138.963V458.172C138.963 458.64 138.903 458.994 138.783 459.234C138.663 459.486 138.465 459.66 138.189 459.756C137.925 459.852 137.547 459.9 137.055 459.9H135.885L135.651 458.712H136.695ZM135.453 452.862C135.597 452.802 135.741 452.742 135.885 452.682C136.029 452.622 136.185 452.556 136.353 452.484C138.045 451.824 139.389 451.266 140.385 450.81L140.583 452.016C140.103 452.22 139.437 452.49 138.585 452.826C136.905 453.522 135.963 453.918 135.759 454.014L135.453 452.862ZM146.127 443.718C146.247 443.97 146.385 444.294 146.541 444.69C146.697 445.074 146.841 445.458 146.973 445.842C147.009 445.926 147.039 446.01 147.063 446.094C147.099 446.166 147.129 446.226 147.153 446.274L145.875 446.508C145.815 446.376 145.749 446.226 145.677 446.058C145.617 445.878 145.551 445.686 145.479 445.482C145.383 445.206 145.281 444.942 145.173 444.69C145.077 444.426 144.987 444.204 144.903 444.024L146.127 443.718ZM141.393 446.004H150.861V449.172H149.691V447.12H142.527V449.172H141.393V446.004ZM140.997 450.954H151.311V452.088H140.997V450.954ZM141.807 454.896L141.843 454.824C142.359 453.756 142.845 452.622 143.301 451.422C143.769 450.222 144.135 449.118 144.399 448.11L145.623 448.398C145.359 449.31 145.011 450.312 144.579 451.404C144.159 452.484 143.727 453.486 143.283 454.41C144.315 454.926 145.539 455.598 146.955 456.426C148.371 457.254 149.775 458.118 151.167 459.018L150.465 460.134C149.013 459.162 147.513 458.202 145.965 457.254C144.417 456.306 143.031 455.52 141.807 454.896ZM140.097 459.108C141.933 458.544 143.391 457.944 144.471 457.308C145.551 456.66 146.385 455.886 146.973 454.986C147.561 454.074 147.999 452.916 148.287 451.512L149.439 451.818C149.127 453.378 148.647 454.662 147.999 455.67C147.363 456.666 146.469 457.524 145.317 458.244C144.165 458.952 142.599 459.642 140.619 460.314L140.097 459.108ZM161.463 458.496C160.287 458.496 159.195 458.208 158.187 457.632C157.191 457.044 156.399 456.252 155.811 455.256C155.235 454.248 154.947 453.156 154.947 451.98C154.947 450.804 155.235 449.718 155.811 448.722C156.399 447.714 157.191 446.922 158.187 446.346C159.195 445.758 160.287 445.464 161.463 445.464C162.639 445.464 163.725 445.758 164.721 446.346C165.729 446.922 166.521 447.714 167.097 448.722C167.685 449.718 167.979 450.804 167.979 451.98C167.979 453.156 167.685 454.248 167.097 455.256C166.521 456.252 165.729 457.044 164.721 457.632C163.725 458.208 162.639 458.496 161.463 458.496ZM161.463 457.794C162.507 457.794 163.473 457.536 164.361 457.02C165.249 456.492 165.951 455.784 166.467 454.896C166.983 454.008 167.241 453.036 167.241 451.98C167.241 450.924 166.983 449.952 166.467 449.064C165.951 448.176 165.249 447.474 164.361 446.958C163.473 446.43 162.507 446.166 161.463 446.166C160.419 446.166 159.453 446.43 158.565 446.958C157.677 447.474 156.975 448.176 156.459 449.064C155.943 449.952 155.685 450.924 155.685 451.98C155.685 453.036 155.943 454.008 156.459 454.896C156.975 455.784 157.677 456.492 158.565 457.02C159.453 457.536 160.419 457.794 161.463 457.794ZM172.803 446.184H176.043V447.228H172.803V446.184ZM171.507 452.79H175.917V453.834H171.507V452.79ZM171.309 449.064C171.693 448.356 172.071 447.51 172.443 446.526C172.827 445.542 173.133 444.594 173.361 443.682L174.369 443.898C174.105 444.93 173.769 445.968 173.361 447.012C172.965 448.044 172.503 449.034 171.975 449.982L171.309 449.064ZM172.173 449.28H175.629V450.306H172.173V449.28ZM179.841 447.912H187.365V448.866H179.841V447.912ZM179.661 455.328H187.131V456.264H179.661V455.328ZM180.237 452.88H186.663V453.816H180.237V452.88ZM182.577 443.79H183.585V457.974H182.577V443.79ZM172.659 458.73C172.827 458.586 172.947 458.454 173.019 458.334C173.091 458.214 173.127 458.07 173.127 457.902V449.64H174.135V457.83L175.935 456.39L176.187 457.524L173.289 459.702L172.659 458.73ZM177.051 452.574C177.351 453.858 177.717 454.92 178.149 455.76C178.593 456.6 179.169 457.248 179.877 457.704C180.585 458.16 181.467 458.388 182.523 458.388H187.383L187.203 459.45H182.433C181.365 459.45 180.435 459.258 179.643 458.874C178.863 458.478 178.179 457.8 177.591 456.84C177.015 455.88 176.547 454.566 176.187 452.898L177.051 452.574ZM175.395 459.36C176.427 458.148 177.183 456.924 177.663 455.688C178.155 454.44 178.467 452.952 178.599 451.224H176.385V450.18L178.599 446.166H176.511V445.104H179.697V446.184L177.537 450.18H179.625V451.26C179.469 452.604 179.265 453.756 179.013 454.716C178.773 455.676 178.437 456.582 178.005 457.434C177.573 458.286 176.997 459.192 176.277 460.152L175.395 459.36ZM180.363 450.432H185.403V446.346H180.381V445.41H186.375V451.35H180.363V450.432ZM205.311 446.022V447.138H189.525V446.022H205.311ZM194.061 443.826C194.133 443.922 194.223 444.048 194.331 444.204C194.439 444.348 194.571 444.516 194.727 444.708C194.955 445.02 195.171 445.308 195.375 445.572C195.579 445.836 195.735 446.046 195.843 446.202L194.493 446.472C194.445 446.388 194.169 446.016 193.665 445.356C193.485 445.104 193.317 444.876 193.161 444.672C193.017 444.468 192.903 444.312 192.819 444.204L194.061 443.826ZM196.347 452.088V453.186H191.595V452.088H196.347ZM196.347 455.112V456.21H191.613V455.112H196.347ZM200.271 449.28V456.984H199.173V449.28H200.271ZM198.795 446.454C198.879 446.334 198.969 446.22 199.065 446.112C199.161 445.992 199.251 445.872 199.335 445.752C200.019 444.876 200.517 444.204 200.829 443.736L202.017 444.15C201.741 444.558 201.387 445.044 200.955 445.608C200.535 446.16 200.175 446.604 199.875 446.94L198.795 446.454ZM201.261 458.712C201.657 458.712 201.951 458.682 202.143 458.622C202.335 458.562 202.461 458.454 202.521 458.298C202.581 458.142 202.611 457.896 202.611 457.56V448.524H203.781V457.848C203.781 458.376 203.715 458.784 203.583 459.072C203.463 459.36 203.241 459.564 202.917 459.684C202.605 459.804 202.149 459.864 201.549 459.864H199.515L199.281 458.712H201.261ZM197.103 458.1C197.103 458.568 197.043 458.934 196.923 459.198C196.803 459.462 196.605 459.648 196.329 459.756C196.065 459.864 195.693 459.918 195.213 459.918H193.737L193.503 458.766H194.835C195.159 458.766 195.399 458.742 195.555 458.694C195.711 458.634 195.813 458.538 195.861 458.406C195.921 458.274 195.951 458.07 195.951 457.794V450.126H192.027V460.026H190.857V449.01H197.103V458.1ZM209.901 451.782L211.071 451.188V460.188H209.901V451.782ZM212.331 458.118H223.347V459.288H212.331V458.118ZM213.033 447.012H222.969V448.2H213.033V447.012ZM213.285 452.214H222.393V453.438H213.285V452.214ZM217.317 447.606H218.595V458.694H217.317V447.606ZM207.435 454.032C208.131 453.408 208.881 452.574 209.685 451.53C210.501 450.474 211.155 449.484 211.647 448.56L212.619 449.226C212.067 450.246 211.341 451.338 210.441 452.502C209.553 453.654 208.725 454.578 207.957 455.274L207.435 454.032ZM207.669 448.56C208.365 447.948 209.115 447.192 209.919 446.292C210.735 445.38 211.347 444.594 211.755 443.934L212.763 444.708C212.295 445.404 211.623 446.238 210.747 447.21C209.871 448.17 209.043 448.986 208.263 449.658L207.669 448.56ZM216.471 444.06L217.587 443.556L219.027 446.256L217.893 446.832L216.471 444.06ZM230.025 446.076H241.185V447.228H230.025V446.076ZM229.377 459.18C230.973 458.736 232.167 458.274 232.959 457.794C233.763 457.314 234.303 456.756 234.579 456.12C234.855 455.472 234.993 454.62 234.993 453.564V451.188C234.993 449.94 234.993 448.632 234.993 447.264C235.005 445.884 235.005 444.75 234.993 443.862H236.145V453.546C236.145 454.854 235.965 455.91 235.605 456.714C235.245 457.506 234.627 458.178 233.751 458.73C232.875 459.282 231.603 459.81 229.935 460.314L229.377 459.18ZM231.933 454.248C232.761 455.544 233.913 456.552 235.389 457.272C236.865 457.992 238.863 458.49 241.383 458.766L241.059 460.008C238.443 459.624 236.355 459.036 234.795 458.244C233.235 457.452 231.999 456.354 231.087 454.95L231.933 454.248ZM230.691 449.064H240.447V453.654H230.691V449.064ZM231.807 450.126V452.538H239.313V450.126H231.807ZM225.345 451.872C225.945 451.032 226.545 449.892 227.145 448.452C227.745 447.012 228.273 445.482 228.729 443.862L229.881 444.168C229.413 445.956 228.843 447.588 228.171 449.064C227.511 450.54 226.737 451.926 225.849 453.222L225.345 451.872ZM227.469 448.308L228.603 447.696V460.26H227.469V448.308ZM251.085 445.356H252.309V459.864H251.085V445.356ZM243.561 459.684C244.065 458.856 244.431 458.142 244.659 457.542C244.887 456.93 245.043 456.24 245.127 455.472C245.211 454.692 245.253 453.594 245.253 452.178V444.906H258.231V457.956C258.231 458.484 258.159 458.886 258.015 459.162C257.883 459.45 257.661 459.654 257.349 459.774C257.037 459.894 256.599 459.954 256.035 459.954H254.181L253.983 458.712H255.675C256.059 458.712 256.341 458.682 256.521 458.622C256.701 458.562 256.821 458.454 256.881 458.298C256.953 458.13 256.989 457.884 256.989 457.56V446.112H246.495V452.61C246.495 453.858 246.441 454.902 246.333 455.742C246.225 456.57 246.045 457.332 245.793 458.028C245.541 458.712 245.175 459.462 244.695 460.278L243.561 459.684ZM245.847 453.708H257.385V454.914H245.847V453.708ZM245.847 449.388H257.349V450.594H245.847V449.388ZM264.603 443.808H265.719V449.64H264.603V443.808ZM262.371 446.058H267.717V447.048H262.371V446.058ZM261.669 449.154H269.499V450.18H261.669V449.154ZM261.471 454.122C263.211 452.862 264.717 451.5 265.989 450.036C267.261 448.572 268.335 446.952 269.211 445.176L270.129 445.68C269.205 447.564 268.107 449.226 266.835 450.666C265.563 452.094 263.973 453.534 262.065 454.986L261.471 454.122ZM262.119 451.818H268.851V452.79L266.511 454.842V458.316C266.511 458.772 266.457 459.12 266.349 459.36C266.241 459.6 266.055 459.768 265.791 459.864C265.539 459.96 265.155 460.008 264.639 460.008H262.947L262.731 458.892H264.189C264.549 458.892 264.813 458.868 264.981 458.82C265.149 458.76 265.257 458.664 265.305 458.532C265.365 458.388 265.395 458.166 265.395 457.866V454.518L267.375 452.808H262.119V451.818ZM261.669 455.868L269.553 454.824L269.571 455.526L269.589 455.94L261.777 456.984L261.669 455.868ZM269.103 451.224C269.703 450.336 270.285 449.166 270.849 447.714C271.413 446.262 271.803 444.96 272.019 443.808L273.207 443.934C272.859 445.47 272.397 446.964 271.821 448.416C271.245 449.856 270.585 451.098 269.841 452.142L269.103 451.224ZM271.911 446.85H277.293V448.002H271.569L271.911 446.85ZM268.221 459.234C269.805 458.13 271.041 457.062 271.929 456.03C272.829 454.986 273.507 453.81 273.963 452.502C274.431 451.194 274.773 449.532 274.989 447.516L276.087 447.534C275.859 449.658 275.499 451.44 275.007 452.88C274.515 454.308 273.795 455.598 272.847 456.75C271.911 457.89 270.633 459.066 269.013 460.278L268.221 459.234ZM271.551 448.596C271.743 450.204 272.055 451.608 272.487 452.808C272.919 453.996 273.531 455.094 274.323 456.102C275.115 457.098 276.141 458.076 277.401 459.036L276.663 460.17C275.391 459.198 274.341 458.178 273.513 457.11C272.697 456.03 272.055 454.872 271.587 453.636C271.131 452.4 270.801 450.996 270.597 449.424L271.551 448.596ZM294.429 454.842V455.94H286.005V454.842H294.429ZM290.847 452.052V458.766H289.659V452.052H290.847ZM294.879 451.44V452.502H285.717V451.44H294.879ZM295.419 458.28V459.414H284.889V458.28H295.419ZM283.143 445.608V460.206H282.063V445.608H283.143ZM285.411 448.902V450.108H279.651V448.902H285.411ZM294.195 444.852V449.676H286.311V444.852H294.195ZM287.481 448.614H293.043V445.896H287.481V448.614ZM279.309 455.886C279.993 454.83 280.599 453.684 281.127 452.448C281.667 451.2 282.069 450.018 282.333 448.902L282.873 450.072C282.585 451.248 282.189 452.442 281.685 453.654C281.181 454.854 280.611 455.946 279.975 456.93L279.309 455.886ZM283.053 451.548C283.953 452.328 284.799 453.084 285.591 453.816L284.889 454.68C284.325 454.092 283.503 453.324 282.423 452.376L283.053 451.548ZM279.723 445.482C280.647 445.35 281.613 445.182 282.621 444.978C283.629 444.774 284.493 444.576 285.213 444.384L285.501 445.536C284.781 445.716 283.887 445.908 282.819 446.112C281.751 446.316 280.749 446.49 279.813 446.634L279.723 445.482Z" fill="#3E3A39"/>
<defs>
<filter id="filter0_g_2024_2764" x="39.042" y="46.0781" width="332.339" height="442.567" filterUnits="userSpaceOnUse" color-interpolation-filters="sRGB">
<feFlood flood-opacity="0" result="BackgroundImageFix"/>
<feBlend mode="normal" in="SourceGraphic" in2="BackgroundImageFix" result="shape"/>
<feTurbulence type="fractalNoise" baseFrequency="0.99900001287460327 0.99900001287460327" numOctaves="3" seed="8682" />
<feDisplacementMap in="shape" scale="4" xChannelSelector="R" yChannelSelector="G" result="displacedImage" width="100%" height="100%" />
<feMerge result="effect1_texture_2024_2764">
<feMergeNode in="displacedImage"/>
</feMerge>
</filter>
</defs>
</svg>
