<svg width="709" height="352" viewBox="0 0 709 352" fill="none" xmlns="http://www.w3.org/2000/svg">
<path d="M653 262C653 247.088 665.088 235 680 235H709V289H680C665.088 289 653 276.912 653 262V262Z" fill="white"/>
<path d="M680 235.5H708.5V288.5H680C665.364 288.5 653.5 276.636 653.5 262C653.5 247.364 665.364 235.5 680 235.5Z" stroke="#3E3A39" stroke-opacity="0.6" stroke-linejoin="round"/>
<rect x="0.5" y="351.5" width="351" height="613" rx="29.5" transform="rotate(-90 0.5 351.5)" fill="white" stroke="#3E3A39"/>
<line x1="542.5" y1="211.467" x2="542.5" y2="37.4668" stroke="#3E3A39" stroke-opacity="0.2"/>
<line x1="535.499" y1="211.467" x2="535.499" y2="37.4668" stroke="#3E3A39" stroke-opacity="0.2"/>
<line x1="528.5" y1="211.467" x2="528.5" y2="37.4668" stroke="#3E3A39" stroke-opacity="0.2"/>
<line x1="521.5" y1="211.467" x2="521.5" y2="37.4668" stroke="#3E3A39" stroke-opacity="0.2"/>
<line x1="500.5" y1="211.467" x2="500.5" y2="37.4668" stroke="#3E3A39" stroke-opacity="0.2"/>
<line x1="507.499" y1="211.467" x2="507.499" y2="37.4668" stroke="#3E3A39" stroke-opacity="0.2"/>
<line x1="514.5" y1="211.467" x2="514.5" y2="37.4668" stroke="#3E3A39" stroke-opacity="0.2"/>
<rect x="8.24902" y="344.217" width="335.5" height="597.5" rx="26.75" transform="rotate(-90 8.24902 344.217)" fill="white" stroke="#3E3A39" stroke-width="0.5"/>
<rect x="-0.5" y="0.5" width="96.3563" height="41.4828" rx="20.7414" transform="matrix(-1 0 0 1 562.2 71.3103)" stroke="#3E3A39" stroke-opacity="0.6" stroke-linejoin="round"/>
<rect x="-0.5" y="0.5" width="96.3563" height="41.4828" rx="20.7414" transform="matrix(-1 0 0 1 562.2 120.873)" stroke="#3E3A39" stroke-opacity="0.6" stroke-linejoin="round"/>
<rect x="461.033" y="66.5" width="106.977" height="101.667" rx="11.5" stroke="#3E3A39" stroke-opacity="0.2" stroke-linejoin="round"/>
<g opacity="0.4" filter="url(#filter0_g_2025_2990)">
<rect x="41.5" y="316.3" width="279" height="373" rx="11.5" transform="rotate(-90 41.5 316.3)" stroke="#3E3A39" stroke-opacity="0.6"/>
</g>
<rect x="393" y="239" width="12" height="40" rx="6" fill="#3E3A39" fill-opacity="0.1"/>
<path d="M133.04 291.405V292.53H119.975V291.405H133.04ZM126.74 291.765V303.93H125.45V291.765H126.74ZM127.64 294.78C128.33 295.27 129.155 295.885 130.115 296.625C131.085 297.355 131.805 297.915 132.275 298.305L131.54 299.325C130.99 298.855 130.265 298.27 129.365 297.57C128.465 296.86 127.67 296.25 126.98 295.74L127.64 294.78ZM148.07 302.07V303.195H137.555V302.07H148.07ZM147.455 296.175V297.285H138.395V296.175H147.455ZM143.24 293.01V302.595H142.055V293.01H143.24ZM134.9 303.33C135.32 302.58 135.625 301.915 135.815 301.335C136.015 300.745 136.155 300.01 136.235 299.13C136.315 298.25 136.355 296.995 136.355 295.365V291.285H147.965V292.41H137.51V295.245C137.51 296.955 137.465 298.3 137.375 299.28C137.295 300.25 137.14 301.095 136.91 301.815C136.69 302.525 136.345 303.305 135.875 304.155L134.9 303.33ZM145.1 298.215C145.38 298.485 145.75 298.865 146.21 299.355C146.67 299.845 147.07 300.285 147.41 300.675L146.585 301.455C146.335 301.145 145.97 300.725 145.49 300.195C145.02 299.665 144.64 299.25 144.35 298.95L145.1 298.215ZM150.035 303.54L151.73 298.245L152.84 298.62L151.115 304.005L150.035 303.54ZM153.755 291.75H162.905V292.755H153.755V291.75ZM157.1 290.445L158.195 290.19L159.08 292.17L157.91 292.29L157.1 290.445ZM150.455 294.33C151.325 294.98 152.175 295.645 153.005 296.325L152.33 297.27C151.27 296.37 150.43 295.695 149.81 295.245L150.455 294.33ZM151.13 290.7C151.22 290.76 151.31 290.83 151.4 290.91C151.5 290.98 151.6 291.055 151.7 291.135C152.41 291.675 152.98 292.125 153.41 292.485L152.735 293.415C151.805 292.645 151.045 292.04 150.455 291.6L151.13 290.7ZM152.945 295.215C153.495 294.955 154.085 294.61 154.715 294.18C155.355 293.75 155.88 293.35 156.29 292.98L156.905 293.775C156.475 294.165 155.935 294.58 155.285 295.02C154.645 295.45 154.04 295.815 153.47 296.115L152.945 295.215ZM159.605 292.92C159.945 293.13 160.32 293.375 160.73 293.655C161.15 293.925 161.57 294.2 161.99 294.48C162.28 294.67 162.605 294.885 162.965 295.125L162.44 296.07C162.06 295.76 161.525 295.375 160.835 294.915C160.145 294.445 159.555 294.055 159.065 293.745L159.605 292.92ZM154.22 297.375C154.84 296.935 155.435 296.46 156.005 295.95C156.575 295.44 157.11 294.91 157.61 294.36L158.42 294.885C157.94 295.385 157.455 295.86 156.965 296.31C156.475 296.75 156.035 297.115 155.645 297.405C155.645 297.405 155.64 297.41 155.63 297.42L160.535 297.135L160.94 297.99L154.475 298.395L154.22 297.375ZM159.29 295.41C159.42 295.52 159.625 295.705 159.905 295.965C160.735 296.705 161.46 297.365 162.08 297.945L161.405 298.665C161.025 298.275 160.52 297.78 159.89 297.18C159.27 296.58 158.855 296.19 158.645 296.01L159.29 295.41ZM159.2 300.45L159.23 300.435C159.69 300.185 160.13 299.92 160.55 299.64C160.97 299.35 161.36 299.055 161.72 298.755L162.35 299.58C161.57 300.15 160.84 300.645 160.16 301.065C160.09 301.105 160.025 301.145 159.965 301.185C159.905 301.225 159.84 301.265 159.77 301.305L159.2 300.45ZM158.285 297.855C158.735 299.025 159.335 299.98 160.085 300.72C160.835 301.45 161.88 302.07 163.22 302.58L162.62 303.585C161.8 303.235 161.065 302.825 160.415 302.355C159.775 301.875 159.205 301.3 158.705 300.63C158.205 299.95 157.775 299.145 157.415 298.215L158.285 297.855ZM152.39 301.275C153.18 300.935 153.89 300.585 154.52 300.225C155.15 299.855 155.715 299.47 156.215 299.07C156.715 298.67 157.17 298.235 157.58 297.765L158.69 297.915C158.07 298.725 157.255 299.515 156.245 300.285C155.245 301.045 154.125 301.725 152.885 302.325L152.39 301.275ZM154.97 303.255C155.18 303.105 155.315 302.99 155.375 302.91C155.445 302.82 155.48 302.7 155.48 302.55V300.18L156.53 299.7V302.625L158.765 301.68L158.825 302.715L155.405 304.11L154.97 303.255ZM167.765 294.195H168.77V304.155H167.75V297.705L167.765 297.255V294.195ZM164.945 300.405L170.54 299.52L170.555 300.69L165.065 301.605L164.945 300.405ZM165.11 292.14H170.54V293.265H165.11V292.14ZM165.29 296.775C165.67 295.815 166.055 294.7 166.445 293.43C166.835 292.15 167.135 291.01 167.345 290.01L168.32 290.19C168.11 291.22 167.855 292.27 167.555 293.34C167.255 294.4 166.955 295.37 166.655 296.25C166.625 296.35 166.59 296.445 166.55 296.535C166.52 296.625 166.49 296.715 166.46 296.805H170.45V297.885H165.29V296.775ZM171.455 295.59H172.58V301.53C172.58 301.83 172.605 302.055 172.655 302.205C172.715 302.345 172.82 302.445 172.97 302.505C173.13 302.565 173.365 302.595 173.675 302.595H174.845C175.185 302.595 175.43 302.575 175.58 302.535C175.74 302.485 175.85 302.39 175.91 302.25C175.98 302.11 176.03 301.885 176.06 301.575V301.485L176.15 299.61L177.23 299.895C177.17 301.085 177.13 301.82 177.11 302.1C177.09 302.51 177.005 302.83 176.855 303.06C176.715 303.29 176.505 303.455 176.225 303.555C175.945 303.655 175.575 303.705 175.115 303.705H173.345C172.845 303.705 172.46 303.65 172.19 303.54C171.93 303.43 171.74 303.24 171.62 302.97C171.51 302.69 171.455 302.285 171.455 301.755V295.59ZM169.67 295.455C170.43 294.815 171.145 294.04 171.815 293.13C172.495 292.22 173.035 291.285 173.435 290.325H174.56C174.92 291.305 175.435 292.26 176.105 293.19C176.775 294.12 177.49 294.885 178.25 295.485L177.56 296.52C176.84 295.91 176.175 295.185 175.565 294.345C174.955 293.495 174.45 292.615 174.05 291.705C173.65 292.565 173.145 293.385 172.535 294.165C171.925 294.945 171.21 295.69 170.39 296.4L169.67 295.455ZM171.71 298.71C172.31 298.4 173.045 297.965 173.915 297.405C174.795 296.835 175.485 296.335 175.985 295.905L176.54 296.97C176.03 297.38 175.31 297.875 174.38 298.455C173.45 299.035 172.655 299.495 171.995 299.835L171.71 298.71ZM181.715 304.635C181.965 304.515 182.17 304.375 182.33 304.215C182.49 304.065 182.61 303.89 182.69 303.69C182.77 303.49 182.81 303.26 182.81 303H181.955V301.425H183.515V303C183.515 303.48 183.4 303.91 183.17 304.29C182.95 304.67 182.585 304.99 182.075 305.25L181.715 304.635ZM207.53 291.3V292.425H195.425V291.3H207.53ZM195.305 303.315C196.215 302.565 196.88 301.89 197.3 301.29C197.73 300.69 198.015 300.03 198.155 299.31C198.305 298.58 198.38 297.575 198.38 296.295V291.705H199.55V296.175C199.55 297.615 199.46 298.76 199.28 299.61C199.11 300.46 198.79 301.225 198.32 301.905C197.86 302.575 197.15 303.33 196.19 304.17L195.305 303.315ZM204.89 291.81V303.975H203.69V291.81H204.89ZM208.16 296.535V297.675H194.81V296.535H208.16ZM216.485 302.1H221.615V303.15H216.485V302.1ZM209.96 293.115H214.88V294.225C214.71 296.035 214.485 297.465 214.205 298.515C213.925 299.555 213.515 300.47 212.975 301.26C212.435 302.05 211.63 302.97 210.56 304.02L209.78 303.24C210.84 302.25 211.62 301.38 212.12 300.63C212.63 299.88 213 299.05 213.23 298.14C213.46 297.22 213.655 295.915 213.815 294.225H209.96V293.115ZM210.23 298.89C210.9 296.24 211.345 293.39 211.565 290.34L212.63 290.415C212.5 291.945 212.335 293.37 212.135 294.69C211.945 296 211.705 297.25 211.415 298.44C211.605 298.6 211.82 298.785 212.06 298.995C212.3 299.195 212.555 299.415 212.825 299.655C213.775 300.505 214.615 301.295 215.345 302.025L214.67 302.97C214.39 302.67 214.06 302.34 213.68 301.98C213.31 301.61 212.935 301.25 212.555 300.9C212.165 300.54 211.765 300.185 211.355 299.835C210.955 299.475 210.58 299.16 210.23 298.89ZM215.285 295.215C215.855 294.565 216.395 293.795 216.905 292.905C217.425 292.005 217.88 291.105 218.27 290.205L219.35 290.61C219.14 291.12 218.86 291.695 218.51 292.335C218.17 292.965 217.825 293.55 217.475 294.09C217.175 294.54 216.955 294.855 216.815 295.035L221.81 294.78L222.005 295.785L215.54 296.145L215.285 295.215ZM220.715 291.93C221.005 292.38 221.39 293.045 221.87 293.925C222.36 294.795 222.785 295.575 223.145 296.265L222.155 296.835C221.865 296.215 221.475 295.45 220.985 294.54C220.505 293.63 220.115 292.93 219.815 292.44L220.715 291.93ZM215.855 297.81H222.26V304.02H221.15V298.86H216.935V304.005H215.855V297.81ZM225.44 291.345H237.23V292.53L232.235 296.07V301.8C232.235 302.3 232.17 302.685 232.04 302.955C231.91 303.215 231.695 303.4 231.395 303.51C231.105 303.62 230.68 303.675 230.12 303.675H228.02L227.81 302.46H229.73C230.1 302.46 230.365 302.435 230.525 302.385C230.695 302.325 230.81 302.22 230.87 302.07C230.94 301.92 230.975 301.685 230.975 301.365V295.455L235.28 292.53H225.44V291.345ZM241.16 296.775H245.675V297.72H241.16V296.775ZM241.16 299.31H245.69V300.225H241.16V299.31ZM247.625 297.27H252.83V298.275H247.625V297.27ZM246.53 300.255H253.1V301.26H246.53V300.255ZM249.59 295.725H250.595V304.05H249.59V295.725ZM239.66 303.615C239.97 303.015 240.195 302.48 240.335 302.01C240.475 301.54 240.57 301.01 240.62 300.42C240.68 299.82 240.71 298.995 240.71 297.945V294.135H246.125V302.565C246.125 303.025 246.035 303.34 245.855 303.51C245.685 303.69 245.385 303.78 244.955 303.78H243.89L243.725 302.82H244.58C244.83 302.82 244.995 302.785 245.075 302.715C245.165 302.635 245.21 302.49 245.21 302.28V295.08H241.655V298.38C241.655 299.37 241.625 300.185 241.565 300.825C241.505 301.465 241.4 302.035 241.25 302.535C241.1 303.025 240.88 303.54 240.59 304.08L239.66 303.615ZM239.75 294.375C240.28 293.815 240.765 293.19 241.205 292.5C241.655 291.8 242.06 291.04 242.42 290.22L243.38 290.535C242.98 291.485 242.535 292.34 242.045 293.1C241.565 293.85 240.995 294.575 240.335 295.275L239.75 294.375ZM246.44 299.475C246.68 298.985 246.905 298.415 247.115 297.765C247.335 297.115 247.505 296.51 247.625 295.95L248.525 296.16C248.415 296.73 248.25 297.34 248.03 297.99C247.82 298.64 247.59 299.245 247.34 299.805L246.44 299.475ZM252.605 291.15C252.495 292.74 252.43 293.64 252.41 293.85C252.37 294.24 252.295 294.54 252.185 294.75C252.075 294.95 251.905 295.095 251.675 295.185C251.445 295.265 251.12 295.305 250.7 295.305H249.455L249.26 294.33H250.355C250.625 294.33 250.825 294.31 250.955 294.27C251.095 294.22 251.195 294.14 251.255 294.03C251.315 293.92 251.36 293.745 251.39 293.505C251.42 293.205 251.455 292.745 251.495 292.125H246.83V291.15H252.605ZM246.275 295.305C246.735 294.965 247.09 294.66 247.34 294.39C247.59 294.11 247.78 293.835 247.91 293.565C248.04 293.285 248.15 292.94 248.24 292.53C248.3 292.23 248.325 291.91 248.315 291.57H249.365C249.355 291.7 249.345 291.83 249.335 291.96C249.325 292.08 249.315 292.2 249.305 292.32C249.295 292.51 249.265 292.68 249.215 292.83C249.145 293.27 249.02 293.67 248.84 294.03C248.66 294.38 248.42 294.715 248.12 295.035C247.82 295.355 247.43 295.7 246.95 296.07L246.275 295.305ZM242.165 291.615H245.66V292.47L244.19 294.6L243.08 294.51L244.415 292.545H242.225L242.165 291.615ZM242.96 294.675H243.875V302.58H242.96V294.675ZM256.535 294.06L257.69 293.52V303.93H256.535V294.06ZM254.75 296.865C255.27 296.115 255.8 295.155 256.34 293.985C256.88 292.815 257.31 291.63 257.63 290.43L258.77 290.715C258.33 292.175 257.82 293.5 257.24 294.69C256.67 295.88 255.995 297.005 255.215 298.065L254.75 296.865ZM258.275 301.785C258.705 301.105 259.115 300.32 259.505 299.43C259.895 298.54 260.235 297.63 260.525 296.7L261.53 297C261.24 297.93 260.905 298.85 260.525 299.76C260.145 300.66 259.735 301.48 259.295 302.22L258.275 301.785ZM265.94 296.565C266.47 297.805 266.99 299.035 267.5 300.255C267.84 301.095 268.045 301.615 268.115 301.815L267.08 302.28C266.76 301.39 266.39 300.42 265.97 299.37C265.56 298.37 265.225 297.58 264.965 297L265.94 296.565ZM258.545 295.845C259.095 295.075 259.615 294.195 260.105 293.205C260.595 292.205 260.975 291.245 261.245 290.325L262.37 290.535C262.04 291.545 261.62 292.57 261.11 293.61C260.61 294.65 260.07 295.605 259.49 296.475L258.545 295.845ZM261.905 302.625C262.305 302.625 262.57 302.575 262.7 302.475C262.83 302.375 262.895 302.16 262.895 301.83V294.645H264.05V302.235C264.05 302.785 263.915 303.175 263.645 303.405C263.385 303.635 262.94 303.75 262.31 303.75H260.75L260.525 302.625H261.905ZM260.9 293.43L261.215 292.35H267.8V293.43L266.72 295.935L265.67 295.56L266.6 293.43H260.9ZM272.045 292.875C272.165 292.535 272.29 292.105 272.42 291.585C272.55 291.055 272.66 290.56 272.75 290.1L273.935 290.31C273.865 290.68 273.755 291.145 273.605 291.705C273.455 292.265 273.32 292.73 273.2 293.1L272.045 292.875ZM270.56 292.575H275.72V302.895H271.13V301.74H274.64V293.73H271.64V303.885H270.56V292.575ZM271.115 297.18H275.195V298.335H271.115V297.18ZM275.885 295.26C276.355 294.55 276.785 293.71 277.175 292.74C277.575 291.76 277.875 290.845 278.075 289.995L279.185 290.265C278.945 291.195 278.625 292.165 278.225 293.175C277.825 294.175 277.375 295.09 276.875 295.92L275.885 295.26ZM282.59 292.62C282.56 293.7 282.51 295.23 282.44 297.21C282.38 299.18 282.33 300.695 282.29 301.755C282.27 302.235 282.185 302.615 282.035 302.895C281.895 303.165 281.665 303.36 281.345 303.48C281.035 303.6 280.61 303.66 280.07 303.66H278.18L277.955 302.49H279.725C280.115 302.49 280.41 302.455 280.61 302.385C280.82 302.315 280.97 302.19 281.06 302.01C281.15 301.82 281.2 301.545 281.21 301.185C281.22 301.085 281.265 299.775 281.345 297.255L281.45 293.76H277.535V292.62H282.59ZM277.79 295.98C277.97 296.2 278.155 296.43 278.345 296.67C278.535 296.91 278.73 297.16 278.93 297.42C279.13 297.68 279.325 297.945 279.515 298.215C279.715 298.475 279.9 298.73 280.07 298.98L279.11 299.655C279.06 299.575 279.005 299.49 278.945 299.4C278.885 299.31 278.825 299.22 278.765 299.13C278.495 298.73 278.195 298.31 277.865 297.87C277.545 297.43 277.245 297.025 276.965 296.655L277.79 295.98ZM288.546 303L292.671 291.9H294.021L298.146 303H296.766L293.391 293.79H293.301L289.926 303H288.546ZM295.476 297.915L295.791 299.145H290.901L291.201 297.915H295.476ZM300.831 303H299.541V291.9H300.831V303ZM307.238 301.62L313.898 300.75L313.943 301.875L307.388 302.76L307.238 301.62ZM308.948 294.54H312.638V295.59H308.948V294.54ZM308.948 297.675H312.638V298.695H308.948V297.675ZM319.853 293.16C319.823 294 319.778 295.37 319.718 297.27C319.658 299.16 319.608 300.655 319.568 301.755C319.548 302.235 319.468 302.605 319.328 302.865C319.188 303.125 318.963 303.305 318.653 303.405C318.353 303.515 317.928 303.57 317.378 303.57H316.073L315.863 302.49H316.943C317.373 302.49 317.693 302.46 317.903 302.4C318.123 302.33 318.273 302.21 318.353 302.04C318.433 301.87 318.483 301.61 318.503 301.26C318.543 300.31 318.588 298.89 318.638 297C318.698 295.22 318.728 294.3 318.728 294.24H313.853V293.16H319.853ZM312.758 303.285C313.458 302.455 313.973 301.73 314.303 301.11C314.643 300.48 314.893 299.72 315.053 298.83C315.213 297.94 315.313 296.71 315.353 295.14C315.363 294.92 315.378 293.915 315.398 292.125C315.408 291.535 315.413 290.94 315.413 290.34H316.508C316.508 290.83 316.498 291.56 316.478 292.53C316.468 293.5 316.448 294.405 316.418 295.245C316.358 296.885 316.238 298.2 316.058 299.19C315.878 300.17 315.603 301.02 315.233 301.74C314.863 302.45 314.323 303.245 313.613 304.125L312.758 303.285ZM308.258 291.24H313.058V301.125H312.008V292.335H309.308V301.725H308.258V291.24ZM323.363 295.02H334.478V296.175H323.363V295.02ZM322.313 298.515H335.513V299.655H322.313V298.515ZM327.293 302.61C327.633 302.61 327.878 302.585 328.028 302.535C328.188 302.485 328.298 302.395 328.358 302.265C328.418 302.125 328.448 301.9 328.448 301.59V291.945H329.648V301.995C329.648 302.465 329.588 302.825 329.468 303.075C329.358 303.335 329.163 303.515 328.883 303.615C328.613 303.715 328.218 303.765 327.698 303.765H325.748L325.523 302.61H327.293ZM323.108 291.675C324.548 291.635 326.378 291.53 328.598 291.36C330.818 291.19 332.723 291.01 334.313 290.82L334.493 291.96C332.993 292.15 331.113 292.325 328.853 292.485C326.593 292.645 324.708 292.75 323.198 292.8L323.108 291.675Z" fill="#3E3A39" fill-opacity="0.4"/>
<path d="M195.06 174.6V176.85H170.85V174.6H195.06ZM170.61 198.63C172.43 197.13 173.76 195.78 174.6 194.58C175.46 193.38 176.03 192.06 176.31 190.62C176.61 189.16 176.76 187.15 176.76 184.59V175.41H179.1V184.35C179.1 187.23 178.92 189.52 178.56 191.22C178.22 192.92 177.58 194.45 176.64 195.81C175.72 197.15 174.3 198.66 172.38 200.34L170.61 198.63ZM189.78 175.62V199.95H187.38V175.62H189.78ZM196.32 185.07V187.35H169.62V185.07H196.32ZM212.97 196.2H223.23V198.3H212.97V196.2ZM199.92 178.23H209.76V180.45C209.42 184.07 208.97 186.93 208.41 189.03C207.85 191.11 207.03 192.94 205.95 194.52C204.87 196.1 203.26 197.94 201.12 200.04L199.56 198.48C201.68 196.5 203.24 194.76 204.24 193.26C205.26 191.76 206 190.1 206.46 188.28C206.92 186.44 207.31 183.83 207.63 180.45H199.92V178.23ZM200.46 189.78C201.8 184.48 202.69 178.78 203.13 172.68L205.26 172.83C205 175.89 204.67 178.74 204.27 181.38C203.89 184 203.41 186.5 202.83 188.88C203.21 189.2 203.64 189.57 204.12 189.99C204.6 190.39 205.11 190.83 205.65 191.31C207.55 193.01 209.23 194.59 210.69 196.05L209.34 197.94C208.78 197.34 208.12 196.68 207.36 195.96C206.62 195.22 205.87 194.5 205.11 193.8C204.33 193.08 203.53 192.37 202.71 191.67C201.91 190.95 201.16 190.32 200.46 189.78ZM210.57 182.43C211.71 181.13 212.79 179.59 213.81 177.81C214.85 176.01 215.76 174.21 216.54 172.41L218.7 173.22C218.28 174.24 217.72 175.39 217.02 176.67C216.34 177.93 215.65 179.1 214.95 180.18C214.35 181.08 213.91 181.71 213.63 182.07L223.62 181.56L224.01 183.57L211.08 184.29L210.57 182.43ZM221.43 175.86C222.01 176.76 222.78 178.09 223.74 179.85C224.72 181.59 225.57 183.15 226.29 184.53L224.31 185.67C223.73 184.43 222.95 182.9 221.97 181.08C221.01 179.26 220.23 177.86 219.63 176.88L221.43 175.86ZM211.71 187.62H224.52V200.04H222.3V189.72H213.87V200.01H211.71V187.62ZM237.24 176.28H255.93V178.41H237.24V176.28ZM236.19 198.09C238.83 197.39 240.8 196.65 242.1 195.87C243.42 195.09 244.31 194.18 244.77 193.14C245.23 192.08 245.46 190.68 245.46 188.94V186.66C245.46 184.3 245.46 181.81 245.46 179.19C245.48 176.57 245.48 174.41 245.46 172.71H247.59V188.88C247.59 191.08 247.29 192.85 246.69 194.19C246.09 195.53 245.06 196.66 243.6 197.58C242.14 198.5 240.02 199.38 237.24 200.22L236.19 198.09ZM240.51 190.08C241.87 192.18 243.78 193.82 246.24 195C248.72 196.18 252.06 196.99 256.26 197.43L255.63 199.74C251.27 199.1 247.78 198.13 245.16 196.83C242.54 195.51 240.47 193.69 238.95 191.37L240.51 190.08ZM238.29 181.29H254.73V189.15H238.29V181.29ZM240.36 183.27V187.08H252.63V183.27H240.36ZM229.41 185.91C230.39 184.53 231.37 182.66 232.35 180.3C233.35 177.92 234.23 175.38 234.99 172.68L237.12 173.25C236.34 176.25 235.4 178.98 234.3 181.44C233.2 183.88 231.88 186.21 230.34 188.43L229.41 185.91ZM232.89 180.18L234.99 179.1V200.13H232.89V180.18ZM272.22 175.23H274.53V199.47H272.22V175.23ZM259.71 199.08C260.55 197.7 261.16 196.51 261.54 195.51C261.92 194.49 262.18 193.34 262.32 192.06C262.46 190.76 262.53 188.93 262.53 186.57V174.39H284.4V196.26C284.4 197.14 284.28 197.82 284.04 198.3C283.8 198.8 283.41 199.15 282.87 199.35C282.35 199.55 281.61 199.65 280.65 199.65H277.59L277.23 197.34H279.96C280.58 197.34 281.03 197.3 281.31 197.22C281.61 197.12 281.81 196.94 281.91 196.68C282.01 196.42 282.06 196.02 282.06 195.48V176.64H264.84V187.38C264.84 189.44 264.75 191.17 264.57 192.57C264.39 193.95 264.09 195.23 263.67 196.41C263.25 197.57 262.64 198.83 261.84 200.19L259.71 199.08ZM263.64 189.06H282.81V191.31H263.64V189.06ZM263.64 181.86H282.75V184.11H263.64V181.86Z" fill="#3E3A39"/>
<path d="M168.022 146.88V102.72H171.502V146.88H168.022ZM142.042 125.58V122.34H168.742V125.58H142.042ZM142.762 102.72V146.88H139.282V102.72H142.762ZM184.598 143.58H208.418V146.88H181.118V102.72H207.638V106.02H184.598V122.22H206.378V125.46H184.598V143.58ZM218.993 143.58H242.393V146.88H215.513V102.72H218.993V143.58ZM251.864 143.58H275.264V146.88H248.384V102.72H251.864V143.58ZM297.559 147.72C293.639 147.72 290.199 146.78 287.239 144.9C284.279 143.02 281.979 140.36 280.339 136.92C278.739 133.44 277.939 129.4 277.939 124.8C277.939 120.16 278.739 116.12 280.339 112.68C281.979 109.2 284.279 106.54 287.239 104.7C290.199 102.82 293.639 101.88 297.559 101.88C301.479 101.88 304.919 102.82 307.879 104.7C310.839 106.54 313.139 109.2 314.779 112.68C316.419 116.12 317.239 120.16 317.239 124.8C317.239 129.4 316.419 133.44 314.779 136.92C313.139 140.36 310.839 143.02 307.879 144.9C304.919 146.78 301.479 147.72 297.559 147.72ZM297.559 144.42C300.759 144.42 303.559 143.62 305.959 142.02C308.399 140.42 310.299 138.14 311.659 135.18C313.019 132.22 313.699 128.76 313.699 124.8C313.699 120.8 313.019 117.34 311.659 114.42C310.299 111.46 308.399 109.18 305.959 107.58C303.559 105.98 300.759 105.18 297.559 105.18C294.359 105.18 291.539 105.98 289.099 107.58C286.699 109.18 284.819 111.46 283.459 114.42C282.139 117.34 281.479 120.8 281.479 124.8C281.479 128.76 282.139 132.22 283.459 135.18C284.819 138.14 286.699 140.42 289.099 142.02C291.539 143.62 294.359 144.42 297.559 144.42Z" fill="#3E3A39"/>
<rect x="-0.5" y="-0.5" width="351" height="34" rx="17" transform="matrix(-4.37114e-08 -1 -1 4.37114e-08 708 351)" fill="white" stroke="#3E3A39"/>
<rect x="441.967" y="235.167" width="145.667" height="53.2667" rx="26.6333" stroke="#3E3A39" stroke-opacity="0.6" stroke-linejoin="round"/>
<path d="M524.571 301.896C524.571 302.046 524.542 302.195 524.485 302.334C524.428 302.473 524.343 302.6 524.237 302.706L515.608 311.334C515.393 311.548 515.103 311.668 514.799 311.668C514.496 311.668 514.205 311.548 513.991 311.334L505.361 302.706C505.147 302.491 505.026 302.2 505.026 301.896C505.027 301.592 505.147 301.301 505.362 301.087C505.577 300.872 505.869 300.751 506.172 300.752C506.476 300.752 506.767 300.873 506.982 301.087L514.799 308.905L522.617 301.087C522.777 300.928 522.98 300.819 523.202 300.775C523.424 300.731 523.654 300.753 523.863 300.84C524.072 300.926 524.25 301.073 524.376 301.261C524.502 301.449 524.569 301.67 524.569 301.896L524.571 301.896Z" fill="#3E3A39" fill-opacity="0.2"/>
<path d="M505.028 221.704C505.027 221.554 505.057 221.405 505.114 221.266C505.171 221.127 505.255 221 505.361 220.894L513.991 212.266C514.205 212.052 514.496 211.931 514.799 211.931C515.102 211.931 515.393 212.052 515.608 212.266L524.237 220.894C524.452 221.109 524.572 221.4 524.572 221.704C524.572 222.007 524.451 222.299 524.236 222.513C524.021 222.728 523.73 222.848 523.426 222.848C523.123 222.848 522.831 222.727 522.617 222.512L514.799 214.695L506.982 222.512C506.822 222.672 506.618 222.781 506.396 222.825C506.175 222.869 505.945 222.846 505.736 222.76C505.527 222.673 505.348 222.527 505.223 222.339C505.097 222.151 505.03 221.93 505.03 221.704L505.028 221.704Z" fill="#3E3A39" fill-opacity="0.2"/>
<defs>
<filter id="filter0_g_2025_2990" x="39" y="34.8" width="378" height="284" filterUnits="userSpaceOnUse" color-interpolation-filters="sRGB">
<feFlood flood-opacity="0" result="BackgroundImageFix"/>
<feBlend mode="normal" in="SourceGraphic" in2="BackgroundImageFix" result="shape"/>
<feTurbulence type="fractalNoise" baseFrequency="0.99900001287460327 0.99900001287460327" numOctaves="3" seed="8682" />
<feDisplacementMap in="shape" scale="4" xChannelSelector="R" yChannelSelector="G" result="displacedImage" width="100%" height="100%" />
<feMerge result="effect1_texture_2025_2990">
<feMergeNode in="displacedImage"/>
</feMerge>
</filter>
</defs>
</svg>
