<svg width="509" height="720" viewBox="0 0 509 720" fill="none" xmlns="http://www.w3.org/2000/svg">
<path d="M508.231 572H483.731C466.334 572 452.231 586.103 452.231 603.5C452.231 620.897 466.334 635 483.731 635H508.231V572Z" fill="#D9D9D9"/>
<path d="M483.731 572.5C466.611 572.5 452.731 586.379 452.731 603.5C452.731 620.621 466.611 634.5 483.731 634.5H507.731V572.5H483.731Z" stroke="#3E3A39" stroke-opacity="0.6" stroke-linejoin="round"/>
<rect x="0.5" y="0.5" width="411.769" height="719" rx="29.5" fill="#E3E4E5" stroke="#3E3A39"/>
<rect x="9.08496" y="9.63135" width="393.507" height="700.738" rx="26.75" fill="white" stroke="#3E3A39" stroke-width="0.5"/>
<rect width="114.164" height="49.8169" rx="24.9085" transform="matrix(-1 0 0 1 161.433 549.381)" fill="#E3E4E5"/>
<rect width="114.164" height="49.8169" rx="24.9085" transform="matrix(-1 0 0 1 161.433 607.5)" fill="#E3E4E5"/>
<rect x="41.042" y="543.152" width="126.618" height="120.391" rx="12" fill="#E3E4E5" fill-opacity="0.2"/>
<g opacity="0.4" filter="url(#filter0_g_2024_2763)">
<rect x="41.542" y="48.5781" width="327.339" height="437.567" rx="11.5" stroke="#3E3A39" stroke-opacity="0.6"/>
</g>
<rect x="197.004" y="571.856" width="171.987" height="63.6352" rx="30" fill="#E3E4E5"/>
<path d="M294.457 650.692C294.457 650.868 294.423 651.043 294.356 651.206C294.289 651.369 294.19 651.517 294.066 651.642L283.946 661.759C283.695 662.01 283.354 662.151 282.998 662.151C282.643 662.151 282.302 662.01 282.05 661.759L271.931 651.642C271.679 651.39 271.538 651.048 271.538 650.692C271.538 650.336 271.68 649.994 271.932 649.743C272.184 649.491 272.526 649.35 272.882 649.35C273.238 649.35 273.58 649.492 273.831 649.744L282.998 658.911L292.165 649.744C292.353 649.556 292.592 649.429 292.852 649.377C293.112 649.325 293.381 649.352 293.626 649.453C293.871 649.555 294.081 649.727 294.228 649.947C294.376 650.167 294.454 650.427 294.455 650.692L294.457 650.692Z" fill="#3E3A39" fill-opacity="0.2"/>
<path d="M271.539 556.655C271.539 556.479 271.573 556.304 271.64 556.141C271.707 555.978 271.806 555.83 271.93 555.705L282.05 545.588C282.301 545.337 282.642 545.196 282.998 545.196C283.353 545.196 283.694 545.337 283.946 545.588L294.065 555.705C294.317 555.957 294.458 556.299 294.458 556.655C294.458 557.011 294.316 557.353 294.064 557.605C293.812 557.856 293.47 557.998 293.114 557.997C292.758 557.997 292.416 557.855 292.165 557.603L282.998 548.437L273.831 557.603C273.643 557.791 273.404 557.918 273.144 557.97C272.884 558.022 272.615 557.995 272.37 557.894C272.125 557.792 271.915 557.621 271.768 557.4C271.62 557.18 271.542 556.921 271.541 556.655L271.539 556.655Z" fill="#3E3A39" fill-opacity="0.2"/>
<rect x="136.026" y="21.1074" width="140.717" height="17.5896" rx="8.79479" fill="#D9D9D9"/>
<path d="M490.731 0.5C481.343 0.5 473.731 8.11116 473.731 17.5V702.5C473.731 711.889 481.343 719.5 490.731 719.5C500.12 719.5 507.731 711.889 507.731 702.5V17.5C507.731 8.11117 500.12 0.5 490.731 0.5Z" fill="#D9D9D9" stroke="#3E3A39"/>
<path d="M173.291 275.6V277.85H149.081V275.6H173.291ZM148.841 299.63C150.661 298.13 151.991 296.78 152.831 295.58C153.691 294.38 154.261 293.06 154.541 291.62C154.841 290.16 154.991 288.15 154.991 285.59V276.41H157.331V285.35C157.331 288.23 157.151 290.52 156.791 292.22C156.451 293.92 155.811 295.45 154.871 296.81C153.951 298.15 152.531 299.66 150.611 301.34L148.841 299.63ZM168.011 276.62V300.95H165.611V276.62H168.011ZM174.551 286.07V288.35H147.851V286.07H174.551ZM191.201 297.2H201.461V299.3H191.201V297.2ZM178.151 279.23H187.991V281.45C187.651 285.07 187.201 287.93 186.641 290.03C186.081 292.11 185.261 293.94 184.181 295.52C183.101 297.1 181.491 298.94 179.351 301.04L177.791 299.48C179.911 297.5 181.471 295.76 182.471 294.26C183.491 292.76 184.231 291.1 184.691 289.28C185.151 287.44 185.541 284.83 185.861 281.45H178.151V279.23ZM178.691 290.78C180.031 285.48 180.921 279.78 181.361 273.68L183.491 273.83C183.231 276.89 182.901 279.74 182.501 282.38C182.121 285 181.641 287.5 181.061 289.88C181.441 290.2 181.871 290.57 182.351 290.99C182.831 291.39 183.341 291.83 183.881 292.31C185.781 294.01 187.461 295.59 188.921 297.05L187.571 298.94C187.011 298.34 186.351 297.68 185.591 296.96C184.851 296.22 184.101 295.5 183.341 294.8C182.561 294.08 181.761 293.37 180.941 292.67C180.141 291.95 179.391 291.32 178.691 290.78ZM188.801 283.43C189.941 282.13 191.021 280.59 192.041 278.81C193.081 277.01 193.991 275.21 194.771 273.41L196.931 274.22C196.511 275.24 195.951 276.39 195.251 277.67C194.571 278.93 193.881 280.1 193.181 281.18C192.581 282.08 192.141 282.71 191.861 283.07L201.851 282.56L202.241 284.57L189.311 285.29L188.801 283.43ZM199.661 276.86C200.241 277.76 201.011 279.09 201.971 280.85C202.951 282.59 203.801 284.15 204.521 285.53L202.541 286.67C201.961 285.43 201.181 283.9 200.201 282.08C199.241 280.26 198.461 278.86 197.861 277.88L199.661 276.86ZM189.941 288.62H202.751V301.04H200.531V290.72H192.101V301.01H189.941V288.62ZM215.471 277.28H234.161V279.41H215.471V277.28ZM214.421 299.09C217.061 298.39 219.031 297.65 220.331 296.87C221.651 296.09 222.541 295.18 223.001 294.14C223.461 293.08 223.691 291.68 223.691 289.94V287.66C223.691 285.3 223.691 282.81 223.691 280.19C223.711 277.57 223.711 275.41 223.691 273.71H225.821V289.88C225.821 292.08 225.521 293.85 224.921 295.19C224.321 296.53 223.291 297.66 221.831 298.58C220.371 299.5 218.251 300.38 215.471 301.22L214.421 299.09ZM218.741 291.08C220.101 293.18 222.011 294.82 224.471 296C226.951 297.18 230.291 297.99 234.491 298.43L233.861 300.74C229.501 300.1 226.011 299.13 223.391 297.83C220.771 296.51 218.701 294.69 217.181 292.37L218.741 291.08ZM216.521 282.29H232.961V290.15H216.521V282.29ZM218.591 284.27V288.08H230.861V284.27H218.591ZM207.641 286.91C208.621 285.53 209.601 283.66 210.581 281.3C211.581 278.92 212.461 276.38 213.221 273.68L215.351 274.25C214.571 277.25 213.631 279.98 212.531 282.44C211.431 284.88 210.111 287.21 208.571 289.43L207.641 286.91ZM211.121 281.18L213.221 280.1V301.13H211.121V281.18ZM250.451 276.23H252.761V300.47H250.451V276.23ZM237.941 300.08C238.781 298.7 239.391 297.51 239.771 296.51C240.151 295.49 240.411 294.34 240.551 293.06C240.691 291.76 240.761 289.93 240.761 287.57V275.39H262.631V297.26C262.631 298.14 262.511 298.82 262.271 299.3C262.031 299.8 261.641 300.15 261.101 300.35C260.581 300.55 259.841 300.65 258.881 300.65H255.821L255.461 298.34H258.191C258.811 298.34 259.261 298.3 259.541 298.22C259.841 298.12 260.041 297.94 260.141 297.68C260.241 297.42 260.291 297.02 260.291 296.48V277.64H243.071V288.38C243.071 290.44 242.981 292.17 242.801 293.57C242.621 294.95 242.321 296.23 241.901 297.41C241.481 298.57 240.871 299.83 240.071 301.19L237.941 300.08ZM241.871 290.06H261.041V292.31H241.871V290.06ZM241.871 282.86H260.981V285.11H241.871V282.86Z" fill="#3E3A39"/>
<path d="M147.254 247.88V203.72H150.734V247.88H147.254ZM121.274 226.58V223.34H147.974V226.58H121.274ZM121.994 203.72V247.88H118.514V203.72H121.994ZM163.83 244.58H187.65V247.88H160.35V203.72H186.87V207.02H163.83V223.22H185.61V226.46H163.83V244.58ZM198.224 244.58H221.624V247.88H194.744V203.72H198.224V244.58ZM231.095 244.58H254.495V247.88H227.615V203.72H231.095V244.58ZM276.79 248.72C272.87 248.72 269.43 247.78 266.47 245.9C263.51 244.02 261.21 241.36 259.57 237.92C257.97 234.44 257.17 230.4 257.17 225.8C257.17 221.16 257.97 217.12 259.57 213.68C261.21 210.2 263.51 207.54 266.47 205.7C269.43 203.82 272.87 202.88 276.79 202.88C280.71 202.88 284.15 203.82 287.11 205.7C290.07 207.54 292.37 210.2 294.01 213.68C295.65 217.12 296.47 221.16 296.47 225.8C296.47 230.4 295.65 234.44 294.01 237.92C292.37 241.36 290.07 244.02 287.11 245.9C284.15 247.78 280.71 248.72 276.79 248.72ZM276.79 245.42C279.99 245.42 282.79 244.62 285.19 243.02C287.63 241.42 289.53 239.14 290.89 236.18C292.25 233.22 292.93 229.76 292.93 225.8C292.93 221.8 292.25 218.34 290.89 215.42C289.53 212.46 287.63 210.18 285.19 208.58C282.79 206.98 279.99 206.18 276.79 206.18C273.59 206.18 270.77 206.98 268.33 208.58C265.93 210.18 264.05 212.46 262.69 215.42C261.37 218.34 260.71 221.8 260.71 225.8C260.71 229.76 261.37 233.22 262.69 236.18C264.05 239.14 265.93 241.42 268.33 243.02C270.77 244.62 273.59 245.42 276.79 245.42Z" fill="#3E3A39"/>
<path opacity="0.6" d="M124.655 446.922H125.825V460.224H124.655V446.922ZM119.147 446.256H131.333V453.816H119.147V446.256ZM120.335 447.354V452.718H130.145V447.354H120.335ZM117.419 455.868H133.043V457.02H117.419V455.868ZM120.803 444.168L121.703 443.52L123.701 445.824L122.711 446.454L120.803 444.168ZM119.813 449.496H130.649V450.576H119.813V449.496ZM126.203 446.598C126.563 446.202 126.989 445.704 127.481 445.104C127.985 444.492 128.387 443.976 128.687 443.556L129.749 444.096C129.473 444.48 129.107 444.954 128.651 445.518C128.195 446.07 127.781 446.568 127.409 447.012L126.203 446.598ZM135.581 447.21H140.513V448.398H135.581V447.21ZM136.463 458.712C136.775 458.712 137.009 458.688 137.165 458.64C137.321 458.58 137.429 458.49 137.489 458.37C137.549 458.238 137.579 458.034 137.579 457.758V444.006H138.731V458.172C138.731 458.64 138.671 458.994 138.551 459.234C138.431 459.486 138.233 459.66 137.957 459.756C137.693 459.852 137.315 459.9 136.823 459.9H135.653L135.419 458.712H136.463ZM135.221 452.862C135.365 452.802 135.509 452.742 135.653 452.682C135.797 452.622 135.953 452.556 136.121 452.484C137.813 451.824 139.157 451.266 140.153 450.81L140.351 452.016C139.871 452.22 139.205 452.49 138.353 452.826C136.673 453.522 135.731 453.918 135.527 454.014L135.221 452.862ZM145.895 443.718C146.015 443.97 146.153 444.294 146.309 444.69C146.465 445.074 146.609 445.458 146.741 445.842C146.777 445.926 146.807 446.01 146.831 446.094C146.867 446.166 146.897 446.226 146.921 446.274L145.643 446.508C145.583 446.376 145.517 446.226 145.445 446.058C145.385 445.878 145.319 445.686 145.247 445.482C145.151 445.206 145.049 444.942 144.941 444.69C144.845 444.426 144.755 444.204 144.671 444.024L145.895 443.718ZM141.161 446.004H150.629V449.172H149.459V447.12H142.295V449.172H141.161V446.004ZM140.765 450.954H151.079V452.088H140.765V450.954ZM141.575 454.896L141.611 454.824C142.127 453.756 142.613 452.622 143.069 451.422C143.537 450.222 143.903 449.118 144.167 448.11L145.391 448.398C145.127 449.31 144.779 450.312 144.347 451.404C143.927 452.484 143.495 453.486 143.051 454.41C144.083 454.926 145.307 455.598 146.723 456.426C148.139 457.254 149.543 458.118 150.935 459.018L150.233 460.134C148.781 459.162 147.281 458.202 145.733 457.254C144.185 456.306 142.799 455.52 141.575 454.896ZM139.865 459.108C141.701 458.544 143.159 457.944 144.239 457.308C145.319 456.66 146.153 455.886 146.741 454.986C147.329 454.074 147.767 452.916 148.055 451.512L149.207 451.818C148.895 453.378 148.415 454.662 147.767 455.67C147.131 456.666 146.237 457.524 145.085 458.244C143.933 458.952 142.367 459.642 140.387 460.314L139.865 459.108ZM161.231 458.496C160.055 458.496 158.963 458.208 157.955 457.632C156.959 457.044 156.167 456.252 155.579 455.256C155.003 454.248 154.715 453.156 154.715 451.98C154.715 450.804 155.003 449.718 155.579 448.722C156.167 447.714 156.959 446.922 157.955 446.346C158.963 445.758 160.055 445.464 161.231 445.464C162.407 445.464 163.493 445.758 164.489 446.346C165.497 446.922 166.289 447.714 166.865 448.722C167.453 449.718 167.747 450.804 167.747 451.98C167.747 453.156 167.453 454.248 166.865 455.256C166.289 456.252 165.497 457.044 164.489 457.632C163.493 458.208 162.407 458.496 161.231 458.496ZM161.231 457.794C162.275 457.794 163.241 457.536 164.129 457.02C165.017 456.492 165.719 455.784 166.235 454.896C166.751 454.008 167.009 453.036 167.009 451.98C167.009 450.924 166.751 449.952 166.235 449.064C165.719 448.176 165.017 447.474 164.129 446.958C163.241 446.43 162.275 446.166 161.231 446.166C160.187 446.166 159.221 446.43 158.333 446.958C157.445 447.474 156.743 448.176 156.227 449.064C155.711 449.952 155.453 450.924 155.453 451.98C155.453 453.036 155.711 454.008 156.227 454.896C156.743 455.784 157.445 456.492 158.333 457.02C159.221 457.536 160.187 457.794 161.231 457.794ZM172.571 446.184H175.811V447.228H172.571V446.184ZM171.275 452.79H175.685V453.834H171.275V452.79ZM171.077 449.064C171.461 448.356 171.839 447.51 172.211 446.526C172.595 445.542 172.901 444.594 173.129 443.682L174.137 443.898C173.873 444.93 173.537 445.968 173.129 447.012C172.733 448.044 172.271 449.034 171.743 449.982L171.077 449.064ZM171.941 449.28H175.397V450.306H171.941V449.28ZM179.609 447.912H187.133V448.866H179.609V447.912ZM179.429 455.328H186.899V456.264H179.429V455.328ZM180.005 452.88H186.431V453.816H180.005V452.88ZM182.345 443.79H183.353V457.974H182.345V443.79ZM172.427 458.73C172.595 458.586 172.715 458.454 172.787 458.334C172.859 458.214 172.895 458.07 172.895 457.902V449.64H173.903V457.83L175.703 456.39L175.955 457.524L173.057 459.702L172.427 458.73ZM176.819 452.574C177.119 453.858 177.485 454.92 177.917 455.76C178.361 456.6 178.937 457.248 179.645 457.704C180.353 458.16 181.235 458.388 182.291 458.388H187.151L186.971 459.45H182.201C181.133 459.45 180.203 459.258 179.411 458.874C178.631 458.478 177.947 457.8 177.359 456.84C176.783 455.88 176.315 454.566 175.955 452.898L176.819 452.574ZM175.163 459.36C176.195 458.148 176.951 456.924 177.431 455.688C177.923 454.44 178.235 452.952 178.367 451.224H176.153V450.18L178.367 446.166H176.279V445.104H179.465V446.184L177.305 450.18H179.393V451.26C179.237 452.604 179.033 453.756 178.781 454.716C178.541 455.676 178.205 456.582 177.773 457.434C177.341 458.286 176.765 459.192 176.045 460.152L175.163 459.36ZM180.131 450.432H185.171V446.346H180.149V445.41H186.143V451.35H180.131V450.432ZM205.079 446.022V447.138H189.293V446.022H205.079ZM193.829 443.826C193.901 443.922 193.991 444.048 194.099 444.204C194.207 444.348 194.339 444.516 194.495 444.708C194.723 445.02 194.939 445.308 195.143 445.572C195.347 445.836 195.503 446.046 195.611 446.202L194.261 446.472C194.213 446.388 193.937 446.016 193.433 445.356C193.253 445.104 193.085 444.876 192.929 444.672C192.785 444.468 192.671 444.312 192.587 444.204L193.829 443.826ZM196.115 452.088V453.186H191.363V452.088H196.115ZM196.115 455.112V456.21H191.381V455.112H196.115ZM200.039 449.28V456.984H198.941V449.28H200.039ZM198.563 446.454C198.647 446.334 198.737 446.22 198.833 446.112C198.929 445.992 199.019 445.872 199.103 445.752C199.787 444.876 200.285 444.204 200.597 443.736L201.785 444.15C201.509 444.558 201.155 445.044 200.723 445.608C200.303 446.16 199.943 446.604 199.643 446.94L198.563 446.454ZM201.029 458.712C201.425 458.712 201.719 458.682 201.911 458.622C202.103 458.562 202.229 458.454 202.289 458.298C202.349 458.142 202.379 457.896 202.379 457.56V448.524H203.549V457.848C203.549 458.376 203.483 458.784 203.351 459.072C203.231 459.36 203.009 459.564 202.685 459.684C202.373 459.804 201.917 459.864 201.317 459.864H199.283L199.049 458.712H201.029ZM196.871 458.1C196.871 458.568 196.811 458.934 196.691 459.198C196.571 459.462 196.373 459.648 196.097 459.756C195.833 459.864 195.461 459.918 194.981 459.918H193.505L193.271 458.766H194.603C194.927 458.766 195.167 458.742 195.323 458.694C195.479 458.634 195.581 458.538 195.629 458.406C195.689 458.274 195.719 458.07 195.719 457.794V450.126H191.795V460.026H190.625V449.01H196.871V458.1ZM209.669 451.782L210.839 451.188V460.188H209.669V451.782ZM212.099 458.118H223.115V459.288H212.099V458.118ZM212.801 447.012H222.737V448.2H212.801V447.012ZM213.053 452.214H222.161V453.438H213.053V452.214ZM217.085 447.606H218.363V458.694H217.085V447.606ZM207.203 454.032C207.899 453.408 208.649 452.574 209.453 451.53C210.269 450.474 210.923 449.484 211.415 448.56L212.387 449.226C211.835 450.246 211.109 451.338 210.209 452.502C209.321 453.654 208.493 454.578 207.725 455.274L207.203 454.032ZM207.437 448.56C208.133 447.948 208.883 447.192 209.687 446.292C210.503 445.38 211.115 444.594 211.523 443.934L212.531 444.708C212.063 445.404 211.391 446.238 210.515 447.21C209.639 448.17 208.811 448.986 208.031 449.658L207.437 448.56ZM216.239 444.06L217.355 443.556L218.795 446.256L217.661 446.832L216.239 444.06ZM229.793 446.076H240.953V447.228H229.793V446.076ZM229.145 459.18C230.741 458.736 231.935 458.274 232.727 457.794C233.531 457.314 234.071 456.756 234.347 456.12C234.623 455.472 234.761 454.62 234.761 453.564V451.188C234.761 449.94 234.761 448.632 234.761 447.264C234.773 445.884 234.773 444.75 234.761 443.862H235.913V453.546C235.913 454.854 235.733 455.91 235.373 456.714C235.013 457.506 234.395 458.178 233.519 458.73C232.643 459.282 231.371 459.81 229.703 460.314L229.145 459.18ZM231.701 454.248C232.529 455.544 233.681 456.552 235.157 457.272C236.633 457.992 238.631 458.49 241.151 458.766L240.827 460.008C238.211 459.624 236.123 459.036 234.563 458.244C233.003 457.452 231.767 456.354 230.855 454.95L231.701 454.248ZM230.459 449.064H240.215V453.654H230.459V449.064ZM231.575 450.126V452.538H239.081V450.126H231.575ZM225.113 451.872C225.713 451.032 226.313 449.892 226.913 448.452C227.513 447.012 228.041 445.482 228.497 443.862L229.649 444.168C229.181 445.956 228.611 447.588 227.939 449.064C227.279 450.54 226.505 451.926 225.617 453.222L225.113 451.872ZM227.237 448.308L228.371 447.696V460.26H227.237V448.308ZM250.853 445.356H252.077V459.864H250.853V445.356ZM243.329 459.684C243.833 458.856 244.199 458.142 244.427 457.542C244.655 456.93 244.811 456.24 244.895 455.472C244.979 454.692 245.021 453.594 245.021 452.178V444.906H257.999V457.956C257.999 458.484 257.927 458.886 257.783 459.162C257.651 459.45 257.429 459.654 257.117 459.774C256.805 459.894 256.367 459.954 255.803 459.954H253.949L253.751 458.712H255.443C255.827 458.712 256.109 458.682 256.289 458.622C256.469 458.562 256.589 458.454 256.649 458.298C256.721 458.13 256.757 457.884 256.757 457.56V446.112H246.263V452.61C246.263 453.858 246.209 454.902 246.101 455.742C245.993 456.57 245.813 457.332 245.561 458.028C245.309 458.712 244.943 459.462 244.463 460.278L243.329 459.684ZM245.615 453.708H257.153V454.914H245.615V453.708ZM245.615 449.388H257.117V450.594H245.615V449.388ZM264.371 443.808H265.487V449.64H264.371V443.808ZM262.139 446.058H267.485V447.048H262.139V446.058ZM261.437 449.154H269.267V450.18H261.437V449.154ZM261.239 454.122C262.979 452.862 264.485 451.5 265.757 450.036C267.029 448.572 268.103 446.952 268.979 445.176L269.897 445.68C268.973 447.564 267.875 449.226 266.603 450.666C265.331 452.094 263.741 453.534 261.833 454.986L261.239 454.122ZM261.887 451.818H268.619V452.79L266.279 454.842V458.316C266.279 458.772 266.225 459.12 266.117 459.36C266.009 459.6 265.823 459.768 265.559 459.864C265.307 459.96 264.923 460.008 264.407 460.008H262.715L262.499 458.892H263.957C264.317 458.892 264.581 458.868 264.749 458.82C264.917 458.76 265.025 458.664 265.073 458.532C265.133 458.388 265.163 458.166 265.163 457.866V454.518L267.143 452.808H261.887V451.818ZM261.437 455.868L269.321 454.824L269.339 455.526L269.357 455.94L261.545 456.984L261.437 455.868ZM268.871 451.224C269.471 450.336 270.053 449.166 270.617 447.714C271.181 446.262 271.571 444.96 271.787 443.808L272.975 443.934C272.627 445.47 272.165 446.964 271.589 448.416C271.013 449.856 270.353 451.098 269.609 452.142L268.871 451.224ZM271.679 446.85H277.061V448.002H271.337L271.679 446.85ZM267.989 459.234C269.573 458.13 270.809 457.062 271.697 456.03C272.597 454.986 273.275 453.81 273.731 452.502C274.199 451.194 274.541 449.532 274.757 447.516L275.855 447.534C275.627 449.658 275.267 451.44 274.775 452.88C274.283 454.308 273.563 455.598 272.615 456.75C271.679 457.89 270.401 459.066 268.781 460.278L267.989 459.234ZM271.319 448.596C271.511 450.204 271.823 451.608 272.255 452.808C272.687 453.996 273.299 455.094 274.091 456.102C274.883 457.098 275.909 458.076 277.169 459.036L276.431 460.17C275.159 459.198 274.109 458.178 273.281 457.11C272.465 456.03 271.823 454.872 271.355 453.636C270.899 452.4 270.569 450.996 270.365 449.424L271.319 448.596ZM294.197 454.842V455.94H285.773V454.842H294.197ZM290.615 452.052V458.766H289.427V452.052H290.615ZM294.647 451.44V452.502H285.485V451.44H294.647ZM295.187 458.28V459.414H284.657V458.28H295.187ZM282.911 445.608V460.206H281.831V445.608H282.911ZM285.179 448.902V450.108H279.419V448.902H285.179ZM293.963 444.852V449.676H286.079V444.852H293.963ZM287.249 448.614H292.811V445.896H287.249V448.614ZM279.077 455.886C279.761 454.83 280.367 453.684 280.895 452.448C281.435 451.2 281.837 450.018 282.101 448.902L282.641 450.072C282.353 451.248 281.957 452.442 281.453 453.654C280.949 454.854 280.379 455.946 279.743 456.93L279.077 455.886ZM282.821 451.548C283.721 452.328 284.567 453.084 285.359 453.816L284.657 454.68C284.093 454.092 283.271 453.324 282.191 452.376L282.821 451.548ZM279.491 445.482C280.415 445.35 281.381 445.182 282.389 444.978C283.397 444.774 284.261 444.576 284.981 444.384L285.269 445.536C284.549 445.716 283.655 445.908 282.587 446.112C281.519 446.316 280.517 446.49 279.581 446.634L279.491 445.482Z" fill="#3E3A39"/>
<defs>
<filter id="filter0_g_2024_2763" x="39.042" y="46.0781" width="332.339" height="442.567" filterUnits="userSpaceOnUse" color-interpolation-filters="sRGB">
<feFlood flood-opacity="0" result="BackgroundImageFix"/>
<feBlend mode="normal" in="SourceGraphic" in2="BackgroundImageFix" result="shape"/>
<feTurbulence type="fractalNoise" baseFrequency="0.99900001287460327 0.99900001287460327" numOctaves="3" seed="8682" />
<feDisplacementMap in="shape" scale="4" xChannelSelector="R" yChannelSelector="G" result="displacedImage" width="100%" height="100%" />
<feMerge result="effect1_texture_2024_2763">
<feMergeNode in="displacedImage"/>
</feMerge>
</filter>
</defs>
</svg>
