<svg width="508" height="720" viewBox="0 0 508 720" fill="none" xmlns="http://www.w3.org/2000/svg">
<rect x="0.5" y="0.5" width="411.769" height="719" rx="29.5" fill="white" stroke="#3E3A39"/>
<rect x="9.08496" y="9.63135" width="393.507" height="700.738" rx="26.75" fill="white" stroke="#3E3A39" stroke-width="0.5"/>
<rect x="-0.5" y="0.5" width="113.164" height="48.8169" rx="24.4085" transform="matrix(-1 0 0 1 160.433 549.381)" stroke="#3E3A39" stroke-opacity="0.6" stroke-linejoin="round"/>
<rect x="-0.5" y="0.5" width="113.164" height="48.8169" rx="24.4085" transform="matrix(-1 0 0 1 160.433 607.5)" stroke="#3E3A39" stroke-opacity="0.6" stroke-linejoin="round"/>
<rect x="41.542" y="543.652" width="125.618" height="119.391" rx="11.5" stroke="#3E3A39" stroke-opacity="0.2" stroke-linejoin="round"/>
<g opacity="0.4" filter="url(#filter0_g_2024_2624)">
<rect x="41.542" y="48.5" width="327.339" height="437.567" rx="11.5" stroke="#3E3A39" stroke-opacity="0.6"/>
</g>
<rect x="197.504" y="572.356" width="170.987" height="62.6352" rx="29.5" stroke="#3E3A39" stroke-opacity="0.6" stroke-linejoin="round"/>
<path d="M294.457 650.692C294.457 650.868 294.423 651.043 294.356 651.206C294.289 651.369 294.19 651.517 294.066 651.642L283.946 661.759C283.695 662.01 283.354 662.151 282.998 662.151C282.643 662.151 282.302 662.01 282.05 661.759L271.931 651.642C271.679 651.39 271.538 651.048 271.538 650.692C271.538 650.336 271.68 649.994 271.932 649.743C272.184 649.491 272.526 649.35 272.882 649.35C273.238 649.35 273.58 649.492 273.831 649.744L282.998 658.911L292.165 649.744C292.353 649.556 292.592 649.429 292.852 649.377C293.112 649.325 293.381 649.352 293.626 649.453C293.871 649.555 294.081 649.727 294.228 649.947C294.376 650.167 294.454 650.427 294.455 650.692L294.457 650.692Z" fill="#3E3A39" fill-opacity="0.2"/>
<path d="M271.539 556.655C271.539 556.479 271.573 556.304 271.64 556.141C271.707 555.978 271.806 555.83 271.93 555.705L282.05 545.588C282.301 545.337 282.642 545.196 282.998 545.196C283.353 545.196 283.694 545.337 283.946 545.588L294.065 555.705C294.317 555.957 294.458 556.299 294.458 556.655C294.458 557.011 294.316 557.353 294.064 557.605C293.812 557.856 293.47 557.998 293.114 557.997C292.758 557.997 292.416 557.855 292.165 557.603L282.998 548.437L273.831 557.603C273.643 557.791 273.404 557.918 273.144 557.97C272.884 558.022 272.615 557.995 272.37 557.894C272.125 557.792 271.915 557.621 271.768 557.4C271.62 557.18 271.542 556.921 271.541 556.655L271.539 556.655Z" fill="#3E3A39" fill-opacity="0.2"/>
<rect x="136.026" y="21.1074" width="140.717" height="17.5896" rx="8.79479" fill="#D9D9D9"/>
<path d="M507.991 572H483.491C466.094 572 451.991 586.103 451.991 603.5C451.991 620.897 466.094 635 483.491 635H507.991V572Z" fill="white"/>
<path d="M483.491 572.5C466.37 572.5 452.491 586.379 452.491 603.5C452.491 620.621 466.37 634.5 483.491 634.5H507.491V572.5H483.491Z" stroke="#3E3A39" stroke-opacity="0.6" stroke-linejoin="round"/>
<path d="M490.5 0.5C481.111 0.5 473.5 8.11116 473.5 17.5V702.5C473.5 711.889 481.111 719.5 490.5 719.5C499.889 719.5 507.5 711.889 507.5 702.5V17.5C507.5 8.11117 499.889 0.5 490.5 0.5Z" fill="white" stroke="#3E3A39"/>
<path d="M173.06 275.6V277.85H148.85V275.6H173.06ZM148.61 299.63C150.43 298.13 151.76 296.78 152.6 295.58C153.46 294.38 154.03 293.06 154.31 291.62C154.61 290.16 154.76 288.15 154.76 285.59V276.41H157.1V285.35C157.1 288.23 156.92 290.52 156.56 292.22C156.22 293.92 155.58 295.45 154.64 296.81C153.72 298.15 152.3 299.66 150.38 301.34L148.61 299.63ZM167.78 276.62V300.95H165.38V276.62H167.78ZM174.32 286.07V288.35H147.62V286.07H174.32ZM190.97 297.2H201.23V299.3H190.97V297.2ZM177.92 279.23H187.76V281.45C187.42 285.07 186.97 287.93 186.41 290.03C185.85 292.11 185.03 293.94 183.95 295.52C182.87 297.1 181.26 298.94 179.12 301.04L177.56 299.48C179.68 297.5 181.24 295.76 182.24 294.26C183.26 292.76 184 291.1 184.46 289.28C184.92 287.44 185.31 284.83 185.63 281.45H177.92V279.23ZM178.46 290.78C179.8 285.48 180.69 279.78 181.13 273.68L183.26 273.83C183 276.89 182.67 279.74 182.27 282.38C181.89 285 181.41 287.5 180.83 289.88C181.21 290.2 181.64 290.57 182.12 290.99C182.6 291.39 183.11 291.83 183.65 292.31C185.55 294.01 187.23 295.59 188.69 297.05L187.34 298.94C186.78 298.34 186.12 297.68 185.36 296.96C184.62 296.22 183.87 295.5 183.11 294.8C182.33 294.08 181.53 293.37 180.71 292.67C179.91 291.95 179.16 291.32 178.46 290.78ZM188.57 283.43C189.71 282.13 190.79 280.59 191.81 278.81C192.85 277.01 193.76 275.21 194.54 273.41L196.7 274.22C196.28 275.24 195.72 276.39 195.02 277.67C194.34 278.93 193.65 280.1 192.95 281.18C192.35 282.08 191.91 282.71 191.63 283.07L201.62 282.56L202.01 284.57L189.08 285.29L188.57 283.43ZM199.43 276.86C200.01 277.76 200.78 279.09 201.74 280.85C202.72 282.59 203.57 284.15 204.29 285.53L202.31 286.67C201.73 285.43 200.95 283.9 199.97 282.08C199.01 280.26 198.23 278.86 197.63 277.88L199.43 276.86ZM189.71 288.62H202.52V301.04H200.3V290.72H191.87V301.01H189.71V288.62ZM215.24 277.28H233.93V279.41H215.24V277.28ZM214.19 299.09C216.83 298.39 218.8 297.65 220.1 296.87C221.42 296.09 222.31 295.18 222.77 294.14C223.23 293.08 223.46 291.68 223.46 289.94V287.66C223.46 285.3 223.46 282.81 223.46 280.19C223.48 277.57 223.48 275.41 223.46 273.71H225.59V289.88C225.59 292.08 225.29 293.85 224.69 295.19C224.09 296.53 223.06 297.66 221.6 298.58C220.14 299.5 218.02 300.38 215.24 301.22L214.19 299.09ZM218.51 291.08C219.87 293.18 221.78 294.82 224.24 296C226.72 297.18 230.06 297.99 234.26 298.43L233.63 300.74C229.27 300.1 225.78 299.13 223.16 297.83C220.54 296.51 218.47 294.69 216.95 292.37L218.51 291.08ZM216.29 282.29H232.73V290.15H216.29V282.29ZM218.36 284.27V288.08H230.63V284.27H218.36ZM207.41 286.91C208.39 285.53 209.37 283.66 210.35 281.3C211.35 278.92 212.23 276.38 212.99 273.68L215.12 274.25C214.34 277.25 213.4 279.98 212.3 282.44C211.2 284.88 209.88 287.21 208.34 289.43L207.41 286.91ZM210.89 281.18L212.99 280.1V301.13H210.89V281.18ZM250.22 276.23H252.53V300.47H250.22V276.23ZM237.71 300.08C238.55 298.7 239.16 297.51 239.54 296.51C239.92 295.49 240.18 294.34 240.32 293.06C240.46 291.76 240.53 289.93 240.53 287.57V275.39H262.4V297.26C262.4 298.14 262.28 298.82 262.04 299.3C261.8 299.8 261.41 300.15 260.87 300.35C260.35 300.55 259.61 300.65 258.65 300.65H255.59L255.23 298.34H257.96C258.58 298.34 259.03 298.3 259.31 298.22C259.61 298.12 259.81 297.94 259.91 297.68C260.01 297.42 260.06 297.02 260.06 296.48V277.64H242.84V288.38C242.84 290.44 242.75 292.17 242.57 293.57C242.39 294.95 242.09 296.23 241.67 297.41C241.25 298.57 240.64 299.83 239.84 301.19L237.71 300.08ZM241.64 290.06H260.81V292.31H241.64V290.06ZM241.64 282.86H260.75V285.11H241.64V282.86Z" fill="#3E3A39"/>
<path d="M147.022 247.88V203.72H150.502V247.88H147.022ZM121.042 226.58V223.34H147.742V226.58H121.042ZM121.762 203.72V247.88H118.282V203.72H121.762ZM163.598 244.58H187.418V247.88H160.118V203.72H186.638V207.02H163.598V223.22H185.378V226.46H163.598V244.58ZM197.993 244.58H221.393V247.88H194.513V203.72H197.993V244.58ZM230.864 244.58H254.264V247.88H227.384V203.72H230.864V244.58ZM276.559 248.72C272.639 248.72 269.199 247.78 266.239 245.9C263.279 244.02 260.979 241.36 259.339 237.92C257.739 234.44 256.939 230.4 256.939 225.8C256.939 221.16 257.739 217.12 259.339 213.68C260.979 210.2 263.279 207.54 266.239 205.7C269.199 203.82 272.639 202.88 276.559 202.88C280.479 202.88 283.919 203.82 286.879 205.7C289.839 207.54 292.139 210.2 293.779 213.68C295.419 217.12 296.239 221.16 296.239 225.8C296.239 230.4 295.419 234.44 293.779 237.92C292.139 241.36 289.839 244.02 286.879 245.9C283.919 247.78 280.479 248.72 276.559 248.72ZM276.559 245.42C279.759 245.42 282.559 244.62 284.959 243.02C287.399 241.42 289.299 239.14 290.659 236.18C292.019 233.22 292.699 229.76 292.699 225.8C292.699 221.8 292.019 218.34 290.659 215.42C289.299 212.46 287.399 210.18 284.959 208.58C282.559 206.98 279.759 206.18 276.559 206.18C273.359 206.18 270.539 206.98 268.099 208.58C265.699 210.18 263.819 212.46 262.459 215.42C261.139 218.34 260.479 221.8 260.479 225.8C260.479 229.76 261.139 233.22 262.459 236.18C263.819 239.14 265.699 241.42 268.099 243.02C270.539 244.62 273.359 245.42 276.559 245.42Z" fill="#3E3A39"/>
<path opacity="0.6" d="M124.424 446.922H125.594V460.224H124.424V446.922ZM118.916 446.256H131.102V453.816H118.916V446.256ZM120.104 447.354V452.718H129.914V447.354H120.104ZM117.188 455.868H132.812V457.02H117.188V455.868ZM120.572 444.168L121.472 443.52L123.47 445.824L122.48 446.454L120.572 444.168ZM119.582 449.496H130.418V450.576H119.582V449.496ZM125.972 446.598C126.332 446.202 126.758 445.704 127.25 445.104C127.754 444.492 128.156 443.976 128.456 443.556L129.518 444.096C129.242 444.48 128.876 444.954 128.42 445.518C127.964 446.07 127.55 446.568 127.178 447.012L125.972 446.598ZM135.35 447.21H140.282V448.398H135.35V447.21ZM136.232 458.712C136.544 458.712 136.778 458.688 136.934 458.64C137.09 458.58 137.198 458.49 137.258 458.37C137.318 458.238 137.348 458.034 137.348 457.758V444.006H138.5V458.172C138.5 458.64 138.44 458.994 138.32 459.234C138.2 459.486 138.002 459.66 137.726 459.756C137.462 459.852 137.084 459.9 136.592 459.9H135.422L135.188 458.712H136.232ZM134.99 452.862C135.134 452.802 135.278 452.742 135.422 452.682C135.566 452.622 135.722 452.556 135.89 452.484C137.582 451.824 138.926 451.266 139.922 450.81L140.12 452.016C139.64 452.22 138.974 452.49 138.122 452.826C136.442 453.522 135.5 453.918 135.296 454.014L134.99 452.862ZM145.664 443.718C145.784 443.97 145.922 444.294 146.078 444.69C146.234 445.074 146.378 445.458 146.51 445.842C146.546 445.926 146.576 446.01 146.6 446.094C146.636 446.166 146.666 446.226 146.69 446.274L145.412 446.508C145.352 446.376 145.286 446.226 145.214 446.058C145.154 445.878 145.088 445.686 145.016 445.482C144.92 445.206 144.818 444.942 144.71 444.69C144.614 444.426 144.524 444.204 144.44 444.024L145.664 443.718ZM140.93 446.004H150.398V449.172H149.228V447.12H142.064V449.172H140.93V446.004ZM140.534 450.954H150.848V452.088H140.534V450.954ZM141.344 454.896L141.38 454.824C141.896 453.756 142.382 452.622 142.838 451.422C143.306 450.222 143.672 449.118 143.936 448.11L145.16 448.398C144.896 449.31 144.548 450.312 144.116 451.404C143.696 452.484 143.264 453.486 142.82 454.41C143.852 454.926 145.076 455.598 146.492 456.426C147.908 457.254 149.312 458.118 150.704 459.018L150.002 460.134C148.55 459.162 147.05 458.202 145.502 457.254C143.954 456.306 142.568 455.52 141.344 454.896ZM139.634 459.108C141.47 458.544 142.928 457.944 144.008 457.308C145.088 456.66 145.922 455.886 146.51 454.986C147.098 454.074 147.536 452.916 147.824 451.512L148.976 451.818C148.664 453.378 148.184 454.662 147.536 455.67C146.9 456.666 146.006 457.524 144.854 458.244C143.702 458.952 142.136 459.642 140.156 460.314L139.634 459.108ZM161 458.496C159.824 458.496 158.732 458.208 157.724 457.632C156.728 457.044 155.936 456.252 155.348 455.256C154.772 454.248 154.484 453.156 154.484 451.98C154.484 450.804 154.772 449.718 155.348 448.722C155.936 447.714 156.728 446.922 157.724 446.346C158.732 445.758 159.824 445.464 161 445.464C162.176 445.464 163.262 445.758 164.258 446.346C165.266 446.922 166.058 447.714 166.634 448.722C167.222 449.718 167.516 450.804 167.516 451.98C167.516 453.156 167.222 454.248 166.634 455.256C166.058 456.252 165.266 457.044 164.258 457.632C163.262 458.208 162.176 458.496 161 458.496ZM161 457.794C162.044 457.794 163.01 457.536 163.898 457.02C164.786 456.492 165.488 455.784 166.004 454.896C166.52 454.008 166.778 453.036 166.778 451.98C166.778 450.924 166.52 449.952 166.004 449.064C165.488 448.176 164.786 447.474 163.898 446.958C163.01 446.43 162.044 446.166 161 446.166C159.956 446.166 158.99 446.43 158.102 446.958C157.214 447.474 156.512 448.176 155.996 449.064C155.48 449.952 155.222 450.924 155.222 451.98C155.222 453.036 155.48 454.008 155.996 454.896C156.512 455.784 157.214 456.492 158.102 457.02C158.99 457.536 159.956 457.794 161 457.794ZM172.34 446.184H175.58V447.228H172.34V446.184ZM171.044 452.79H175.454V453.834H171.044V452.79ZM170.846 449.064C171.23 448.356 171.608 447.51 171.98 446.526C172.364 445.542 172.67 444.594 172.898 443.682L173.906 443.898C173.642 444.93 173.306 445.968 172.898 447.012C172.502 448.044 172.04 449.034 171.512 449.982L170.846 449.064ZM171.71 449.28H175.166V450.306H171.71V449.28ZM179.378 447.912H186.902V448.866H179.378V447.912ZM179.198 455.328H186.668V456.264H179.198V455.328ZM179.774 452.88H186.2V453.816H179.774V452.88ZM182.114 443.79H183.122V457.974H182.114V443.79ZM172.196 458.73C172.364 458.586 172.484 458.454 172.556 458.334C172.628 458.214 172.664 458.07 172.664 457.902V449.64H173.672V457.83L175.472 456.39L175.724 457.524L172.826 459.702L172.196 458.73ZM176.588 452.574C176.888 453.858 177.254 454.92 177.686 455.76C178.13 456.6 178.706 457.248 179.414 457.704C180.122 458.16 181.004 458.388 182.06 458.388H186.92L186.74 459.45H181.97C180.902 459.45 179.972 459.258 179.18 458.874C178.4 458.478 177.716 457.8 177.128 456.84C176.552 455.88 176.084 454.566 175.724 452.898L176.588 452.574ZM174.932 459.36C175.964 458.148 176.72 456.924 177.2 455.688C177.692 454.44 178.004 452.952 178.136 451.224H175.922V450.18L178.136 446.166H176.048V445.104H179.234V446.184L177.074 450.18H179.162V451.26C179.006 452.604 178.802 453.756 178.55 454.716C178.31 455.676 177.974 456.582 177.542 457.434C177.11 458.286 176.534 459.192 175.814 460.152L174.932 459.36ZM179.9 450.432H184.94V446.346H179.918V445.41H185.912V451.35H179.9V450.432ZM204.848 446.022V447.138H189.062V446.022H204.848ZM193.598 443.826C193.67 443.922 193.76 444.048 193.868 444.204C193.976 444.348 194.108 444.516 194.264 444.708C194.492 445.02 194.708 445.308 194.912 445.572C195.116 445.836 195.272 446.046 195.38 446.202L194.03 446.472C193.982 446.388 193.706 446.016 193.202 445.356C193.022 445.104 192.854 444.876 192.698 444.672C192.554 444.468 192.44 444.312 192.356 444.204L193.598 443.826ZM195.884 452.088V453.186H191.132V452.088H195.884ZM195.884 455.112V456.21H191.15V455.112H195.884ZM199.808 449.28V456.984H198.71V449.28H199.808ZM198.332 446.454C198.416 446.334 198.506 446.22 198.602 446.112C198.698 445.992 198.788 445.872 198.872 445.752C199.556 444.876 200.054 444.204 200.366 443.736L201.554 444.15C201.278 444.558 200.924 445.044 200.492 445.608C200.072 446.16 199.712 446.604 199.412 446.94L198.332 446.454ZM200.798 458.712C201.194 458.712 201.488 458.682 201.68 458.622C201.872 458.562 201.998 458.454 202.058 458.298C202.118 458.142 202.148 457.896 202.148 457.56V448.524H203.318V457.848C203.318 458.376 203.252 458.784 203.12 459.072C203 459.36 202.778 459.564 202.454 459.684C202.142 459.804 201.686 459.864 201.086 459.864H199.052L198.818 458.712H200.798ZM196.64 458.1C196.64 458.568 196.58 458.934 196.46 459.198C196.34 459.462 196.142 459.648 195.866 459.756C195.602 459.864 195.23 459.918 194.75 459.918H193.274L193.04 458.766H194.372C194.696 458.766 194.936 458.742 195.092 458.694C195.248 458.634 195.35 458.538 195.398 458.406C195.458 458.274 195.488 458.07 195.488 457.794V450.126H191.564V460.026H190.394V449.01H196.64V458.1ZM209.438 451.782L210.608 451.188V460.188H209.438V451.782ZM211.868 458.118H222.884V459.288H211.868V458.118ZM212.57 447.012H222.506V448.2H212.57V447.012ZM212.822 452.214H221.93V453.438H212.822V452.214ZM216.854 447.606H218.132V458.694H216.854V447.606ZM206.972 454.032C207.668 453.408 208.418 452.574 209.222 451.53C210.038 450.474 210.692 449.484 211.184 448.56L212.156 449.226C211.604 450.246 210.878 451.338 209.978 452.502C209.09 453.654 208.262 454.578 207.494 455.274L206.972 454.032ZM207.206 448.56C207.902 447.948 208.652 447.192 209.456 446.292C210.272 445.38 210.884 444.594 211.292 443.934L212.3 444.708C211.832 445.404 211.16 446.238 210.284 447.21C209.408 448.17 208.58 448.986 207.8 449.658L207.206 448.56ZM216.008 444.06L217.124 443.556L218.564 446.256L217.43 446.832L216.008 444.06ZM229.562 446.076H240.722V447.228H229.562V446.076ZM228.914 459.18C230.51 458.736 231.704 458.274 232.496 457.794C233.3 457.314 233.84 456.756 234.116 456.12C234.392 455.472 234.53 454.62 234.53 453.564V451.188C234.53 449.94 234.53 448.632 234.53 447.264C234.542 445.884 234.542 444.75 234.53 443.862H235.682V453.546C235.682 454.854 235.502 455.91 235.142 456.714C234.782 457.506 234.164 458.178 233.288 458.73C232.412 459.282 231.14 459.81 229.472 460.314L228.914 459.18ZM231.47 454.248C232.298 455.544 233.45 456.552 234.926 457.272C236.402 457.992 238.4 458.49 240.92 458.766L240.596 460.008C237.98 459.624 235.892 459.036 234.332 458.244C232.772 457.452 231.536 456.354 230.624 454.95L231.47 454.248ZM230.228 449.064H239.984V453.654H230.228V449.064ZM231.344 450.126V452.538H238.85V450.126H231.344ZM224.882 451.872C225.482 451.032 226.082 449.892 226.682 448.452C227.282 447.012 227.81 445.482 228.266 443.862L229.418 444.168C228.95 445.956 228.38 447.588 227.708 449.064C227.048 450.54 226.274 451.926 225.386 453.222L224.882 451.872ZM227.006 448.308L228.14 447.696V460.26H227.006V448.308ZM250.622 445.356H251.846V459.864H250.622V445.356ZM243.098 459.684C243.602 458.856 243.968 458.142 244.196 457.542C244.424 456.93 244.58 456.24 244.664 455.472C244.748 454.692 244.79 453.594 244.79 452.178V444.906H257.768V457.956C257.768 458.484 257.696 458.886 257.552 459.162C257.42 459.45 257.198 459.654 256.886 459.774C256.574 459.894 256.136 459.954 255.572 459.954H253.718L253.52 458.712H255.212C255.596 458.712 255.878 458.682 256.058 458.622C256.238 458.562 256.358 458.454 256.418 458.298C256.49 458.13 256.526 457.884 256.526 457.56V446.112H246.032V452.61C246.032 453.858 245.978 454.902 245.87 455.742C245.762 456.57 245.582 457.332 245.33 458.028C245.078 458.712 244.712 459.462 244.232 460.278L243.098 459.684ZM245.384 453.708H256.922V454.914H245.384V453.708ZM245.384 449.388H256.886V450.594H245.384V449.388ZM264.14 443.808H265.256V449.64H264.14V443.808ZM261.908 446.058H267.254V447.048H261.908V446.058ZM261.206 449.154H269.036V450.18H261.206V449.154ZM261.008 454.122C262.748 452.862 264.254 451.5 265.526 450.036C266.798 448.572 267.872 446.952 268.748 445.176L269.666 445.68C268.742 447.564 267.644 449.226 266.372 450.666C265.1 452.094 263.51 453.534 261.602 454.986L261.008 454.122ZM261.656 451.818H268.388V452.79L266.048 454.842V458.316C266.048 458.772 265.994 459.12 265.886 459.36C265.778 459.6 265.592 459.768 265.328 459.864C265.076 459.96 264.692 460.008 264.176 460.008H262.484L262.268 458.892H263.726C264.086 458.892 264.35 458.868 264.518 458.82C264.686 458.76 264.794 458.664 264.842 458.532C264.902 458.388 264.932 458.166 264.932 457.866V454.518L266.912 452.808H261.656V451.818ZM261.206 455.868L269.09 454.824L269.108 455.526L269.126 455.94L261.314 456.984L261.206 455.868ZM268.64 451.224C269.24 450.336 269.822 449.166 270.386 447.714C270.95 446.262 271.34 444.96 271.556 443.808L272.744 443.934C272.396 445.47 271.934 446.964 271.358 448.416C270.782 449.856 270.122 451.098 269.378 452.142L268.64 451.224ZM271.448 446.85H276.83V448.002H271.106L271.448 446.85ZM267.758 459.234C269.342 458.13 270.578 457.062 271.466 456.03C272.366 454.986 273.044 453.81 273.5 452.502C273.968 451.194 274.31 449.532 274.526 447.516L275.624 447.534C275.396 449.658 275.036 451.44 274.544 452.88C274.052 454.308 273.332 455.598 272.384 456.75C271.448 457.89 270.17 459.066 268.55 460.278L267.758 459.234ZM271.088 448.596C271.28 450.204 271.592 451.608 272.024 452.808C272.456 453.996 273.068 455.094 273.86 456.102C274.652 457.098 275.678 458.076 276.938 459.036L276.2 460.17C274.928 459.198 273.878 458.178 273.05 457.11C272.234 456.03 271.592 454.872 271.124 453.636C270.668 452.4 270.338 450.996 270.134 449.424L271.088 448.596ZM293.966 454.842V455.94H285.542V454.842H293.966ZM290.384 452.052V458.766H289.196V452.052H290.384ZM294.416 451.44V452.502H285.254V451.44H294.416ZM294.956 458.28V459.414H284.426V458.28H294.956ZM282.68 445.608V460.206H281.6V445.608H282.68ZM284.948 448.902V450.108H279.188V448.902H284.948ZM293.732 444.852V449.676H285.848V444.852H293.732ZM287.018 448.614H292.58V445.896H287.018V448.614ZM278.846 455.886C279.53 454.83 280.136 453.684 280.664 452.448C281.204 451.2 281.606 450.018 281.87 448.902L282.41 450.072C282.122 451.248 281.726 452.442 281.222 453.654C280.718 454.854 280.148 455.946 279.512 456.93L278.846 455.886ZM282.59 451.548C283.49 452.328 284.336 453.084 285.128 453.816L284.426 454.68C283.862 454.092 283.04 453.324 281.96 452.376L282.59 451.548ZM279.26 445.482C280.184 445.35 281.15 445.182 282.158 444.978C283.166 444.774 284.03 444.576 284.75 444.384L285.038 445.536C284.318 445.716 283.424 445.908 282.356 446.112C281.288 446.316 280.286 446.49 279.35 446.634L279.26 445.482Z" fill="#3E3A39"/>
<defs>
<filter id="filter0_g_2024_2624" x="39.042" y="46" width="332.339" height="442.567" filterUnits="userSpaceOnUse" color-interpolation-filters="sRGB">
<feFlood flood-opacity="0" result="BackgroundImageFix"/>
<feBlend mode="normal" in="SourceGraphic" in2="BackgroundImageFix" result="shape"/>
<feTurbulence type="fractalNoise" baseFrequency="0.99900001287460327 0.99900001287460327" numOctaves="3" seed="8682" />
<feDisplacementMap in="shape" scale="4" xChannelSelector="R" yChannelSelector="G" result="displacedImage" width="100%" height="100%" />
<feMerge result="effect1_texture_2024_2624">
<feMergeNode in="displacedImage"/>
</feMerge>
</filter>
</defs>
</svg>
