<svg width="508" height="720" viewBox="0 0 508 720" fill="none" xmlns="http://www.w3.org/2000/svg">
<path d="M507.926 572H483.426C466.029 572 451.926 586.103 451.926 603.5C451.926 620.897 466.029 635 483.426 635H507.926V572Z" fill="#3E3A39"/>
<path d="M483.426 572.5C466.305 572.5 452.426 586.379 452.426 603.5C452.426 620.621 466.305 634.5 483.426 634.5H507.426V572.5H483.426Z" stroke="#3E3A39" stroke-opacity="0.6" stroke-linejoin="round"/>
<rect x="9.08594" y="9.63135" width="393.507" height="700.738" rx="26.75" fill="#3E3A39" fill-opacity="0.8" stroke="#3E3A39" stroke-width="0.5"/>
<path d="M382.769 0C399.337 0 412.769 13.4315 412.769 30V690C412.769 706.569 399.337 720 382.769 720H30C13.4315 720 4.83225e-07 706.569 0 690V30C7.73159e-06 13.4315 13.4315 0 30 0H382.769ZM35.835 9.38184C20.9234 9.38184 8.8352 21.4694 8.83496 36.3809V683.619C8.83496 698.531 20.9233 710.619 35.835 710.619H375.842C390.753 710.619 402.842 698.531 402.842 683.619V36.3818C402.842 21.4702 390.753 9.38199 375.842 9.38184H35.835Z" fill="#3E3A39"/>
<rect width="114.164" height="49.8169" rx="24.9085" transform="matrix(-1 0 0 1 161.434 549.381)" fill="#3E3A39"/>
<rect width="114.164" height="49.8169" rx="24.9085" transform="matrix(-1 0 0 1 161.434 607.5)" fill="#3E3A39"/>
<rect x="197.004" y="571.856" width="171.987" height="63.6352" rx="30" fill="#3E3A39"/>
<path d="M294.458 650.692C294.458 650.868 294.424 651.043 294.357 651.206C294.29 651.369 294.191 651.517 294.067 651.642L283.947 661.759C283.696 662.01 283.355 662.151 282.999 662.151C282.644 662.151 282.303 662.01 282.051 661.759L271.932 651.642C271.68 651.39 271.539 651.048 271.539 650.692C271.539 650.336 271.681 649.994 271.933 649.743C272.185 649.491 272.527 649.35 272.883 649.35C273.239 649.35 273.581 649.492 273.832 649.744L282.999 658.911L292.166 649.744C292.354 649.556 292.593 649.429 292.853 649.377C293.113 649.325 293.382 649.352 293.627 649.453C293.872 649.555 294.082 649.727 294.229 649.947C294.377 650.167 294.455 650.427 294.456 650.692L294.458 650.692Z" fill="#F5F5F5" fill-opacity="0.2"/>
<path d="M271.538 556.655C271.538 556.479 271.572 556.304 271.639 556.141C271.706 555.978 271.805 555.83 271.929 555.705L282.049 545.588C282.3 545.337 282.641 545.196 282.997 545.196C283.352 545.196 283.693 545.337 283.945 545.588L294.064 555.705C294.316 555.957 294.457 556.299 294.457 556.655C294.457 557.011 294.315 557.353 294.063 557.605C293.811 557.856 293.469 557.998 293.113 557.997C292.757 557.997 292.415 557.855 292.164 557.603L282.997 548.437L273.83 557.603C273.642 557.791 273.403 557.918 273.143 557.97C272.883 558.022 272.614 557.995 272.369 557.894C272.124 557.792 271.914 557.621 271.767 557.4C271.619 557.18 271.541 556.921 271.54 556.655L271.538 556.655Z" fill="#F5F5F5" fill-opacity="0.2"/>
<rect x="136.027" y="21.1074" width="140.717" height="17.5896" rx="8.79479" fill="#3E3A39"/>
<rect x="41.043" y="543.152" width="126.618" height="120.391" rx="12" fill="#3E3A39" fill-opacity="0.2"/>
<g opacity="0.2" filter="url(#filter0_g_2024_2620)">
<rect x="41.043" y="48.0781" width="328.339" height="438.567" rx="12" fill="black"/>
<rect x="41.543" y="48.5781" width="327.339" height="437.567" rx="11.5" stroke="#3E3A39" stroke-opacity="0.6"/>
</g>
<path d="M172.986 275.6V277.85H148.776V275.6H172.986ZM148.536 299.63C150.356 298.13 151.686 296.78 152.526 295.58C153.386 294.38 153.956 293.06 154.236 291.62C154.536 290.16 154.686 288.15 154.686 285.59V276.41H157.026V285.35C157.026 288.23 156.846 290.52 156.486 292.22C156.146 293.92 155.506 295.45 154.566 296.81C153.646 298.15 152.226 299.66 150.306 301.34L148.536 299.63ZM167.706 276.62V300.95H165.306V276.62H167.706ZM174.246 286.07V288.35H147.546V286.07H174.246ZM190.896 297.2H201.156V299.3H190.896V297.2ZM177.846 279.23H187.686V281.45C187.346 285.07 186.896 287.93 186.336 290.03C185.776 292.11 184.956 293.94 183.876 295.52C182.796 297.1 181.186 298.94 179.046 301.04L177.486 299.48C179.606 297.5 181.166 295.76 182.166 294.26C183.186 292.76 183.926 291.1 184.386 289.28C184.846 287.44 185.236 284.83 185.556 281.45H177.846V279.23ZM178.386 290.78C179.726 285.48 180.616 279.78 181.056 273.68L183.186 273.83C182.926 276.89 182.596 279.74 182.196 282.38C181.816 285 181.336 287.5 180.756 289.88C181.136 290.2 181.566 290.57 182.046 290.99C182.526 291.39 183.036 291.83 183.576 292.31C185.476 294.01 187.156 295.59 188.616 297.05L187.266 298.94C186.706 298.34 186.046 297.68 185.286 296.96C184.546 296.22 183.796 295.5 183.036 294.8C182.256 294.08 181.456 293.37 180.636 292.67C179.836 291.95 179.086 291.32 178.386 290.78ZM188.496 283.43C189.636 282.13 190.716 280.59 191.736 278.81C192.776 277.01 193.686 275.21 194.466 273.41L196.626 274.22C196.206 275.24 195.646 276.39 194.946 277.67C194.266 278.93 193.576 280.1 192.876 281.18C192.276 282.08 191.836 282.71 191.556 283.07L201.546 282.56L201.936 284.57L189.006 285.29L188.496 283.43ZM199.356 276.86C199.936 277.76 200.706 279.09 201.666 280.85C202.646 282.59 203.496 284.15 204.216 285.53L202.236 286.67C201.656 285.43 200.876 283.9 199.896 282.08C198.936 280.26 198.156 278.86 197.556 277.88L199.356 276.86ZM189.636 288.62H202.446V301.04H200.226V290.72H191.796V301.01H189.636V288.62ZM215.166 277.28H233.856V279.41H215.166V277.28ZM214.116 299.09C216.756 298.39 218.726 297.65 220.026 296.87C221.346 296.09 222.236 295.18 222.696 294.14C223.156 293.08 223.386 291.68 223.386 289.94V287.66C223.386 285.3 223.386 282.81 223.386 280.19C223.406 277.57 223.406 275.41 223.386 273.71H225.516V289.88C225.516 292.08 225.216 293.85 224.616 295.19C224.016 296.53 222.986 297.66 221.526 298.58C220.066 299.5 217.946 300.38 215.166 301.22L214.116 299.09ZM218.436 291.08C219.796 293.18 221.706 294.82 224.166 296C226.646 297.18 229.986 297.99 234.186 298.43L233.556 300.74C229.196 300.1 225.706 299.13 223.086 297.83C220.466 296.51 218.396 294.69 216.876 292.37L218.436 291.08ZM216.216 282.29H232.656V290.15H216.216V282.29ZM218.286 284.27V288.08H230.556V284.27H218.286ZM207.336 286.91C208.316 285.53 209.296 283.66 210.276 281.3C211.276 278.92 212.156 276.38 212.916 273.68L215.046 274.25C214.266 277.25 213.326 279.98 212.226 282.44C211.126 284.88 209.806 287.21 208.266 289.43L207.336 286.91ZM210.816 281.18L212.916 280.1V301.13H210.816V281.18ZM250.146 276.23H252.456V300.47H250.146V276.23ZM237.636 300.08C238.476 298.7 239.086 297.51 239.466 296.51C239.846 295.49 240.106 294.34 240.246 293.06C240.386 291.76 240.456 289.93 240.456 287.57V275.39H262.326V297.26C262.326 298.14 262.206 298.82 261.966 299.3C261.726 299.8 261.336 300.15 260.796 300.35C260.276 300.55 259.536 300.65 258.576 300.65H255.516L255.156 298.34H257.886C258.506 298.34 258.956 298.3 259.236 298.22C259.536 298.12 259.736 297.94 259.836 297.68C259.936 297.42 259.986 297.02 259.986 296.48V277.64H242.766V288.38C242.766 290.44 242.676 292.17 242.496 293.57C242.316 294.95 242.016 296.23 241.596 297.41C241.176 298.57 240.566 299.83 239.766 301.19L237.636 300.08ZM241.566 290.06H260.736V292.31H241.566V290.06ZM241.566 282.86H260.676V285.11H241.566V282.86Z" fill="#F5F5F5"/>
<path d="M146.948 247.88V203.72H150.428V247.88H146.948ZM120.968 226.58V223.34H147.668V226.58H120.968ZM121.688 203.72V247.88H118.208V203.72H121.688ZM163.524 244.58H187.344V247.88H160.044V203.72H186.564V207.02H163.524V223.22H185.304V226.46H163.524V244.58ZM197.919 244.58H221.319V247.88H194.439V203.72H197.919V244.58ZM230.79 244.58H254.19V247.88H227.31V203.72H230.79V244.58ZM276.484 248.72C272.564 248.72 269.124 247.78 266.164 245.9C263.204 244.02 260.904 241.36 259.264 237.92C257.664 234.44 256.864 230.4 256.864 225.8C256.864 221.16 257.664 217.12 259.264 213.68C260.904 210.2 263.204 207.54 266.164 205.7C269.124 203.82 272.564 202.88 276.484 202.88C280.404 202.88 283.844 203.82 286.804 205.7C289.764 207.54 292.064 210.2 293.704 213.68C295.344 217.12 296.164 221.16 296.164 225.8C296.164 230.4 295.344 234.44 293.704 237.92C292.064 241.36 289.764 244.02 286.804 245.9C283.844 247.78 280.404 248.72 276.484 248.72ZM276.484 245.42C279.684 245.42 282.484 244.62 284.884 243.02C287.324 241.42 289.224 239.14 290.584 236.18C291.944 233.22 292.624 229.76 292.624 225.8C292.624 221.8 291.944 218.34 290.584 215.42C289.224 212.46 287.324 210.18 284.884 208.58C282.484 206.98 279.684 206.18 276.484 206.18C273.284 206.18 270.464 206.98 268.024 208.58C265.624 210.18 263.744 212.46 262.384 215.42C261.064 218.34 260.404 221.8 260.404 225.8C260.404 229.76 261.064 233.22 262.384 236.18C263.744 239.14 265.624 241.42 268.024 243.02C270.464 244.62 273.284 245.42 276.484 245.42Z" fill="#F5F5F5"/>
<path opacity="0.6" d="M124.35 446.922H125.52V460.224H124.35V446.922ZM118.842 446.256H131.028V453.816H118.842V446.256ZM120.03 447.354V452.718H129.84V447.354H120.03ZM117.114 455.868H132.738V457.02H117.114V455.868ZM120.498 444.168L121.398 443.52L123.396 445.824L122.406 446.454L120.498 444.168ZM119.508 449.496H130.344V450.576H119.508V449.496ZM125.898 446.598C126.258 446.202 126.684 445.704 127.176 445.104C127.68 444.492 128.082 443.976 128.382 443.556L129.444 444.096C129.168 444.48 128.802 444.954 128.346 445.518C127.89 446.07 127.476 446.568 127.104 447.012L125.898 446.598ZM135.276 447.21H140.208V448.398H135.276V447.21ZM136.158 458.712C136.47 458.712 136.704 458.688 136.86 458.64C137.016 458.58 137.124 458.49 137.184 458.37C137.244 458.238 137.274 458.034 137.274 457.758V444.006H138.426V458.172C138.426 458.64 138.366 458.994 138.246 459.234C138.126 459.486 137.928 459.66 137.652 459.756C137.388 459.852 137.01 459.9 136.518 459.9H135.348L135.114 458.712H136.158ZM134.916 452.862C135.06 452.802 135.204 452.742 135.348 452.682C135.492 452.622 135.648 452.556 135.816 452.484C137.508 451.824 138.852 451.266 139.848 450.81L140.046 452.016C139.566 452.22 138.9 452.49 138.048 452.826C136.368 453.522 135.426 453.918 135.222 454.014L134.916 452.862ZM145.59 443.718C145.71 443.97 145.848 444.294 146.004 444.69C146.16 445.074 146.304 445.458 146.436 445.842C146.472 445.926 146.502 446.01 146.526 446.094C146.562 446.166 146.592 446.226 146.616 446.274L145.338 446.508C145.278 446.376 145.212 446.226 145.14 446.058C145.08 445.878 145.014 445.686 144.942 445.482C144.846 445.206 144.744 444.942 144.636 444.69C144.54 444.426 144.45 444.204 144.366 444.024L145.59 443.718ZM140.856 446.004H150.324V449.172H149.154V447.12H141.99V449.172H140.856V446.004ZM140.46 450.954H150.774V452.088H140.46V450.954ZM141.27 454.896L141.306 454.824C141.822 453.756 142.308 452.622 142.764 451.422C143.232 450.222 143.598 449.118 143.862 448.11L145.086 448.398C144.822 449.31 144.474 450.312 144.042 451.404C143.622 452.484 143.19 453.486 142.746 454.41C143.778 454.926 145.002 455.598 146.418 456.426C147.834 457.254 149.238 458.118 150.63 459.018L149.928 460.134C148.476 459.162 146.976 458.202 145.428 457.254C143.88 456.306 142.494 455.52 141.27 454.896ZM139.56 459.108C141.396 458.544 142.854 457.944 143.934 457.308C145.014 456.66 145.848 455.886 146.436 454.986C147.024 454.074 147.462 452.916 147.75 451.512L148.902 451.818C148.59 453.378 148.11 454.662 147.462 455.67C146.826 456.666 145.932 457.524 144.78 458.244C143.628 458.952 142.062 459.642 140.082 460.314L139.56 459.108ZM160.926 458.496C159.75 458.496 158.658 458.208 157.65 457.632C156.654 457.044 155.862 456.252 155.274 455.256C154.698 454.248 154.41 453.156 154.41 451.98C154.41 450.804 154.698 449.718 155.274 448.722C155.862 447.714 156.654 446.922 157.65 446.346C158.658 445.758 159.75 445.464 160.926 445.464C162.102 445.464 163.188 445.758 164.184 446.346C165.192 446.922 165.984 447.714 166.56 448.722C167.148 449.718 167.442 450.804 167.442 451.98C167.442 453.156 167.148 454.248 166.56 455.256C165.984 456.252 165.192 457.044 164.184 457.632C163.188 458.208 162.102 458.496 160.926 458.496ZM160.926 457.794C161.97 457.794 162.936 457.536 163.824 457.02C164.712 456.492 165.414 455.784 165.93 454.896C166.446 454.008 166.704 453.036 166.704 451.98C166.704 450.924 166.446 449.952 165.93 449.064C165.414 448.176 164.712 447.474 163.824 446.958C162.936 446.43 161.97 446.166 160.926 446.166C159.882 446.166 158.916 446.43 158.028 446.958C157.14 447.474 156.438 448.176 155.922 449.064C155.406 449.952 155.148 450.924 155.148 451.98C155.148 453.036 155.406 454.008 155.922 454.896C156.438 455.784 157.14 456.492 158.028 457.02C158.916 457.536 159.882 457.794 160.926 457.794ZM172.266 446.184H175.506V447.228H172.266V446.184ZM170.97 452.79H175.38V453.834H170.97V452.79ZM170.772 449.064C171.156 448.356 171.534 447.51 171.906 446.526C172.29 445.542 172.596 444.594 172.824 443.682L173.832 443.898C173.568 444.93 173.232 445.968 172.824 447.012C172.428 448.044 171.966 449.034 171.438 449.982L170.772 449.064ZM171.636 449.28H175.092V450.306H171.636V449.28ZM179.304 447.912H186.828V448.866H179.304V447.912ZM179.124 455.328H186.594V456.264H179.124V455.328ZM179.7 452.88H186.126V453.816H179.7V452.88ZM182.04 443.79H183.048V457.974H182.04V443.79ZM172.122 458.73C172.29 458.586 172.41 458.454 172.482 458.334C172.554 458.214 172.59 458.07 172.59 457.902V449.64H173.598V457.83L175.398 456.39L175.65 457.524L172.752 459.702L172.122 458.73ZM176.514 452.574C176.814 453.858 177.18 454.92 177.612 455.76C178.056 456.6 178.632 457.248 179.34 457.704C180.048 458.16 180.93 458.388 181.986 458.388H186.846L186.666 459.45H181.896C180.828 459.45 179.898 459.258 179.106 458.874C178.326 458.478 177.642 457.8 177.054 456.84C176.478 455.88 176.01 454.566 175.65 452.898L176.514 452.574ZM174.858 459.36C175.89 458.148 176.646 456.924 177.126 455.688C177.618 454.44 177.93 452.952 178.062 451.224H175.848V450.18L178.062 446.166H175.974V445.104H179.16V446.184L177 450.18H179.088V451.26C178.932 452.604 178.728 453.756 178.476 454.716C178.236 455.676 177.9 456.582 177.468 457.434C177.036 458.286 176.46 459.192 175.74 460.152L174.858 459.36ZM179.826 450.432H184.866V446.346H179.844V445.41H185.838V451.35H179.826V450.432ZM204.774 446.022V447.138H188.988V446.022H204.774ZM193.524 443.826C193.596 443.922 193.686 444.048 193.794 444.204C193.902 444.348 194.034 444.516 194.19 444.708C194.418 445.02 194.634 445.308 194.838 445.572C195.042 445.836 195.198 446.046 195.306 446.202L193.956 446.472C193.908 446.388 193.632 446.016 193.128 445.356C192.948 445.104 192.78 444.876 192.624 444.672C192.48 444.468 192.366 444.312 192.282 444.204L193.524 443.826ZM195.81 452.088V453.186H191.058V452.088H195.81ZM195.81 455.112V456.21H191.076V455.112H195.81ZM199.734 449.28V456.984H198.636V449.28H199.734ZM198.258 446.454C198.342 446.334 198.432 446.22 198.528 446.112C198.624 445.992 198.714 445.872 198.798 445.752C199.482 444.876 199.98 444.204 200.292 443.736L201.48 444.15C201.204 444.558 200.85 445.044 200.418 445.608C199.998 446.16 199.638 446.604 199.338 446.94L198.258 446.454ZM200.724 458.712C201.12 458.712 201.414 458.682 201.606 458.622C201.798 458.562 201.924 458.454 201.984 458.298C202.044 458.142 202.074 457.896 202.074 457.56V448.524H203.244V457.848C203.244 458.376 203.178 458.784 203.046 459.072C202.926 459.36 202.704 459.564 202.38 459.684C202.068 459.804 201.612 459.864 201.012 459.864H198.978L198.744 458.712H200.724ZM196.566 458.1C196.566 458.568 196.506 458.934 196.386 459.198C196.266 459.462 196.068 459.648 195.792 459.756C195.528 459.864 195.156 459.918 194.676 459.918H193.2L192.966 458.766H194.298C194.622 458.766 194.862 458.742 195.018 458.694C195.174 458.634 195.276 458.538 195.324 458.406C195.384 458.274 195.414 458.07 195.414 457.794V450.126H191.49V460.026H190.32V449.01H196.566V458.1ZM209.364 451.782L210.534 451.188V460.188H209.364V451.782ZM211.794 458.118H222.81V459.288H211.794V458.118ZM212.496 447.012H222.432V448.2H212.496V447.012ZM212.748 452.214H221.856V453.438H212.748V452.214ZM216.78 447.606H218.058V458.694H216.78V447.606ZM206.898 454.032C207.594 453.408 208.344 452.574 209.148 451.53C209.964 450.474 210.618 449.484 211.11 448.56L212.082 449.226C211.53 450.246 210.804 451.338 209.904 452.502C209.016 453.654 208.188 454.578 207.42 455.274L206.898 454.032ZM207.132 448.56C207.828 447.948 208.578 447.192 209.382 446.292C210.198 445.38 210.81 444.594 211.218 443.934L212.226 444.708C211.758 445.404 211.086 446.238 210.21 447.21C209.334 448.17 208.506 448.986 207.726 449.658L207.132 448.56ZM215.934 444.06L217.05 443.556L218.49 446.256L217.356 446.832L215.934 444.06ZM229.488 446.076H240.648V447.228H229.488V446.076ZM228.84 459.18C230.436 458.736 231.63 458.274 232.422 457.794C233.226 457.314 233.766 456.756 234.042 456.12C234.318 455.472 234.456 454.62 234.456 453.564V451.188C234.456 449.94 234.456 448.632 234.456 447.264C234.468 445.884 234.468 444.75 234.456 443.862H235.608V453.546C235.608 454.854 235.428 455.91 235.068 456.714C234.708 457.506 234.09 458.178 233.214 458.73C232.338 459.282 231.066 459.81 229.398 460.314L228.84 459.18ZM231.396 454.248C232.224 455.544 233.376 456.552 234.852 457.272C236.328 457.992 238.326 458.49 240.846 458.766L240.522 460.008C237.906 459.624 235.818 459.036 234.258 458.244C232.698 457.452 231.462 456.354 230.55 454.95L231.396 454.248ZM230.154 449.064H239.91V453.654H230.154V449.064ZM231.27 450.126V452.538H238.776V450.126H231.27ZM224.808 451.872C225.408 451.032 226.008 449.892 226.608 448.452C227.208 447.012 227.736 445.482 228.192 443.862L229.344 444.168C228.876 445.956 228.306 447.588 227.634 449.064C226.974 450.54 226.2 451.926 225.312 453.222L224.808 451.872ZM226.932 448.308L228.066 447.696V460.26H226.932V448.308ZM250.548 445.356H251.772V459.864H250.548V445.356ZM243.024 459.684C243.528 458.856 243.894 458.142 244.122 457.542C244.35 456.93 244.506 456.24 244.59 455.472C244.674 454.692 244.716 453.594 244.716 452.178V444.906H257.694V457.956C257.694 458.484 257.622 458.886 257.478 459.162C257.346 459.45 257.124 459.654 256.812 459.774C256.5 459.894 256.062 459.954 255.498 459.954H253.644L253.446 458.712H255.138C255.522 458.712 255.804 458.682 255.984 458.622C256.164 458.562 256.284 458.454 256.344 458.298C256.416 458.13 256.452 457.884 256.452 457.56V446.112H245.958V452.61C245.958 453.858 245.904 454.902 245.796 455.742C245.688 456.57 245.508 457.332 245.256 458.028C245.004 458.712 244.638 459.462 244.158 460.278L243.024 459.684ZM245.31 453.708H256.848V454.914H245.31V453.708ZM245.31 449.388H256.812V450.594H245.31V449.388ZM264.066 443.808H265.182V449.64H264.066V443.808ZM261.834 446.058H267.18V447.048H261.834V446.058ZM261.132 449.154H268.962V450.18H261.132V449.154ZM260.934 454.122C262.674 452.862 264.18 451.5 265.452 450.036C266.724 448.572 267.798 446.952 268.674 445.176L269.592 445.68C268.668 447.564 267.57 449.226 266.298 450.666C265.026 452.094 263.436 453.534 261.528 454.986L260.934 454.122ZM261.582 451.818H268.314V452.79L265.974 454.842V458.316C265.974 458.772 265.92 459.12 265.812 459.36C265.704 459.6 265.518 459.768 265.254 459.864C265.002 459.96 264.618 460.008 264.102 460.008H262.41L262.194 458.892H263.652C264.012 458.892 264.276 458.868 264.444 458.82C264.612 458.76 264.72 458.664 264.768 458.532C264.828 458.388 264.858 458.166 264.858 457.866V454.518L266.838 452.808H261.582V451.818ZM261.132 455.868L269.016 454.824L269.034 455.526L269.052 455.94L261.24 456.984L261.132 455.868ZM268.566 451.224C269.166 450.336 269.748 449.166 270.312 447.714C270.876 446.262 271.266 444.96 271.482 443.808L272.67 443.934C272.322 445.47 271.86 446.964 271.284 448.416C270.708 449.856 270.048 451.098 269.304 452.142L268.566 451.224ZM271.374 446.85H276.756V448.002H271.032L271.374 446.85ZM267.684 459.234C269.268 458.13 270.504 457.062 271.392 456.03C272.292 454.986 272.97 453.81 273.426 452.502C273.894 451.194 274.236 449.532 274.452 447.516L275.55 447.534C275.322 449.658 274.962 451.44 274.47 452.88C273.978 454.308 273.258 455.598 272.31 456.75C271.374 457.89 270.096 459.066 268.476 460.278L267.684 459.234ZM271.014 448.596C271.206 450.204 271.518 451.608 271.95 452.808C272.382 453.996 272.994 455.094 273.786 456.102C274.578 457.098 275.604 458.076 276.864 459.036L276.126 460.17C274.854 459.198 273.804 458.178 272.976 457.11C272.16 456.03 271.518 454.872 271.05 453.636C270.594 452.4 270.264 450.996 270.06 449.424L271.014 448.596ZM293.892 454.842V455.94H285.468V454.842H293.892ZM290.31 452.052V458.766H289.122V452.052H290.31ZM294.342 451.44V452.502H285.18V451.44H294.342ZM294.882 458.28V459.414H284.352V458.28H294.882ZM282.606 445.608V460.206H281.526V445.608H282.606ZM284.874 448.902V450.108H279.114V448.902H284.874ZM293.658 444.852V449.676H285.774V444.852H293.658ZM286.944 448.614H292.506V445.896H286.944V448.614ZM278.772 455.886C279.456 454.83 280.062 453.684 280.59 452.448C281.13 451.2 281.532 450.018 281.796 448.902L282.336 450.072C282.048 451.248 281.652 452.442 281.148 453.654C280.644 454.854 280.074 455.946 279.438 456.93L278.772 455.886ZM282.516 451.548C283.416 452.328 284.262 453.084 285.054 453.816L284.352 454.68C283.788 454.092 282.966 453.324 281.886 452.376L282.516 451.548ZM279.186 445.482C280.11 445.35 281.076 445.182 282.084 444.978C283.092 444.774 283.956 444.576 284.676 444.384L284.964 445.536C284.244 445.716 283.35 445.908 282.282 446.112C281.214 446.316 280.212 446.49 279.276 446.634L279.186 445.482Z" fill="#F5F5F5"/>
<path d="M490.426 0.5C481.037 0.5 473.426 8.11116 473.426 17.5V702.5C473.426 711.889 481.037 719.5 490.426 719.5C499.815 719.5 507.426 711.889 507.426 702.5V17.5C507.426 8.11117 499.815 0.5 490.426 0.5Z" fill="#3E3A39" stroke="#3E3A39"/>
<defs>
<filter id="filter0_g_2024_2620" x="39.043" y="46.0781" width="332.338" height="442.567" filterUnits="userSpaceOnUse" color-interpolation-filters="sRGB">
<feFlood flood-opacity="0" result="BackgroundImageFix"/>
<feBlend mode="normal" in="SourceGraphic" in2="BackgroundImageFix" result="shape"/>
<feTurbulence type="fractalNoise" baseFrequency="0.99900001287460327 0.99900001287460327" numOctaves="3" seed="8682" />
<feDisplacementMap in="shape" scale="4" xChannelSelector="R" yChannelSelector="G" result="displacedImage" width="100%" height="100%" />
<feMerge result="effect1_texture_2024_2620">
<feMergeNode in="displacedImage"/>
</feMerge>
</filter>
</defs>
</svg>
