<svg width="538" height="760" viewBox="0 0 538 760" fill="none" xmlns="http://www.w3.org/2000/svg">
<g clip-path="url(#clip0_825_113)">
<rect width="407.893" height="640" transform="translate(130)" fill="white"/>
<path d="M162.282 5.02607C165.379 2.33543 169.341 0.853882 173.44 0.853271H520.007C524.525 0.853271 528.858 2.65136 532.052 5.85198C535.247 9.0526 537.042 13.3936 537.042 17.9199V596.48C537.043 599.028 536.474 601.544 535.377 603.843C534.281 606.142 532.684 608.166 530.705 609.766" stroke="#3E3A39" stroke-opacity="0.4" stroke-width="2"/>
<path d="M507.374 633.207C505.778 635.077 503.796 636.579 501.566 637.61C499.336 638.641 496.909 639.177 494.453 639.181H147.887C143.369 639.181 139.036 637.383 135.841 634.182C132.646 630.981 130.852 626.64 130.852 622.114V43.554C130.852 41.1084 131.377 38.6915 132.391 36.4669C133.405 34.2423 134.884 32.262 136.729 30.6602" stroke="#3E3A39" stroke-opacity="0.4" stroke-width="2"/>
<path d="M136.729 30.6262C139.826 27.9355 143.787 26.454 147.887 26.4534H494.453C498.971 26.4534 503.304 28.2515 506.499 31.4521C509.693 34.6527 511.488 38.9937 511.488 43.52V622.08C511.487 626.152 510.028 630.089 507.374 633.173" stroke="#3E3A39" stroke-opacity="0.4" stroke-width="2"/>
<path d="M162.367 5.12012L136.814 30.7201" stroke="#3E3A39" stroke-opacity="0.4" stroke-width="2"/>
<path d="M532.033 5.97339L506.48 31.5734" stroke="#3E3A39" stroke-opacity="0.4" stroke-width="2"/>
<path d="M532.885 607.573L507.332 633.173" stroke="#3E3A39" stroke-opacity="0.4" stroke-width="2"/>
<path d="M275.993 301.253L311.273 207.653H331.793L367.073 301.253H345.833L321.953 234.053H321.233L297.353 301.253H275.993ZM342.473 260.813L347.393 279.533H296.753L301.433 260.813H342.473ZM331.606 391.253H311.566V297.653H331.606V391.253Z" fill="#3E3A39"/>
</g>
<g clip-path="url(#clip1_825_113)">
<rect width="408" height="640" transform="translate(65 60)" fill="white"/>
<path d="M97.29 65.0261C100.388 62.3354 104.351 60.8539 108.451 60.8533H455.108C459.627 60.8533 463.961 62.6514 467.157 65.852C470.352 69.0526 472.148 73.3936 472.148 77.9199V656.48C472.148 659.028 471.579 661.544 470.483 663.843C469.386 666.142 467.789 668.166 465.809 669.766" stroke="#3E3A39" stroke-opacity="0.4" stroke-width="2"/>
<path d="M442.473 693.207C440.876 695.077 438.894 696.579 436.663 697.61C434.432 698.641 432.005 699.177 429.548 699.181H82.8913C78.3721 699.181 74.038 697.383 70.8424 694.182C67.6468 690.981 65.8516 686.64 65.8516 682.114V103.554C65.8519 101.108 66.377 98.6915 67.3912 96.4669C68.4055 94.2423 69.8852 92.262 71.7303 90.6602" stroke="#3E3A39" stroke-opacity="0.4" stroke-width="2"/>
<path d="M71.7305 90.6262C74.8284 87.9355 78.7911 86.454 82.8915 86.4534H429.548C434.068 86.4534 438.402 88.2515 441.597 91.4521C444.793 94.6527 446.588 98.9937 446.588 103.52V682.08C446.587 686.152 445.127 690.089 442.473 693.173" stroke="#3E3A39" stroke-opacity="0.4" stroke-width="2"/>
<path d="M97.3751 65.1201L71.8154 90.7201" stroke="#3E3A39" stroke-opacity="0.4" stroke-width="2"/>
<path d="M467.139 65.9734L441.579 91.5734" stroke="#3E3A39" stroke-opacity="0.4" stroke-width="2"/>
<path d="M467.99 667.573L442.431 693.173" stroke="#3E3A39" stroke-opacity="0.4" stroke-width="2"/>
<path d="M211.043 361.253L246.323 267.653H266.843L302.123 361.253H280.883L257.003 294.053H256.283L232.403 361.253H211.043ZM277.523 320.813L282.443 339.533H231.803L236.483 320.813H277.523ZM266.657 451.253H246.617V357.653H266.657V451.253Z" fill="#3E3A39"/>
</g>
<g clip-path="url(#clip2_825_113)">
<rect width="408" height="640" transform="translate(0 120)" fill="white"/>
<path d="M32.29 125.026C35.3879 122.335 39.3506 120.854 43.4511 120.853H390.108C394.627 120.853 398.961 122.651 402.157 125.852C405.352 129.053 407.148 133.394 407.148 137.92V716.48C407.148 719.028 406.579 721.544 405.483 723.843C404.386 726.142 402.789 728.166 400.809 729.766" stroke="#3E3A39" stroke-width="2"/>
<path d="M377.473 753.207C375.876 755.077 373.894 756.579 371.663 757.61C369.432 758.641 367.005 759.177 364.548 759.181H17.8913C13.3721 759.181 9.03797 757.383 5.84239 754.182C2.64682 750.981 0.851563 746.64 0.851562 742.114V163.554C0.851877 161.108 1.37695 158.692 2.39122 156.467C3.40548 154.242 4.88525 152.262 6.73028 150.66" stroke="#3E3A39" stroke-width="2"/>
<path d="M6.73047 150.626C9.82835 147.936 13.7911 146.454 17.8915 146.453H364.548C369.068 146.453 373.402 148.251 376.597 151.452C379.793 154.653 381.588 158.994 381.588 163.52V742.08C381.587 746.152 380.127 750.089 377.473 753.173" stroke="#3E3A39" stroke-opacity="0.4" stroke-width="2"/>
<g opacity="0.4">
<path d="M334.457 179.733H49.9013C40.2552 179.733 32.4355 187.565 32.4355 197.227V639.373C32.4355 649.034 40.2552 656.866 49.9013 656.866H334.457C344.103 656.866 351.923 649.034 351.923 639.373V197.227C351.923 187.565 344.103 179.733 334.457 179.733Z" stroke="#3E3A39" stroke-opacity="0.6"/>
</g>
<path d="M56.1124 734.477C73.0283 734.477 86.7413 720.742 86.7413 703.799C86.7413 686.857 73.0283 673.122 56.1124 673.122C39.1965 673.122 25.4834 686.857 25.4834 703.799C25.4834 720.742 39.1965 734.477 56.1124 734.477Z" stroke="#3E3A39"/>
<path d="M32.3751 125.12L6.81543 150.72" stroke="#3E3A39" stroke-width="2"/>
<path d="M402.139 125.973L376.579 151.573" stroke="#3E3A39" stroke-opacity="0.4" stroke-width="2"/>
<path d="M402.99 727.573L377.431 753.173" stroke="#3E3A39" stroke-width="2"/>
<path d="M128.373 464.92L163.653 371.32H184.173L219.453 464.92H198.213L174.333 397.72H173.613L149.733 464.92H128.373ZM194.853 424.48L199.773 443.2H149.133L153.813 424.48H194.853ZM247.853 464.92H227.813V371.32H247.853V464.92Z" fill="#3E3A39"/>
</g>
<defs>
<clipPath id="clip0_825_113">
<rect width="407.893" height="640" fill="white" transform="translate(130)"/>
</clipPath>
<clipPath id="clip1_825_113">
<rect width="408" height="640" fill="white" transform="translate(65 60)"/>
</clipPath>
<clipPath id="clip2_825_113">
<rect width="408" height="640" fill="white" transform="translate(0 120)"/>
</clipPath>
</defs>
</svg>
