<svg width="508" height="720" viewBox="0 0 508 720" fill="none" xmlns="http://www.w3.org/2000/svg">
<path d="M507.695 572H483.195C465.798 572 451.695 586.103 451.695 603.5C451.695 620.897 465.798 635 483.195 635H507.695V572Z" fill="#596680"/>
<path d="M483.195 572.5C466.074 572.5 452.195 586.379 452.195 603.5C452.195 620.621 466.074 634.5 483.195 634.5H507.195V572.5H483.195Z" stroke="#3E3A39" stroke-opacity="0.6" stroke-linejoin="round"/>
<rect x="9.08594" y="9.63135" width="393.507" height="700.738" rx="26.75" fill="#596680" fill-opacity="0.8" stroke="#3E3A39" stroke-width="0.5"/>
<path d="M382.769 0C399.337 0 412.769 13.4315 412.769 30V690C412.769 706.569 399.337 720 382.769 720H30C13.4315 720 4.83225e-07 706.569 0 690V30C7.73159e-06 13.4315 13.4315 0 30 0H382.769ZM35.835 9.38184C20.9234 9.38184 8.8352 21.4694 8.83496 36.3809V683.619C8.83496 698.531 20.9233 710.619 35.835 710.619H375.842C390.753 710.619 402.842 698.531 402.842 683.619V36.3818C402.842 21.4702 390.753 9.38199 375.842 9.38184H35.835Z" fill="#596680"/>
<rect width="114.164" height="49.8169" rx="24.9085" transform="matrix(-1 0 0 1 161.434 549.381)" fill="#596680"/>
<rect width="114.164" height="49.8169" rx="24.9085" transform="matrix(-1 0 0 1 161.434 607.5)" fill="#596680"/>
<g opacity="0.2" filter="url(#filter0_g_2024_2621)">
<rect x="41.043" y="48.0781" width="328.339" height="438.567" rx="12" fill="black"/>
<rect x="41.543" y="48.5781" width="327.339" height="437.567" rx="11.5" stroke="#3E3A39" stroke-opacity="0.6"/>
</g>
<rect x="197.004" y="571.856" width="171.987" height="63.6352" rx="30" fill="#596680"/>
<path d="M294.458 650.692C294.458 650.868 294.424 651.043 294.357 651.206C294.29 651.369 294.191 651.517 294.067 651.642L283.947 661.759C283.696 662.01 283.355 662.151 282.999 662.151C282.644 662.151 282.303 662.01 282.051 661.759L271.932 651.642C271.68 651.39 271.539 651.048 271.539 650.692C271.539 650.336 271.681 649.994 271.933 649.743C272.185 649.491 272.527 649.35 272.883 649.35C273.239 649.35 273.581 649.492 273.832 649.744L282.999 658.911L292.166 649.744C292.354 649.556 292.593 649.429 292.853 649.377C293.113 649.325 293.382 649.352 293.627 649.453C293.872 649.555 294.082 649.727 294.229 649.947C294.377 650.167 294.455 650.427 294.456 650.692L294.458 650.692Z" fill="#F5F5F5" fill-opacity="0.2"/>
<path d="M271.538 556.655C271.538 556.479 271.572 556.304 271.639 556.141C271.706 555.978 271.805 555.83 271.929 555.705L282.049 545.588C282.3 545.337 282.641 545.196 282.997 545.196C283.352 545.196 283.693 545.337 283.945 545.588L294.064 555.705C294.316 555.957 294.457 556.299 294.457 556.655C294.457 557.011 294.315 557.353 294.063 557.605C293.811 557.856 293.469 557.998 293.113 557.997C292.757 557.997 292.415 557.855 292.164 557.603L282.997 548.437L273.83 557.603C273.642 557.791 273.403 557.918 273.143 557.97C272.883 558.022 272.614 557.995 272.369 557.894C272.124 557.792 271.914 557.621 271.767 557.4C271.619 557.18 271.541 556.921 271.54 556.655L271.538 556.655Z" fill="#F5F5F5" fill-opacity="0.2"/>
<rect x="136.027" y="21.1074" width="140.717" height="17.5896" rx="8.79479" fill="#596680"/>
<rect x="41.043" y="543.152" width="126.618" height="120.391" rx="12" fill="#596680" fill-opacity="0.2"/>
<path d="M490.195 0.5C480.806 0.5 473.195 8.11116 473.195 17.5V702.5C473.195 711.889 480.806 719.5 490.195 719.5C499.584 719.5 507.195 711.889 507.195 702.5V17.5C507.195 8.11117 499.584 0.5 490.195 0.5Z" fill="#596680" stroke="#3E3A39"/>
<path d="M172.755 275.6V277.85H148.545V275.6H172.755ZM148.305 299.63C150.125 298.13 151.455 296.78 152.295 295.58C153.155 294.38 153.725 293.06 154.005 291.62C154.305 290.16 154.455 288.15 154.455 285.59V276.41H156.795V285.35C156.795 288.23 156.615 290.52 156.255 292.22C155.915 293.92 155.275 295.45 154.335 296.81C153.415 298.15 151.995 299.66 150.075 301.34L148.305 299.63ZM167.475 276.62V300.95H165.075V276.62H167.475ZM174.015 286.07V288.35H147.315V286.07H174.015ZM190.665 297.2H200.925V299.3H190.665V297.2ZM177.615 279.23H187.455V281.45C187.115 285.07 186.665 287.93 186.105 290.03C185.545 292.11 184.725 293.94 183.645 295.52C182.565 297.1 180.955 298.94 178.815 301.04L177.255 299.48C179.375 297.5 180.935 295.76 181.935 294.26C182.955 292.76 183.695 291.1 184.155 289.28C184.615 287.44 185.005 284.83 185.325 281.45H177.615V279.23ZM178.155 290.78C179.495 285.48 180.385 279.78 180.825 273.68L182.955 273.83C182.695 276.89 182.365 279.74 181.965 282.38C181.585 285 181.105 287.5 180.525 289.88C180.905 290.2 181.335 290.57 181.815 290.99C182.295 291.39 182.805 291.83 183.345 292.31C185.245 294.01 186.925 295.59 188.385 297.05L187.035 298.94C186.475 298.34 185.815 297.68 185.055 296.96C184.315 296.22 183.565 295.5 182.805 294.8C182.025 294.08 181.225 293.37 180.405 292.67C179.605 291.95 178.855 291.32 178.155 290.78ZM188.265 283.43C189.405 282.13 190.485 280.59 191.505 278.81C192.545 277.01 193.455 275.21 194.235 273.41L196.395 274.22C195.975 275.24 195.415 276.39 194.715 277.67C194.035 278.93 193.345 280.1 192.645 281.18C192.045 282.08 191.605 282.71 191.325 283.07L201.315 282.56L201.705 284.57L188.775 285.29L188.265 283.43ZM199.125 276.86C199.705 277.76 200.475 279.09 201.435 280.85C202.415 282.59 203.265 284.15 203.985 285.53L202.005 286.67C201.425 285.43 200.645 283.9 199.665 282.08C198.705 280.26 197.925 278.86 197.325 277.88L199.125 276.86ZM189.405 288.62H202.215V301.04H199.995V290.72H191.565V301.01H189.405V288.62ZM214.935 277.28H233.625V279.41H214.935V277.28ZM213.885 299.09C216.525 298.39 218.495 297.65 219.795 296.87C221.115 296.09 222.005 295.18 222.465 294.14C222.925 293.08 223.155 291.68 223.155 289.94V287.66C223.155 285.3 223.155 282.81 223.155 280.19C223.175 277.57 223.175 275.41 223.155 273.71H225.285V289.88C225.285 292.08 224.985 293.85 224.385 295.19C223.785 296.53 222.755 297.66 221.295 298.58C219.835 299.5 217.715 300.38 214.935 301.22L213.885 299.09ZM218.205 291.08C219.565 293.18 221.475 294.82 223.935 296C226.415 297.18 229.755 297.99 233.955 298.43L233.325 300.74C228.965 300.1 225.475 299.13 222.855 297.83C220.235 296.51 218.165 294.69 216.645 292.37L218.205 291.08ZM215.985 282.29H232.425V290.15H215.985V282.29ZM218.055 284.27V288.08H230.325V284.27H218.055ZM207.105 286.91C208.085 285.53 209.065 283.66 210.045 281.3C211.045 278.92 211.925 276.38 212.685 273.68L214.815 274.25C214.035 277.25 213.095 279.98 211.995 282.44C210.895 284.88 209.575 287.21 208.035 289.43L207.105 286.91ZM210.585 281.18L212.685 280.1V301.13H210.585V281.18ZM249.915 276.23H252.225V300.47H249.915V276.23ZM237.405 300.08C238.245 298.7 238.855 297.51 239.235 296.51C239.615 295.49 239.875 294.34 240.015 293.06C240.155 291.76 240.225 289.93 240.225 287.57V275.39H262.095V297.26C262.095 298.14 261.975 298.82 261.735 299.3C261.495 299.8 261.105 300.15 260.565 300.35C260.045 300.55 259.305 300.65 258.345 300.65H255.285L254.925 298.34H257.655C258.275 298.34 258.725 298.3 259.005 298.22C259.305 298.12 259.505 297.94 259.605 297.68C259.705 297.42 259.755 297.02 259.755 296.48V277.64H242.535V288.38C242.535 290.44 242.445 292.17 242.265 293.57C242.085 294.95 241.785 296.23 241.365 297.41C240.945 298.57 240.335 299.83 239.535 301.19L237.405 300.08ZM241.335 290.06H260.505V292.31H241.335V290.06ZM241.335 282.86H260.445V285.11H241.335V282.86Z" fill="#F5F5F5"/>
<path d="M146.718 247.88V203.72H150.198V247.88H146.718ZM120.738 226.58V223.34H147.438V226.58H120.738ZM121.458 203.72V247.88H117.978V203.72H121.458ZM163.294 244.58H187.114V247.88H159.814V203.72H186.334V207.02H163.294V223.22H185.074V226.46H163.294V244.58ZM197.688 244.58H221.088V247.88H194.208V203.72H197.688V244.58ZM230.559 244.58H253.959V247.88H227.079V203.72H230.559V244.58ZM276.254 248.72C272.334 248.72 268.894 247.78 265.934 245.9C262.974 244.02 260.674 241.36 259.034 237.92C257.434 234.44 256.634 230.4 256.634 225.8C256.634 221.16 257.434 217.12 259.034 213.68C260.674 210.2 262.974 207.54 265.934 205.7C268.894 203.82 272.334 202.88 276.254 202.88C280.174 202.88 283.614 203.82 286.574 205.7C289.534 207.54 291.834 210.2 293.474 213.68C295.114 217.12 295.934 221.16 295.934 225.8C295.934 230.4 295.114 234.44 293.474 237.92C291.834 241.36 289.534 244.02 286.574 245.9C283.614 247.78 280.174 248.72 276.254 248.72ZM276.254 245.42C279.454 245.42 282.254 244.62 284.654 243.02C287.094 241.42 288.994 239.14 290.354 236.18C291.714 233.22 292.394 229.76 292.394 225.8C292.394 221.8 291.714 218.34 290.354 215.42C288.994 212.46 287.094 210.18 284.654 208.58C282.254 206.98 279.454 206.18 276.254 206.18C273.054 206.18 270.234 206.98 267.794 208.58C265.394 210.18 263.514 212.46 262.154 215.42C260.834 218.34 260.174 221.8 260.174 225.8C260.174 229.76 260.834 233.22 262.154 236.18C263.514 239.14 265.394 241.42 267.794 243.02C270.234 244.62 273.054 245.42 276.254 245.42Z" fill="#F5F5F5"/>
<path opacity="0.6" d="M124.119 446.922H125.289V460.224H124.119V446.922ZM118.611 446.256H130.797V453.816H118.611V446.256ZM119.799 447.354V452.718H129.609V447.354H119.799ZM116.883 455.868H132.507V457.02H116.883V455.868ZM120.267 444.168L121.167 443.52L123.165 445.824L122.175 446.454L120.267 444.168ZM119.277 449.496H130.113V450.576H119.277V449.496ZM125.667 446.598C126.027 446.202 126.453 445.704 126.945 445.104C127.449 444.492 127.851 443.976 128.151 443.556L129.213 444.096C128.937 444.48 128.571 444.954 128.115 445.518C127.659 446.07 127.245 446.568 126.873 447.012L125.667 446.598ZM135.045 447.21H139.977V448.398H135.045V447.21ZM135.927 458.712C136.239 458.712 136.473 458.688 136.629 458.64C136.785 458.58 136.893 458.49 136.953 458.37C137.013 458.238 137.043 458.034 137.043 457.758V444.006H138.195V458.172C138.195 458.64 138.135 458.994 138.015 459.234C137.895 459.486 137.697 459.66 137.421 459.756C137.157 459.852 136.779 459.9 136.287 459.9H135.117L134.883 458.712H135.927ZM134.685 452.862C134.829 452.802 134.973 452.742 135.117 452.682C135.261 452.622 135.417 452.556 135.585 452.484C137.277 451.824 138.621 451.266 139.617 450.81L139.815 452.016C139.335 452.22 138.669 452.49 137.817 452.826C136.137 453.522 135.195 453.918 134.991 454.014L134.685 452.862ZM145.359 443.718C145.479 443.97 145.617 444.294 145.773 444.69C145.929 445.074 146.073 445.458 146.205 445.842C146.241 445.926 146.271 446.01 146.295 446.094C146.331 446.166 146.361 446.226 146.385 446.274L145.107 446.508C145.047 446.376 144.981 446.226 144.909 446.058C144.849 445.878 144.783 445.686 144.711 445.482C144.615 445.206 144.513 444.942 144.405 444.69C144.309 444.426 144.219 444.204 144.135 444.024L145.359 443.718ZM140.625 446.004H150.093V449.172H148.923V447.12H141.759V449.172H140.625V446.004ZM140.229 450.954H150.543V452.088H140.229V450.954ZM141.039 454.896L141.075 454.824C141.591 453.756 142.077 452.622 142.533 451.422C143.001 450.222 143.367 449.118 143.631 448.11L144.855 448.398C144.591 449.31 144.243 450.312 143.811 451.404C143.391 452.484 142.959 453.486 142.515 454.41C143.547 454.926 144.771 455.598 146.187 456.426C147.603 457.254 149.007 458.118 150.399 459.018L149.697 460.134C148.245 459.162 146.745 458.202 145.197 457.254C143.649 456.306 142.263 455.52 141.039 454.896ZM139.329 459.108C141.165 458.544 142.623 457.944 143.703 457.308C144.783 456.66 145.617 455.886 146.205 454.986C146.793 454.074 147.231 452.916 147.519 451.512L148.671 451.818C148.359 453.378 147.879 454.662 147.231 455.67C146.595 456.666 145.701 457.524 144.549 458.244C143.397 458.952 141.831 459.642 139.851 460.314L139.329 459.108ZM160.695 458.496C159.519 458.496 158.427 458.208 157.419 457.632C156.423 457.044 155.631 456.252 155.043 455.256C154.467 454.248 154.179 453.156 154.179 451.98C154.179 450.804 154.467 449.718 155.043 448.722C155.631 447.714 156.423 446.922 157.419 446.346C158.427 445.758 159.519 445.464 160.695 445.464C161.871 445.464 162.957 445.758 163.953 446.346C164.961 446.922 165.753 447.714 166.329 448.722C166.917 449.718 167.211 450.804 167.211 451.98C167.211 453.156 166.917 454.248 166.329 455.256C165.753 456.252 164.961 457.044 163.953 457.632C162.957 458.208 161.871 458.496 160.695 458.496ZM160.695 457.794C161.739 457.794 162.705 457.536 163.593 457.02C164.481 456.492 165.183 455.784 165.699 454.896C166.215 454.008 166.473 453.036 166.473 451.98C166.473 450.924 166.215 449.952 165.699 449.064C165.183 448.176 164.481 447.474 163.593 446.958C162.705 446.43 161.739 446.166 160.695 446.166C159.651 446.166 158.685 446.43 157.797 446.958C156.909 447.474 156.207 448.176 155.691 449.064C155.175 449.952 154.917 450.924 154.917 451.98C154.917 453.036 155.175 454.008 155.691 454.896C156.207 455.784 156.909 456.492 157.797 457.02C158.685 457.536 159.651 457.794 160.695 457.794ZM172.035 446.184H175.275V447.228H172.035V446.184ZM170.739 452.79H175.149V453.834H170.739V452.79ZM170.541 449.064C170.925 448.356 171.303 447.51 171.675 446.526C172.059 445.542 172.365 444.594 172.593 443.682L173.601 443.898C173.337 444.93 173.001 445.968 172.593 447.012C172.197 448.044 171.735 449.034 171.207 449.982L170.541 449.064ZM171.405 449.28H174.861V450.306H171.405V449.28ZM179.073 447.912H186.597V448.866H179.073V447.912ZM178.893 455.328H186.363V456.264H178.893V455.328ZM179.469 452.88H185.895V453.816H179.469V452.88ZM181.809 443.79H182.817V457.974H181.809V443.79ZM171.891 458.73C172.059 458.586 172.179 458.454 172.251 458.334C172.323 458.214 172.359 458.07 172.359 457.902V449.64H173.367V457.83L175.167 456.39L175.419 457.524L172.521 459.702L171.891 458.73ZM176.283 452.574C176.583 453.858 176.949 454.92 177.381 455.76C177.825 456.6 178.401 457.248 179.109 457.704C179.817 458.16 180.699 458.388 181.755 458.388H186.615L186.435 459.45H181.665C180.597 459.45 179.667 459.258 178.875 458.874C178.095 458.478 177.411 457.8 176.823 456.84C176.247 455.88 175.779 454.566 175.419 452.898L176.283 452.574ZM174.627 459.36C175.659 458.148 176.415 456.924 176.895 455.688C177.387 454.44 177.699 452.952 177.831 451.224H175.617V450.18L177.831 446.166H175.743V445.104H178.929V446.184L176.769 450.18H178.857V451.26C178.701 452.604 178.497 453.756 178.245 454.716C178.005 455.676 177.669 456.582 177.237 457.434C176.805 458.286 176.229 459.192 175.509 460.152L174.627 459.36ZM179.595 450.432H184.635V446.346H179.613V445.41H185.607V451.35H179.595V450.432ZM204.543 446.022V447.138H188.757V446.022H204.543ZM193.293 443.826C193.365 443.922 193.455 444.048 193.563 444.204C193.671 444.348 193.803 444.516 193.959 444.708C194.187 445.02 194.403 445.308 194.607 445.572C194.811 445.836 194.967 446.046 195.075 446.202L193.725 446.472C193.677 446.388 193.401 446.016 192.897 445.356C192.717 445.104 192.549 444.876 192.393 444.672C192.249 444.468 192.135 444.312 192.051 444.204L193.293 443.826ZM195.579 452.088V453.186H190.827V452.088H195.579ZM195.579 455.112V456.21H190.845V455.112H195.579ZM199.503 449.28V456.984H198.405V449.28H199.503ZM198.027 446.454C198.111 446.334 198.201 446.22 198.297 446.112C198.393 445.992 198.483 445.872 198.567 445.752C199.251 444.876 199.749 444.204 200.061 443.736L201.249 444.15C200.973 444.558 200.619 445.044 200.187 445.608C199.767 446.16 199.407 446.604 199.107 446.94L198.027 446.454ZM200.493 458.712C200.889 458.712 201.183 458.682 201.375 458.622C201.567 458.562 201.693 458.454 201.753 458.298C201.813 458.142 201.843 457.896 201.843 457.56V448.524H203.013V457.848C203.013 458.376 202.947 458.784 202.815 459.072C202.695 459.36 202.473 459.564 202.149 459.684C201.837 459.804 201.381 459.864 200.781 459.864H198.747L198.513 458.712H200.493ZM196.335 458.1C196.335 458.568 196.275 458.934 196.155 459.198C196.035 459.462 195.837 459.648 195.561 459.756C195.297 459.864 194.925 459.918 194.445 459.918H192.969L192.735 458.766H194.067C194.391 458.766 194.631 458.742 194.787 458.694C194.943 458.634 195.045 458.538 195.093 458.406C195.153 458.274 195.183 458.07 195.183 457.794V450.126H191.259V460.026H190.089V449.01H196.335V458.1ZM209.133 451.782L210.303 451.188V460.188H209.133V451.782ZM211.563 458.118H222.579V459.288H211.563V458.118ZM212.265 447.012H222.201V448.2H212.265V447.012ZM212.517 452.214H221.625V453.438H212.517V452.214ZM216.549 447.606H217.827V458.694H216.549V447.606ZM206.667 454.032C207.363 453.408 208.113 452.574 208.917 451.53C209.733 450.474 210.387 449.484 210.879 448.56L211.851 449.226C211.299 450.246 210.573 451.338 209.673 452.502C208.785 453.654 207.957 454.578 207.189 455.274L206.667 454.032ZM206.901 448.56C207.597 447.948 208.347 447.192 209.151 446.292C209.967 445.38 210.579 444.594 210.987 443.934L211.995 444.708C211.527 445.404 210.855 446.238 209.979 447.21C209.103 448.17 208.275 448.986 207.495 449.658L206.901 448.56ZM215.703 444.06L216.819 443.556L218.259 446.256L217.125 446.832L215.703 444.06ZM229.257 446.076H240.417V447.228H229.257V446.076ZM228.609 459.18C230.205 458.736 231.399 458.274 232.191 457.794C232.995 457.314 233.535 456.756 233.811 456.12C234.087 455.472 234.225 454.62 234.225 453.564V451.188C234.225 449.94 234.225 448.632 234.225 447.264C234.237 445.884 234.237 444.75 234.225 443.862H235.377V453.546C235.377 454.854 235.197 455.91 234.837 456.714C234.477 457.506 233.859 458.178 232.983 458.73C232.107 459.282 230.835 459.81 229.167 460.314L228.609 459.18ZM231.165 454.248C231.993 455.544 233.145 456.552 234.621 457.272C236.097 457.992 238.095 458.49 240.615 458.766L240.291 460.008C237.675 459.624 235.587 459.036 234.027 458.244C232.467 457.452 231.231 456.354 230.319 454.95L231.165 454.248ZM229.923 449.064H239.679V453.654H229.923V449.064ZM231.039 450.126V452.538H238.545V450.126H231.039ZM224.577 451.872C225.177 451.032 225.777 449.892 226.377 448.452C226.977 447.012 227.505 445.482 227.961 443.862L229.113 444.168C228.645 445.956 228.075 447.588 227.403 449.064C226.743 450.54 225.969 451.926 225.081 453.222L224.577 451.872ZM226.701 448.308L227.835 447.696V460.26H226.701V448.308ZM250.317 445.356H251.541V459.864H250.317V445.356ZM242.793 459.684C243.297 458.856 243.663 458.142 243.891 457.542C244.119 456.93 244.275 456.24 244.359 455.472C244.443 454.692 244.485 453.594 244.485 452.178V444.906H257.463V457.956C257.463 458.484 257.391 458.886 257.247 459.162C257.115 459.45 256.893 459.654 256.581 459.774C256.269 459.894 255.831 459.954 255.267 459.954H253.413L253.215 458.712H254.907C255.291 458.712 255.573 458.682 255.753 458.622C255.933 458.562 256.053 458.454 256.113 458.298C256.185 458.13 256.221 457.884 256.221 457.56V446.112H245.727V452.61C245.727 453.858 245.673 454.902 245.565 455.742C245.457 456.57 245.277 457.332 245.025 458.028C244.773 458.712 244.407 459.462 243.927 460.278L242.793 459.684ZM245.079 453.708H256.617V454.914H245.079V453.708ZM245.079 449.388H256.581V450.594H245.079V449.388ZM263.835 443.808H264.951V449.64H263.835V443.808ZM261.603 446.058H266.949V447.048H261.603V446.058ZM260.901 449.154H268.731V450.18H260.901V449.154ZM260.703 454.122C262.443 452.862 263.949 451.5 265.221 450.036C266.493 448.572 267.567 446.952 268.443 445.176L269.361 445.68C268.437 447.564 267.339 449.226 266.067 450.666C264.795 452.094 263.205 453.534 261.297 454.986L260.703 454.122ZM261.351 451.818H268.083V452.79L265.743 454.842V458.316C265.743 458.772 265.689 459.12 265.581 459.36C265.473 459.6 265.287 459.768 265.023 459.864C264.771 459.96 264.387 460.008 263.871 460.008H262.179L261.963 458.892H263.421C263.781 458.892 264.045 458.868 264.213 458.82C264.381 458.76 264.489 458.664 264.537 458.532C264.597 458.388 264.627 458.166 264.627 457.866V454.518L266.607 452.808H261.351V451.818ZM260.901 455.868L268.785 454.824L268.803 455.526L268.821 455.94L261.009 456.984L260.901 455.868ZM268.335 451.224C268.935 450.336 269.517 449.166 270.081 447.714C270.645 446.262 271.035 444.96 271.251 443.808L272.439 443.934C272.091 445.47 271.629 446.964 271.053 448.416C270.477 449.856 269.817 451.098 269.073 452.142L268.335 451.224ZM271.143 446.85H276.525V448.002H270.801L271.143 446.85ZM267.453 459.234C269.037 458.13 270.273 457.062 271.161 456.03C272.061 454.986 272.739 453.81 273.195 452.502C273.663 451.194 274.005 449.532 274.221 447.516L275.319 447.534C275.091 449.658 274.731 451.44 274.239 452.88C273.747 454.308 273.027 455.598 272.079 456.75C271.143 457.89 269.865 459.066 268.245 460.278L267.453 459.234ZM270.783 448.596C270.975 450.204 271.287 451.608 271.719 452.808C272.151 453.996 272.763 455.094 273.555 456.102C274.347 457.098 275.373 458.076 276.633 459.036L275.895 460.17C274.623 459.198 273.573 458.178 272.745 457.11C271.929 456.03 271.287 454.872 270.819 453.636C270.363 452.4 270.033 450.996 269.829 449.424L270.783 448.596ZM293.661 454.842V455.94H285.237V454.842H293.661ZM290.079 452.052V458.766H288.891V452.052H290.079ZM294.111 451.44V452.502H284.949V451.44H294.111ZM294.651 458.28V459.414H284.121V458.28H294.651ZM282.375 445.608V460.206H281.295V445.608H282.375ZM284.643 448.902V450.108H278.883V448.902H284.643ZM293.427 444.852V449.676H285.543V444.852H293.427ZM286.713 448.614H292.275V445.896H286.713V448.614ZM278.541 455.886C279.225 454.83 279.831 453.684 280.359 452.448C280.899 451.2 281.301 450.018 281.565 448.902L282.105 450.072C281.817 451.248 281.421 452.442 280.917 453.654C280.413 454.854 279.843 455.946 279.207 456.93L278.541 455.886ZM282.285 451.548C283.185 452.328 284.031 453.084 284.823 453.816L284.121 454.68C283.557 454.092 282.735 453.324 281.655 452.376L282.285 451.548ZM278.955 445.482C279.879 445.35 280.845 445.182 281.853 444.978C282.861 444.774 283.725 444.576 284.445 444.384L284.733 445.536C284.013 445.716 283.119 445.908 282.051 446.112C280.983 446.316 279.981 446.49 279.045 446.634L278.955 445.482Z" fill="#F5F5F5"/>
<defs>
<filter id="filter0_g_2024_2621" x="39.043" y="46.0781" width="332.338" height="442.567" filterUnits="userSpaceOnUse" color-interpolation-filters="sRGB">
<feFlood flood-opacity="0" result="BackgroundImageFix"/>
<feBlend mode="normal" in="SourceGraphic" in2="BackgroundImageFix" result="shape"/>
<feTurbulence type="fractalNoise" baseFrequency="0.99900001287460327 0.99900001287460327" numOctaves="3" seed="8682" />
<feDisplacementMap in="shape" scale="4" xChannelSelector="R" yChannelSelector="G" result="displacedImage" width="100%" height="100%" />
<feMerge result="effect1_texture_2024_2621">
<feMergeNode in="displacedImage"/>
</feMerge>
</filter>
</defs>
</svg>
