<svg width="40" height="40" viewBox="0 0 40 40" fill="none" xmlns="http://www.w3.org/2000/svg">
<g opacity="0.6">
<path d="M20 2.9165C12.4167 2.9165 6.25 9.1665 6.25 16.7498C6.25 27.0832 18.75 35.6665 19.3333 35.9998C19.5833 36.1665 19.75 36.2498 20 36.2498C20.25 36.2498 20.5 36.1665 20.6667 35.9998C21.1667 35.6665 33.75 27.0832 33.75 16.7498C33.75 9.1665 27.5833 2.9165 20 2.9165ZM20 33.4998C17.4167 31.5832 8.75 24.5832 8.75 16.8332C8.75 10.5832 13.8333 5.49984 20 5.49984C26.1667 5.49984 31.25 10.5832 31.25 16.8332C31.25 24.4998 22.5833 31.5832 20 33.4998Z" fill="#3E3A39"/>
<path d="M19.9997 12.0835C16.9997 12.0835 14.583 14.5002 14.583 17.5002C14.583 20.5002 16.9997 22.9168 19.9997 22.9168C22.9997 22.9168 25.4163 20.5002 25.4163 17.5002C25.4163 14.5002 22.9997 12.0835 19.9997 12.0835ZM19.9997 20.4168C18.4163 20.4168 17.083 19.0835 17.083 17.5002C17.083 15.9168 18.4163 14.5835 19.9997 14.5835C21.583 14.5835 22.9163 15.9168 22.9163 17.5002C22.9163 19.0835 21.583 20.4168 19.9997 20.4168Z" fill="#3E3A39"/>
</g>
</svg>
