<svg id="图层_2" data-name="图层 2" xmlns="http://www.w3.org/2000/svg" viewBox="0 0 200 200"><defs><style>.cls-1{fill:#231815;}</style></defs><path class="cls-1" d="M100,106a6,6,0,0,1-4.24-1.76L60.4,68.89a6,6,0,1,1,8.49-8.49l35.35,35.36A6,6,0,0,1,100,106Z"/><path class="cls-1" d="M64.64,141.36a6,6,0,0,1-4.24-10.25L131.11,60.4a6,6,0,1,1,8.49,8.49L68.89,139.6A6,6,0,0,1,64.64,141.36Z"/><path class="cls-1" d="M135.36,141.36a6,6,0,0,1-4.25-1.76l-17-17a6,6,0,1,1,8.49-8.49l17,17a6,6,0,0,1-4.24,10.25Z"/></svg>