<svg width="40" height="40" viewBox="0 0 40 40" fill="none" xmlns="http://www.w3.org/2000/svg">
<path d="M34.167 7.0835H5.83366C4.25033 7.0835 2.91699 8.41683 2.91699 10.0002V30.0002C2.91699 31.5835 4.25033 32.9168 5.83366 32.9168H34.167C35.7503 32.9168 37.0837 31.5835 37.0837 30.0002V10.0002C37.0837 8.41683 35.7503 7.0835 34.167 7.0835ZM5.83366 9.5835H34.167C34.417 9.5835 34.5837 9.75016 34.5837 10.0002V11.0002L20.0003 20.1668L5.41699 11.0002V10.0002C5.41699 9.75016 5.58366 9.5835 5.83366 9.5835ZM34.167 30.4168H5.83366C5.58366 30.4168 5.41699 30.2502 5.41699 30.0002V13.9168L19.3337 22.6668C19.5003 22.8335 19.7503 22.8335 20.0003 22.8335C20.2503 22.8335 20.5003 22.7502 20.667 22.6668L34.5837 13.9168V30.0002C34.5837 30.2502 34.417 30.4168 34.167 30.4168Z" fill="#FAFAFA"/>
</svg>
