<svg width="930" height="714" viewBox="0 0 930 714" fill="none" xmlns="http://www.w3.org/2000/svg">
<rect x="0.5" y="100.5" width="849" height="613" rx="29.5" stroke="#3E3A39" stroke-dasharray="4 4"/>
<rect x="116.5" y="0.5" width="351" height="613" rx="29.5" fill="white" stroke="#3E3A39"/>
<rect x="123.784" y="8.25" width="335.5" height="597.5" rx="26.75" fill="white" stroke="#3E3A39" stroke-width="0.5"/>
<rect x="-0.5" y="0.5" width="96.3563" height="41.4828" rx="20.7414" transform="matrix(-1 0 0 1 252.667 468.5)" stroke="#3E3A39" stroke-opacity="0.6" stroke-linejoin="round"/>
<rect x="-0.5" y="0.5" width="96.3563" height="41.4828" rx="20.7414" transform="matrix(-1 0 0 1 252.667 518.063)" stroke="#3E3A39" stroke-opacity="0.6" stroke-linejoin="round"/>
<rect x="151.5" y="463.688" width="106.977" height="101.667" rx="11.5" stroke="#3E3A39" stroke-opacity="0.2" stroke-linejoin="round"/>
<g opacity="0.4" filter="url(#filter0_g_2024_120)">
<rect x="151.5" y="41.5" width="279" height="373" rx="11.5" stroke="#3E3A39" stroke-opacity="0.6"/>
</g>
<rect x="284.5" y="488.166" width="145.667" height="53.2667" rx="26.6333" stroke="#3E3A39" stroke-opacity="0.6" stroke-linejoin="round"/>
<path d="M367.105 554.895C367.106 555.046 367.076 555.195 367.019 555.334C366.962 555.473 366.878 555.599 366.772 555.706L358.142 564.333C357.927 564.548 357.637 564.668 357.334 564.668C357.03 564.668 356.74 564.548 356.525 564.333L347.896 555.706C347.681 555.491 347.56 555.199 347.561 554.896C347.561 554.592 347.682 554.301 347.896 554.086C348.111 553.871 348.403 553.751 348.707 553.751C349.01 553.751 349.302 553.872 349.516 554.087L357.334 561.904L365.151 554.087C365.311 553.927 365.515 553.818 365.736 553.774C365.958 553.73 366.188 553.753 366.397 553.839C366.606 553.926 366.784 554.072 366.91 554.26C367.036 554.448 367.103 554.669 367.103 554.895L367.105 554.895Z" fill="#3E3A39" fill-opacity="0.2"/>
<path d="M347.562 474.703C347.561 474.553 347.591 474.404 347.648 474.265C347.705 474.126 347.789 474 347.895 473.893L356.525 465.265C356.74 465.051 357.03 464.931 357.333 464.931C357.637 464.931 357.927 465.051 358.142 465.265L366.771 473.893C366.986 474.108 367.107 474.399 367.106 474.703C367.106 475.007 366.985 475.298 366.771 475.513C366.556 475.728 366.264 475.848 365.96 475.848C365.657 475.848 365.365 475.727 365.151 475.512L357.333 467.695L349.516 475.512C349.356 475.672 349.152 475.78 348.931 475.825C348.709 475.869 348.479 475.846 348.27 475.759C348.061 475.673 347.883 475.526 347.757 475.339C347.631 475.151 347.564 474.93 347.564 474.703L347.562 474.703Z" fill="#3E3A39" fill-opacity="0.2"/>
<path d="M258.06 239.989V242.239H233.85V239.989H258.06ZM233.61 264.019C235.43 262.519 236.76 261.169 237.6 259.969C238.46 258.769 239.03 257.449 239.31 256.009C239.61 254.549 239.76 252.539 239.76 249.979V240.799H242.1V249.739C242.1 252.619 241.92 254.909 241.56 256.609C241.22 258.309 240.58 259.839 239.64 261.199C238.72 262.539 237.3 264.049 235.38 265.729L233.61 264.019ZM252.78 241.009V265.339H250.38V241.009H252.78ZM259.32 250.459V252.739H232.62V250.459H259.32ZM275.97 261.589H286.23V263.689H275.97V261.589ZM262.92 243.619H272.76V245.839C272.42 249.459 271.97 252.319 271.41 254.419C270.85 256.499 270.03 258.329 268.95 259.909C267.87 261.489 266.26 263.329 264.12 265.429L262.56 263.869C264.68 261.889 266.24 260.149 267.24 258.649C268.26 257.149 269 255.489 269.46 253.669C269.92 251.829 270.31 249.219 270.63 245.839H262.92V243.619ZM263.46 255.169C264.8 249.869 265.69 244.169 266.13 238.069L268.26 238.219C268 241.279 267.67 244.129 267.27 246.769C266.89 249.389 266.41 251.889 265.83 254.269C266.21 254.589 266.64 254.959 267.12 255.379C267.6 255.779 268.11 256.219 268.65 256.699C270.55 258.399 272.23 259.979 273.69 261.439L272.34 263.329C271.78 262.729 271.12 262.069 270.36 261.349C269.62 260.609 268.87 259.889 268.11 259.189C267.33 258.469 266.53 257.759 265.71 257.059C264.91 256.339 264.16 255.709 263.46 255.169ZM273.57 247.819C274.71 246.519 275.79 244.979 276.81 243.199C277.85 241.399 278.76 239.599 279.54 237.799L281.7 238.609C281.28 239.629 280.72 240.779 280.02 242.059C279.34 243.319 278.65 244.489 277.95 245.569C277.35 246.469 276.91 247.099 276.63 247.459L286.62 246.949L287.01 248.959L274.08 249.679L273.57 247.819ZM284.43 241.249C285.01 242.149 285.78 243.479 286.74 245.239C287.72 246.979 288.57 248.539 289.29 249.919L287.31 251.059C286.73 249.819 285.95 248.289 284.97 246.469C284.01 244.649 283.23 243.249 282.63 242.269L284.43 241.249ZM274.71 253.009H287.52V265.429H285.3V255.109H276.87V265.399H274.71V253.009ZM300.24 241.669H318.93V243.799H300.24V241.669ZM299.19 263.479C301.83 262.779 303.8 262.039 305.1 261.259C306.42 260.479 307.31 259.569 307.77 258.529C308.23 257.469 308.46 256.069 308.46 254.329V252.049C308.46 249.689 308.46 247.199 308.46 244.579C308.48 241.959 308.48 239.799 308.46 238.099H310.59V254.269C310.59 256.469 310.29 258.239 309.69 259.579C309.09 260.919 308.06 262.049 306.6 262.969C305.14 263.889 303.02 264.769 300.24 265.609L299.19 263.479ZM303.51 255.469C304.87 257.569 306.78 259.209 309.24 260.389C311.72 261.569 315.06 262.379 319.26 262.819L318.63 265.129C314.27 264.489 310.78 263.519 308.16 262.219C305.54 260.899 303.47 259.079 301.95 256.759L303.51 255.469ZM301.29 246.679H317.73V254.539H301.29V246.679ZM303.36 248.659V252.469H315.63V248.659H303.36ZM292.41 251.299C293.39 249.919 294.37 248.049 295.35 245.689C296.35 243.309 297.23 240.769 297.99 238.069L300.12 238.639C299.34 241.639 298.4 244.369 297.3 246.829C296.2 249.269 294.88 251.599 293.34 253.819L292.41 251.299ZM295.89 245.569L297.99 244.489V265.519H295.89V245.569ZM335.22 240.619H337.53V264.859H335.22V240.619ZM322.71 264.469C323.55 263.089 324.16 261.899 324.54 260.899C324.92 259.879 325.18 258.729 325.32 257.449C325.46 256.149 325.53 254.319 325.53 251.959V239.779H347.4V261.649C347.4 262.529 347.28 263.209 347.04 263.689C346.8 264.189 346.41 264.539 345.87 264.739C345.35 264.939 344.61 265.039 343.65 265.039H340.59L340.23 262.729H342.96C343.58 262.729 344.03 262.689 344.31 262.609C344.61 262.509 344.81 262.329 344.91 262.069C345.01 261.809 345.06 261.409 345.06 260.869V242.029H327.84V252.769C327.84 254.829 327.75 256.559 327.57 257.959C327.39 259.339 327.09 260.619 326.67 261.799C326.25 262.959 325.64 264.219 324.84 265.579L322.71 264.469ZM326.64 254.449H345.81V256.699H326.64V254.449ZM326.64 247.249H345.75V249.499H326.64V247.249Z" fill="#3E3A39"/>
<path d="M231.022 212.269V168.109H234.502V212.269H231.022ZM205.042 190.969V187.729H231.742V190.969H205.042ZM205.762 168.109V212.269H202.282V168.109H205.762ZM247.598 208.969H271.418V212.269H244.118V168.109H270.638V171.409H247.598V187.609H269.378V190.849H247.598V208.969ZM281.993 208.969H305.393V212.269H278.513V168.109H281.993V208.969ZM314.864 208.969H338.264V212.269H311.384V168.109H314.864V208.969ZM360.559 213.109C356.639 213.109 353.199 212.169 350.239 210.289C347.279 208.409 344.979 205.749 343.339 202.309C341.739 198.829 340.939 194.789 340.939 190.189C340.939 185.549 341.739 181.509 343.339 178.069C344.979 174.589 347.279 171.929 350.239 170.089C353.199 168.209 356.639 167.269 360.559 167.269C364.479 167.269 367.919 168.209 370.879 170.089C373.839 171.929 376.139 174.589 377.779 178.069C379.419 181.509 380.239 185.549 380.239 190.189C380.239 194.789 379.419 198.829 377.779 202.309C376.139 205.749 373.839 208.409 370.879 210.289C367.919 212.169 364.479 213.109 360.559 213.109ZM360.559 209.809C363.759 209.809 366.559 209.009 368.959 207.409C371.399 205.809 373.299 203.529 374.659 200.569C376.019 197.609 376.699 194.149 376.699 190.189C376.699 186.189 376.019 182.729 374.659 179.809C373.299 176.849 371.399 174.569 368.959 172.969C366.559 171.369 363.759 170.569 360.559 170.569C357.359 170.569 354.539 171.369 352.099 172.969C349.699 174.569 347.819 176.849 346.459 179.809C345.139 182.729 344.479 186.189 344.479 190.189C344.479 194.149 345.139 197.609 346.459 200.569C347.819 203.529 349.699 205.809 352.099 207.409C354.539 209.009 357.359 209.809 360.559 209.809Z" fill="#3E3A39"/>
<path opacity="0.6" d="M222.96 303.339H224.055V314.424H222.96V303.339ZM218.385 302.724H228.63V309.129H218.385V302.724ZM219.495 303.744V308.109H227.52V303.744H219.495ZM216.975 310.749H230.025V311.829H216.975V310.749ZM219.78 301.059L220.62 300.459L222.255 302.379L221.325 302.964L219.78 301.059ZM219.015 305.424H228V306.429H219.015V305.424ZM224.265 303.054C224.565 302.714 224.92 302.289 225.33 301.779C225.74 301.269 226.07 300.839 226.32 300.489L227.31 300.984C227.08 301.304 226.78 301.699 226.41 302.169C226.04 302.629 225.7 303.044 225.39 303.414L224.265 303.054ZM232.125 303.504H236.235V304.599H232.125V303.504ZM232.8 313.074C233.05 313.074 233.24 313.054 233.37 313.014C233.5 312.974 233.59 312.904 233.64 312.804C233.69 312.694 233.715 312.529 233.715 312.309V300.879H234.78V312.699C234.78 313.109 234.725 313.419 234.615 313.629C234.515 313.839 234.345 313.984 234.105 314.064C233.875 314.144 233.55 314.184 233.13 314.184H232.185L231.96 313.074H232.8ZM231.795 308.214C231.915 308.164 232.035 308.119 232.155 308.079C232.285 308.029 232.42 307.974 232.56 307.914C233.98 307.384 235.09 306.939 235.89 306.579L236.07 307.704C235.64 307.884 235.06 308.114 234.33 308.394C232.83 308.994 232.08 309.294 232.08 309.294L231.795 308.214ZM240.78 300.624C240.87 300.824 240.98 301.089 241.11 301.419C241.25 301.739 241.38 302.059 241.5 302.379C241.53 302.449 241.555 302.514 241.575 302.574C241.595 302.634 241.615 302.684 241.635 302.724L240.45 302.949C240.41 302.859 240.365 302.754 240.315 302.634C240.265 302.504 240.21 302.364 240.15 302.214C240.06 301.964 239.97 301.724 239.88 301.494C239.79 301.264 239.71 301.074 239.64 300.924L240.78 300.624ZM236.745 302.469H244.695V305.169H243.615V303.519H237.795V305.169H236.745V302.469ZM236.43 306.609H245.055V307.674H236.43V306.609ZM237.075 309.984L237.105 309.924C237.545 309.024 237.96 308.074 238.35 307.074C238.74 306.064 239.04 305.144 239.25 304.314L240.39 304.584C240.17 305.334 239.885 306.154 239.535 307.044C239.185 307.924 238.825 308.759 238.455 309.549C239.305 309.969 240.31 310.519 241.47 311.199C242.64 311.879 243.795 312.584 244.935 313.314L244.29 314.364C243.11 313.564 241.865 312.769 240.555 311.979C239.255 311.179 238.095 310.514 237.075 309.984ZM235.65 313.374C237.17 312.924 238.38 312.434 239.28 311.904C240.18 311.374 240.875 310.739 241.365 309.999C241.855 309.249 242.215 308.294 242.445 307.134L243.525 307.419C243.265 308.719 242.865 309.789 242.325 310.629C241.795 311.459 241.045 312.174 240.075 312.774C239.105 313.374 237.795 313.949 236.145 314.499L235.65 313.374ZM253.5 312.969C252.52 312.969 251.61 312.729 250.77 312.249C249.94 311.759 249.28 311.099 248.79 310.269C248.31 309.429 248.07 308.519 248.07 307.539C248.07 306.559 248.31 305.654 248.79 304.824C249.28 303.984 249.94 303.324 250.77 302.844C251.61 302.354 252.52 302.109 253.5 302.109C254.48 302.109 255.385 302.354 256.215 302.844C257.055 303.324 257.715 303.984 258.195 304.824C258.685 305.654 258.93 306.559 258.93 307.539C258.93 308.519 258.685 309.429 258.195 310.269C257.715 311.099 257.055 311.759 256.215 312.249C255.385 312.729 254.48 312.969 253.5 312.969ZM253.5 312.384C254.37 312.384 255.175 312.169 255.915 311.739C256.655 311.299 257.24 310.709 257.67 309.969C258.1 309.229 258.315 308.419 258.315 307.539C258.315 306.659 258.1 305.849 257.67 305.109C257.24 304.369 256.655 303.784 255.915 303.354C255.175 302.914 254.37 302.694 253.5 302.694C252.63 302.694 251.825 302.914 251.085 303.354C250.345 303.784 249.76 304.369 249.33 305.109C248.9 305.849 248.685 306.659 248.685 307.539C248.685 308.419 248.9 309.229 249.33 309.969C249.76 310.709 250.345 311.299 251.085 311.739C251.825 312.169 252.63 312.384 253.5 312.384ZM262.92 302.649H265.635V303.609H262.92V302.649ZM261.84 308.199H265.53V309.159H261.84V308.199ZM261.645 305.004C261.975 304.414 262.295 303.719 262.605 302.919C262.925 302.109 263.18 301.329 263.37 300.579L264.3 300.789C264.08 301.639 263.8 302.494 263.46 303.354C263.12 304.204 262.72 305.039 262.26 305.859L261.645 305.004ZM262.41 305.244H265.305V306.204H262.41V305.244ZM268.8 304.089H275.115V304.959H268.8V304.089ZM268.65 310.284H274.905V311.154H268.65V310.284ZM269.13 308.244H274.515V309.099H269.13V308.244ZM271.035 300.684H271.965V312.489H271.035V300.684ZM262.74 313.119C262.89 312.999 262.995 312.889 263.055 312.789C263.125 312.679 263.16 312.544 263.16 312.384V305.574H264.09V312.309L265.545 311.184L265.755 312.249L263.325 314.034L262.74 313.119ZM266.505 308.049C266.745 309.069 267.04 309.929 267.39 310.629C267.75 311.319 268.225 311.859 268.815 312.249C269.405 312.639 270.14 312.834 271.02 312.834H275.13L274.95 313.824H270.93C270.05 313.824 269.28 313.659 268.62 313.329C267.96 312.999 267.385 312.434 266.895 311.634C266.405 310.834 266.01 309.739 265.71 308.349L266.505 308.049ZM265.02 313.644C265.89 312.654 266.53 311.644 266.94 310.614C267.35 309.584 267.6 308.359 267.69 306.939H265.905V305.964L267.675 302.739H266.01V301.749H268.695V302.754L266.97 305.964H268.635V306.969C268.515 308.089 268.35 309.049 268.14 309.849C267.94 310.649 267.66 311.404 267.3 312.114C266.94 312.824 266.45 313.579 265.83 314.379L265.02 313.644ZM269.22 306.189H273.39V302.859H269.235V301.989H274.29V307.044H269.22V306.189ZM290.07 302.529V303.564H276.855V302.529H290.07ZM280.77 300.729C280.83 300.809 280.905 300.914 280.995 301.044C281.085 301.164 281.19 301.304 281.31 301.464C281.49 301.714 281.66 301.949 281.82 302.169C281.99 302.389 282.12 302.564 282.21 302.694L280.935 302.934C280.905 302.864 280.69 302.559 280.29 302.019C280.15 301.809 280.015 301.624 279.885 301.464C279.765 301.294 279.67 301.164 279.6 301.074L280.77 300.729ZM282.54 307.599V308.604H278.64V307.599H282.54ZM282.54 310.119V311.124H278.655V310.119H282.54ZM285.885 305.259V311.694H284.865V305.259H285.885ZM284.55 302.934C284.62 302.844 284.69 302.754 284.76 302.664C284.83 302.574 284.9 302.479 284.97 302.379C285.59 301.589 286.015 301.014 286.245 300.654L287.355 301.029C287.125 301.369 286.83 301.779 286.47 302.259C286.11 302.729 285.81 303.104 285.57 303.384L284.55 302.934ZM286.65 313.074C286.97 313.074 287.205 313.049 287.355 312.999C287.505 312.949 287.605 312.864 287.655 312.744C287.705 312.614 287.73 312.414 287.73 312.144V304.644H288.81V312.429C288.81 312.879 288.755 313.224 288.645 313.464C288.545 313.714 288.36 313.889 288.09 313.989C287.82 314.099 287.43 314.154 286.92 314.154H285.195L284.985 313.074H286.65ZM283.245 312.639C283.245 313.039 283.195 313.349 283.095 313.569C282.995 313.799 282.83 313.959 282.6 314.049C282.37 314.149 282.05 314.199 281.64 314.199H280.41L280.185 313.134H281.28C281.54 313.134 281.73 313.114 281.85 313.074C281.98 313.024 282.065 312.944 282.105 312.834C282.155 312.724 282.18 312.559 282.18 312.339V306.084H279.03V314.274H277.95V305.034H283.245V312.639ZM293.79 307.374L294.885 306.849V314.394H293.79V307.374ZM295.875 312.579H305.1V313.674H295.875V312.579ZM296.445 303.369H304.77V304.479H296.445V303.369ZM296.67 307.689H304.305V308.829H296.67V307.689ZM300 303.924H301.185V313.119H300V303.924ZM291.795 309.129C292.365 308.619 292.98 307.939 293.64 307.089C294.31 306.229 294.85 305.419 295.26 304.659L296.16 305.274C295.69 306.124 295.085 307.029 294.345 307.989C293.605 308.949 292.91 309.719 292.26 310.299L291.795 309.129ZM291.975 304.599C292.545 304.099 293.165 303.474 293.835 302.724C294.505 301.974 295.01 301.329 295.35 300.789L296.28 301.509C295.89 302.089 295.325 302.779 294.585 303.579C293.855 304.379 293.165 305.059 292.515 305.619L291.975 304.599ZM299.295 300.954L300.33 300.489L301.515 302.739L300.465 303.264L299.295 300.954ZM310.62 302.529H319.965V303.594H310.62V302.529ZM310.095 313.434C311.415 313.084 312.4 312.714 313.05 312.324C313.71 311.934 314.155 311.479 314.385 310.959C314.615 310.429 314.73 309.729 314.73 308.859V307.719C314.73 306.539 314.73 305.294 314.73 303.984C314.74 302.674 314.74 301.594 314.73 300.744H315.795V308.829C315.795 309.929 315.645 310.814 315.345 311.484C315.045 312.154 314.53 312.719 313.8 313.179C313.07 313.639 312.01 314.079 310.62 314.499L310.095 313.434ZM312.255 309.429C312.935 310.479 313.89 311.299 315.12 311.889C316.36 312.479 318.03 312.884 320.13 313.104L319.815 314.259C317.635 313.939 315.89 313.454 314.58 312.804C313.27 312.144 312.235 311.234 311.475 310.074L312.255 309.429ZM311.145 305.034H319.365V308.964H311.145V305.034ZM312.18 306.024V307.929H318.315V306.024H312.18ZM306.705 307.344C307.195 306.654 307.685 305.719 308.175 304.539C308.675 303.349 309.115 302.079 309.495 300.729L310.56 301.014C310.17 302.514 309.7 303.879 309.15 305.109C308.6 306.329 307.94 307.494 307.17 308.604L306.705 307.344ZM308.445 304.479L309.495 303.939V314.454H308.445V304.479ZM328.11 302.004H329.265V314.124H328.11V302.004ZM321.855 313.929C322.275 313.239 322.58 312.644 322.77 312.144C322.96 311.634 323.09 311.059 323.16 310.419C323.23 309.769 323.265 308.854 323.265 307.674V301.584H334.2V312.519C334.2 312.959 334.14 313.299 334.02 313.539C333.9 313.789 333.705 313.964 333.435 314.064C333.175 314.164 332.805 314.214 332.325 314.214H330.795L330.615 313.059H331.98C332.29 313.059 332.515 313.039 332.655 312.999C332.805 312.949 332.905 312.859 332.955 312.729C333.005 312.599 333.03 312.399 333.03 312.129V302.709H324.42V308.079C324.42 309.109 324.375 309.974 324.285 310.674C324.195 311.364 324.045 312.004 323.835 312.594C323.625 313.174 323.32 313.804 322.92 314.484L321.855 313.929ZM323.82 308.919H333.405V310.044H323.82V308.919ZM323.82 305.319H333.375V306.444H323.82V305.319ZM339.39 300.699H340.425V305.559H339.39V300.699ZM337.56 302.529H342.06V303.444H337.56V302.529ZM336.99 305.094H343.515V306.054H336.99V305.094ZM336.81 309.234C338.26 308.204 339.515 307.084 340.575 305.874C341.635 304.664 342.53 303.329 343.26 301.869L344.115 302.334C343.335 303.904 342.415 305.279 341.355 306.459C340.305 307.629 338.975 308.819 337.365 310.029L336.81 309.234ZM337.35 307.344H343.005V308.244L341.1 309.894V312.819C341.1 313.209 341.055 313.504 340.965 313.704C340.875 313.904 340.72 314.044 340.5 314.124C340.28 314.214 339.955 314.259 339.525 314.259H338.055L337.86 313.209H339.09C339.38 313.209 339.59 313.189 339.72 313.149C339.86 313.109 339.95 313.034 339.99 312.924C340.04 312.804 340.065 312.624 340.065 312.384V309.609L341.64 308.259H337.35V307.344ZM336.99 310.689L343.56 309.849L343.575 310.509L343.59 310.884L337.08 311.724L336.99 310.689ZM343.185 306.864C343.675 306.134 344.155 305.164 344.625 303.954C345.095 302.744 345.42 301.659 345.6 300.699L346.695 300.819C346.395 302.149 346.005 303.414 345.525 304.614C345.045 305.814 344.49 306.854 343.86 307.734L343.185 306.864ZM345.6 303.189H350.04V304.254H345.285L345.6 303.189ZM342.48 313.509C343.78 312.599 344.8 311.714 345.54 310.854C346.28 309.984 346.84 309.004 347.22 307.914C347.61 306.824 347.895 305.454 348.075 303.804L349.095 303.819C348.905 305.579 348.6 307.059 348.18 308.259C347.77 309.459 347.175 310.544 346.395 311.514C345.615 312.484 344.555 313.474 343.215 314.484L342.48 313.509ZM345.33 304.674C345.49 305.994 345.745 307.149 346.095 308.139C346.455 309.129 346.96 310.044 347.61 310.884C348.26 311.714 349.105 312.529 350.145 313.329L349.455 314.394C348.405 313.584 347.54 312.729 346.86 311.829C346.18 310.929 345.65 309.964 345.27 308.934C344.89 307.904 344.615 306.744 344.445 305.454L345.33 304.674ZM364.35 309.864V310.869H357.24V309.864H364.35ZM361.38 307.584V313.179H360.27V307.584H361.38ZM364.725 307.014V308.004H357.015V307.014H364.725ZM365.16 312.729V313.794H356.34V312.729H365.16ZM354.945 302.229V314.409H353.94V302.229H354.945ZM356.775 304.914V306.039H351.975V304.914H356.775ZM364.14 301.539V305.634H357.51V301.539H364.14ZM358.59 304.644H363.06V302.514H358.59V304.644ZM351.645 310.734C352.225 309.864 352.74 308.904 353.19 307.854C353.64 306.804 353.975 305.814 354.195 304.884L354.69 306.009C354.45 306.979 354.115 307.974 353.685 308.994C353.265 310.004 352.79 310.909 352.26 311.709L351.645 310.734ZM354.87 307.209C355.58 307.799 356.285 308.409 356.985 309.039L356.34 309.849C355.9 309.409 355.215 308.784 354.285 307.974L354.87 307.209ZM352.035 302.034C352.805 301.924 353.61 301.794 354.45 301.644C355.29 301.484 356.01 301.329 356.61 301.179L356.865 302.244C356.275 302.384 355.535 302.534 354.645 302.694C353.755 302.854 352.915 302.989 352.125 303.099L352.035 302.034Z" fill="#3E3A39"/>
<rect x="232" y="18" width="120" height="15" rx="7.5" fill="#D9D9D9"/>
<rect x="578.5" y="0.5" width="351" height="613" rx="29.5" fill="white" stroke="#3E3A39"/>
<g clip-path="url(#clip0_2024_120)">
<path d="M781.783 273H726.286C706.246 273 690 287.752 690 307C690 326.248 706.246 341 726.286 341H764.706C797.861 341 779.589 308.279 815.952 307.036C816.238 307.024 816.519 306.955 816.778 306.833C817.037 306.711 817.268 306.538 817.459 306.325C817.649 306.112 817.795 305.863 817.887 305.593C817.979 305.323 818.015 305.037 817.994 304.752C816.79 286.553 801.038 273 781.783 273Z" fill="url(#paint0_linear_2024_120)"/>
<path d="M781.783 273H726.286C706.246 273 690 287.752 690 307C690 326.248 706.246 341 726.286 341H764.706C797.861 341 779.589 308.279 815.952 307.036C816.238 307.024 816.519 306.955 816.778 306.833C817.037 306.711 817.268 306.538 817.459 306.325C817.649 306.112 817.795 305.863 817.887 305.593C817.979 305.323 818.015 305.037 817.994 304.752C816.79 286.553 801.038 273 781.783 273ZM816.807 305.774C816.696 305.899 816.56 305.999 816.408 306.07C816.256 306.141 816.091 306.18 815.924 306.186C796.887 306.836 792.434 315.857 788.128 324.58C784.174 332.587 780.44 340.15 764.706 340.15H726.286C706.418 340.15 690.853 325.589 690.853 307C690.853 288.411 706.418 273.85 726.286 273.85H781.783C800.772 273.85 815.975 287.159 817.143 304.809C817.156 304.984 817.133 305.16 817.075 305.326C817.017 305.492 816.926 305.644 816.807 305.774Z" fill="url(#paint1_radial_2024_120)"/>
<path d="M806.268 332.5C809.213 332.5 811.6 330.122 811.6 327.189C811.6 324.255 809.213 321.877 806.268 321.877C803.323 321.877 800.936 324.255 800.936 327.189C800.936 330.122 803.323 332.5 806.268 332.5Z" fill="#0091FF"/>
<path d="M781.783 273H726.286C706.246 273 690 287.752 690 307C690 326.248 706.246 341 726.286 341H764.706C797.861 341 779.589 308.279 815.952 307.036C816.238 307.024 816.519 306.955 816.778 306.833C817.037 306.711 817.268 306.538 817.459 306.325C817.649 306.112 817.795 305.863 817.887 305.593C817.979 305.323 818.015 305.037 817.994 304.752C816.79 286.553 801.038 273 781.783 273ZM816.807 305.774C816.696 305.899 816.56 305.999 816.408 306.07C816.256 306.141 816.091 306.18 815.924 306.186C796.887 306.836 792.434 315.857 788.128 324.58C784.174 332.587 780.44 340.15 764.706 340.15H726.286C706.418 340.15 690.853 325.589 690.853 307C690.853 288.411 706.418 273.85 726.286 273.85H781.783C800.772 273.85 815.975 287.159 817.143 304.809C817.156 304.984 817.133 305.16 817.075 305.326C817.017 305.492 816.926 305.644 816.807 305.774Z" fill="url(#paint2_radial_2024_120)"/>
</g>
<defs>
<filter id="filter0_g_2024_120" x="149" y="39" width="284" height="378" filterUnits="userSpaceOnUse" color-interpolation-filters="sRGB">
<feFlood flood-opacity="0" result="BackgroundImageFix"/>
<feBlend mode="normal" in="SourceGraphic" in2="BackgroundImageFix" result="shape"/>
<feTurbulence type="fractalNoise" baseFrequency="0.99900001287460327 0.99900001287460327" numOctaves="3" seed="8682" />
<feDisplacementMap in="shape" scale="4" xChannelSelector="R" yChannelSelector="G" result="displacedImage" width="100%" height="100%" />
<feMerge result="effect1_texture_2024_120">
<feMergeNode in="displacedImage"/>
</feMerge>
</filter>
<linearGradient id="paint0_linear_2024_120" x1="692.784" y1="323.996" x2="812.339" y2="284.999" gradientUnits="userSpaceOnUse">
<stop offset="0.2" stop-color="#0086FF"/>
<stop offset="1" stop-color="#0086FF" stop-opacity="0.2"/>
</linearGradient>
<radialGradient id="paint1_radial_2024_120" cx="0" cy="0" r="1" gradientUnits="userSpaceOnUse" gradientTransform="translate(790.31 313.568) scale(51.2664 51.0661)">
<stop offset="0.1" stop-color="#0086FF"/>
<stop offset="0.6" stop-color="#0091FF" stop-opacity="0.2"/>
</radialGradient>
<radialGradient id="paint2_radial_2024_120" cx="0" cy="0" r="1" gradientUnits="userSpaceOnUse" gradientTransform="translate(790.31 313.568) scale(51.2664 51.0661)">
<stop offset="0.1" stop-color="#0086FF"/>
<stop offset="0.6" stop-color="#0091FF" stop-opacity="0.2"/>
</radialGradient>
<clipPath id="clip0_2024_120">
<rect width="128" height="68" fill="white" transform="translate(690 273)"/>
</clipPath>
</defs>
</svg>
