<svg width="882" height="625" viewBox="0 0 882 625" fill="none" xmlns="http://www.w3.org/2000/svg">
<rect x="1" y="71.224" width="809.038" height="551.88" rx="20" stroke="#3E3A39" stroke-opacity="0.6" stroke-width="2" stroke-dasharray="4 4"/>
<rect x="71.2236" y="1" width="344.175" height="553.858" rx="20" fill="white" stroke="#3E3A39" stroke-width="2"/>
<rect x="-1" y="1" width="344.175" height="551.88" rx="20" transform="matrix(-1 0 0 1 879.262 0)" fill="white" stroke="#3E3A39" stroke-width="2"/>
<g opacity="0.4" filter="url(#filter0_ig_748_69)">
<rect x="98.418" y="31.1612" width="289.787" height="432.213" rx="20.5" stroke="#3E3A39" stroke-opacity="0.6"/>
</g>
<path d="M209.191 239.989V242.239H184.981V239.989H209.191ZM184.741 264.019C186.561 262.519 187.891 261.169 188.731 259.969C189.591 258.769 190.161 257.449 190.441 256.009C190.741 254.549 190.891 252.539 190.891 249.979V240.799H193.231V249.739C193.231 252.619 193.051 254.909 192.691 256.609C192.351 258.309 191.711 259.839 190.771 261.199C189.851 262.539 188.431 264.049 186.511 265.729L184.741 264.019ZM203.911 241.009V265.339H201.511V241.009H203.911ZM210.451 250.459V252.739H183.751V250.459H210.451ZM227.101 261.589H237.361V263.689H227.101V261.589ZM214.051 243.619H223.891V245.839C223.551 249.459 223.101 252.319 222.541 254.419C221.981 256.499 221.161 258.329 220.081 259.909C219.001 261.489 217.391 263.329 215.251 265.429L213.691 263.869C215.811 261.889 217.371 260.149 218.371 258.649C219.391 257.149 220.131 255.489 220.591 253.669C221.051 251.829 221.441 249.219 221.761 245.839H214.051V243.619ZM214.591 255.169C215.931 249.869 216.821 244.169 217.261 238.069L219.391 238.219C219.131 241.279 218.801 244.129 218.401 246.769C218.021 249.389 217.541 251.889 216.961 254.269C217.341 254.589 217.771 254.959 218.251 255.379C218.731 255.779 219.241 256.219 219.781 256.699C221.681 258.399 223.361 259.979 224.821 261.439L223.471 263.329C222.911 262.729 222.251 262.069 221.491 261.349C220.751 260.609 220.001 259.889 219.241 259.189C218.461 258.469 217.661 257.759 216.841 257.059C216.041 256.339 215.291 255.709 214.591 255.169ZM224.701 247.819C225.841 246.519 226.921 244.979 227.941 243.199C228.981 241.399 229.891 239.599 230.671 237.799L232.831 238.609C232.411 239.629 231.851 240.779 231.151 242.059C230.471 243.319 229.781 244.489 229.081 245.569C228.481 246.469 228.041 247.099 227.761 247.459L237.751 246.949L238.141 248.959L225.211 249.679L224.701 247.819ZM235.561 241.249C236.141 242.149 236.911 243.479 237.871 245.239C238.851 246.979 239.701 248.539 240.421 249.919L238.441 251.059C237.861 249.819 237.081 248.289 236.101 246.469C235.141 244.649 234.361 243.249 233.761 242.269L235.561 241.249ZM225.841 253.009H238.651V265.429H236.431V255.109H228.001V265.399H225.841V253.009ZM251.371 241.669H270.061V243.799H251.371V241.669ZM250.321 263.479C252.961 262.779 254.931 262.039 256.231 261.259C257.551 260.479 258.441 259.569 258.901 258.529C259.361 257.469 259.591 256.069 259.591 254.329V252.049C259.591 249.689 259.591 247.199 259.591 244.579C259.611 241.959 259.611 239.799 259.591 238.099H261.721V254.269C261.721 256.469 261.421 258.239 260.821 259.579C260.221 260.919 259.191 262.049 257.731 262.969C256.271 263.889 254.151 264.769 251.371 265.609L250.321 263.479ZM254.641 255.469C256.001 257.569 257.911 259.209 260.371 260.389C262.851 261.569 266.191 262.379 270.391 262.819L269.761 265.129C265.401 264.489 261.911 263.519 259.291 262.219C256.671 260.899 254.601 259.079 253.081 256.759L254.641 255.469ZM252.421 246.679H268.861V254.539H252.421V246.679ZM254.491 248.659V252.469H266.761V248.659H254.491ZM243.541 251.299C244.521 249.919 245.501 248.049 246.481 245.689C247.481 243.309 248.361 240.769 249.121 238.069L251.251 238.639C250.471 241.639 249.531 244.369 248.431 246.829C247.331 249.269 246.011 251.599 244.471 253.819L243.541 251.299ZM247.021 245.569L249.121 244.489V265.519H247.021V245.569ZM286.351 240.619H288.661V264.859H286.351V240.619ZM273.841 264.469C274.681 263.089 275.291 261.899 275.671 260.899C276.051 259.879 276.311 258.729 276.451 257.449C276.591 256.149 276.661 254.319 276.661 251.959V239.779H298.531V261.649C298.531 262.529 298.411 263.209 298.171 263.689C297.931 264.189 297.541 264.539 297.001 264.739C296.481 264.939 295.741 265.039 294.781 265.039H291.721L291.361 262.729H294.091C294.711 262.729 295.161 262.689 295.441 262.609C295.741 262.509 295.941 262.329 296.041 262.069C296.141 261.809 296.191 261.409 296.191 260.869V242.029H278.971V252.769C278.971 254.829 278.881 256.559 278.701 257.959C278.521 259.339 278.221 260.619 277.801 261.799C277.381 262.959 276.771 264.219 275.971 265.579L273.841 264.469ZM277.771 254.449H296.941V256.699H277.771V254.449ZM277.771 247.249H296.881V249.499H277.771V247.249Z" fill="#3E3A39"/>
<path d="M183.153 212.269V168.109H186.633V212.269H183.153ZM157.173 190.969V187.729H183.873V190.969H157.173ZM157.893 168.109V212.269H154.413V168.109H157.893ZM199.729 208.969H223.549V212.269H196.249V168.109H222.769V171.409H199.729V187.609H221.509V190.849H199.729V208.969ZM234.124 208.969H257.524V212.269H230.644V168.109H234.124V208.969ZM266.995 208.969H290.395V212.269H263.515V168.109H266.995V208.969ZM312.69 213.109C308.77 213.109 305.33 212.169 302.37 210.289C299.41 208.409 297.11 205.749 295.47 202.309C293.87 198.829 293.07 194.789 293.07 190.189C293.07 185.549 293.87 181.509 295.47 178.069C297.11 174.589 299.41 171.929 302.37 170.089C305.33 168.209 308.77 167.269 312.69 167.269C316.61 167.269 320.05 168.209 323.01 170.089C325.97 171.929 328.27 174.589 329.91 178.069C331.55 181.509 332.37 185.549 332.37 190.189C332.37 194.789 331.55 198.829 329.91 202.309C328.27 205.749 325.97 208.409 323.01 210.289C320.05 212.169 316.61 213.109 312.69 213.109ZM312.69 209.809C315.89 209.809 318.69 209.009 321.09 207.409C323.53 205.809 325.43 203.529 326.79 200.569C328.15 197.609 328.83 194.149 328.83 190.189C328.83 186.189 328.15 182.729 326.79 179.809C325.43 176.849 323.53 174.569 321.09 172.969C318.69 171.369 315.89 170.569 312.69 170.569C309.49 170.569 306.67 171.369 304.23 172.969C301.83 174.569 299.95 176.849 298.59 179.809C297.27 182.729 296.61 186.189 296.61 190.189C296.61 194.149 297.27 197.609 298.59 200.569C299.95 203.529 301.83 205.809 304.23 207.409C306.67 209.009 309.49 209.809 312.69 209.809Z" fill="#3E3A39"/>
<path opacity="0.6" d="M175.091 303.339H176.186V314.424H175.091V303.339ZM170.516 302.724H180.761V309.129H170.516V302.724ZM171.626 303.744V308.109H179.651V303.744H171.626ZM169.106 310.749H182.156V311.829H169.106V310.749ZM171.911 301.059L172.751 300.459L174.386 302.379L173.456 302.964L171.911 301.059ZM171.146 305.424H180.131V306.429H171.146V305.424ZM176.396 303.054C176.696 302.714 177.051 302.289 177.461 301.779C177.871 301.269 178.201 300.839 178.451 300.489L179.441 300.984C179.211 301.304 178.911 301.699 178.541 302.169C178.171 302.629 177.831 303.044 177.521 303.414L176.396 303.054ZM184.256 303.504H188.366V304.599H184.256V303.504ZM184.931 313.074C185.181 313.074 185.371 313.054 185.501 313.014C185.631 312.974 185.721 312.904 185.771 312.804C185.821 312.694 185.846 312.529 185.846 312.309V300.879H186.911V312.699C186.911 313.109 186.856 313.419 186.746 313.629C186.646 313.839 186.476 313.984 186.236 314.064C186.006 314.144 185.681 314.184 185.261 314.184H184.316L184.091 313.074H184.931ZM183.926 308.214C184.046 308.164 184.166 308.119 184.286 308.079C184.416 308.029 184.551 307.974 184.691 307.914C186.111 307.384 187.221 306.939 188.021 306.579L188.201 307.704C187.771 307.884 187.191 308.114 186.461 308.394C184.961 308.994 184.211 309.294 184.211 309.294L183.926 308.214ZM192.911 300.624C193.001 300.824 193.111 301.089 193.241 301.419C193.381 301.739 193.511 302.059 193.631 302.379C193.661 302.449 193.686 302.514 193.706 302.574C193.726 302.634 193.746 302.684 193.766 302.724L192.581 302.949C192.541 302.859 192.496 302.754 192.446 302.634C192.396 302.504 192.341 302.364 192.281 302.214C192.191 301.964 192.101 301.724 192.011 301.494C191.921 301.264 191.841 301.074 191.771 300.924L192.911 300.624ZM188.876 302.469H196.826V305.169H195.746V303.519H189.926V305.169H188.876V302.469ZM188.561 306.609H197.186V307.674H188.561V306.609ZM189.206 309.984L189.236 309.924C189.676 309.024 190.091 308.074 190.481 307.074C190.871 306.064 191.171 305.144 191.381 304.314L192.521 304.584C192.301 305.334 192.016 306.154 191.666 307.044C191.316 307.924 190.956 308.759 190.586 309.549C191.436 309.969 192.441 310.519 193.601 311.199C194.771 311.879 195.926 312.584 197.066 313.314L196.421 314.364C195.241 313.564 193.996 312.769 192.686 311.979C191.386 311.179 190.226 310.514 189.206 309.984ZM187.781 313.374C189.301 312.924 190.511 312.434 191.411 311.904C192.311 311.374 193.006 310.739 193.496 309.999C193.986 309.249 194.346 308.294 194.576 307.134L195.656 307.419C195.396 308.719 194.996 309.789 194.456 310.629C193.926 311.459 193.176 312.174 192.206 312.774C191.236 313.374 189.926 313.949 188.276 314.499L187.781 313.374ZM205.631 312.969C204.651 312.969 203.741 312.729 202.901 312.249C202.071 311.759 201.411 311.099 200.921 310.269C200.441 309.429 200.201 308.519 200.201 307.539C200.201 306.559 200.441 305.654 200.921 304.824C201.411 303.984 202.071 303.324 202.901 302.844C203.741 302.354 204.651 302.109 205.631 302.109C206.611 302.109 207.516 302.354 208.346 302.844C209.186 303.324 209.846 303.984 210.326 304.824C210.816 305.654 211.061 306.559 211.061 307.539C211.061 308.519 210.816 309.429 210.326 310.269C209.846 311.099 209.186 311.759 208.346 312.249C207.516 312.729 206.611 312.969 205.631 312.969ZM205.631 312.384C206.501 312.384 207.306 312.169 208.046 311.739C208.786 311.299 209.371 310.709 209.801 309.969C210.231 309.229 210.446 308.419 210.446 307.539C210.446 306.659 210.231 305.849 209.801 305.109C209.371 304.369 208.786 303.784 208.046 303.354C207.306 302.914 206.501 302.694 205.631 302.694C204.761 302.694 203.956 302.914 203.216 303.354C202.476 303.784 201.891 304.369 201.461 305.109C201.031 305.849 200.816 306.659 200.816 307.539C200.816 308.419 201.031 309.229 201.461 309.969C201.891 310.709 202.476 311.299 203.216 311.739C203.956 312.169 204.761 312.384 205.631 312.384ZM215.051 302.649H217.766V303.609H215.051V302.649ZM213.971 308.199H217.661V309.159H213.971V308.199ZM213.776 305.004C214.106 304.414 214.426 303.719 214.736 302.919C215.056 302.109 215.311 301.329 215.501 300.579L216.431 300.789C216.211 301.639 215.931 302.494 215.591 303.354C215.251 304.204 214.851 305.039 214.391 305.859L213.776 305.004ZM214.541 305.244H217.436V306.204H214.541V305.244ZM220.931 304.089H227.246V304.959H220.931V304.089ZM220.781 310.284H227.036V311.154H220.781V310.284ZM221.261 308.244H226.646V309.099H221.261V308.244ZM223.166 300.684H224.096V312.489H223.166V300.684ZM214.871 313.119C215.021 312.999 215.126 312.889 215.186 312.789C215.256 312.679 215.291 312.544 215.291 312.384V305.574H216.221V312.309L217.676 311.184L217.886 312.249L215.456 314.034L214.871 313.119ZM218.636 308.049C218.876 309.069 219.171 309.929 219.521 310.629C219.881 311.319 220.356 311.859 220.946 312.249C221.536 312.639 222.271 312.834 223.151 312.834H227.261L227.081 313.824H223.061C222.181 313.824 221.411 313.659 220.751 313.329C220.091 312.999 219.516 312.434 219.026 311.634C218.536 310.834 218.141 309.739 217.841 308.349L218.636 308.049ZM217.151 313.644C218.021 312.654 218.661 311.644 219.071 310.614C219.481 309.584 219.731 308.359 219.821 306.939H218.036V305.964L219.806 302.739H218.141V301.749H220.826V302.754L219.101 305.964H220.766V306.969C220.646 308.089 220.481 309.049 220.271 309.849C220.071 310.649 219.791 311.404 219.431 312.114C219.071 312.824 218.581 313.579 217.961 314.379L217.151 313.644ZM221.351 306.189H225.521V302.859H221.366V301.989H226.421V307.044H221.351V306.189ZM242.201 302.529V303.564H228.986V302.529H242.201ZM232.901 300.729C232.961 300.809 233.036 300.914 233.126 301.044C233.216 301.164 233.321 301.304 233.441 301.464C233.621 301.714 233.791 301.949 233.951 302.169C234.121 302.389 234.251 302.564 234.341 302.694L233.066 302.934C233.036 302.864 232.821 302.559 232.421 302.019C232.281 301.809 232.146 301.624 232.016 301.464C231.896 301.294 231.801 301.164 231.731 301.074L232.901 300.729ZM234.671 307.599V308.604H230.771V307.599H234.671ZM234.671 310.119V311.124H230.786V310.119H234.671ZM238.016 305.259V311.694H236.996V305.259H238.016ZM236.681 302.934C236.751 302.844 236.821 302.754 236.891 302.664C236.961 302.574 237.031 302.479 237.101 302.379C237.721 301.589 238.146 301.014 238.376 300.654L239.486 301.029C239.256 301.369 238.961 301.779 238.601 302.259C238.241 302.729 237.941 303.104 237.701 303.384L236.681 302.934ZM238.781 313.074C239.101 313.074 239.336 313.049 239.486 312.999C239.636 312.949 239.736 312.864 239.786 312.744C239.836 312.614 239.861 312.414 239.861 312.144V304.644H240.941V312.429C240.941 312.879 240.886 313.224 240.776 313.464C240.676 313.714 240.491 313.889 240.221 313.989C239.951 314.099 239.561 314.154 239.051 314.154H237.326L237.116 313.074H238.781ZM235.376 312.639C235.376 313.039 235.326 313.349 235.226 313.569C235.126 313.799 234.961 313.959 234.731 314.049C234.501 314.149 234.181 314.199 233.771 314.199H232.541L232.316 313.134H233.411C233.671 313.134 233.861 313.114 233.981 313.074C234.111 313.024 234.196 312.944 234.236 312.834C234.286 312.724 234.311 312.559 234.311 312.339V306.084H231.161V314.274H230.081V305.034H235.376V312.639ZM245.921 307.374L247.016 306.849V314.394H245.921V307.374ZM248.006 312.579H257.231V313.674H248.006V312.579ZM248.576 303.369H256.901V304.479H248.576V303.369ZM248.801 307.689H256.436V308.829H248.801V307.689ZM252.131 303.924H253.316V313.119H252.131V303.924ZM243.926 309.129C244.496 308.619 245.111 307.939 245.771 307.089C246.441 306.229 246.981 305.419 247.391 304.659L248.291 305.274C247.821 306.124 247.216 307.029 246.476 307.989C245.736 308.949 245.041 309.719 244.391 310.299L243.926 309.129ZM244.106 304.599C244.676 304.099 245.296 303.474 245.966 302.724C246.636 301.974 247.141 301.329 247.481 300.789L248.411 301.509C248.021 302.089 247.456 302.779 246.716 303.579C245.986 304.379 245.296 305.059 244.646 305.619L244.106 304.599ZM251.426 300.954L252.461 300.489L253.646 302.739L252.596 303.264L251.426 300.954ZM262.751 302.529H272.096V303.594H262.751V302.529ZM262.226 313.434C263.546 313.084 264.531 312.714 265.181 312.324C265.841 311.934 266.286 311.479 266.516 310.959C266.746 310.429 266.861 309.729 266.861 308.859V307.719C266.861 306.539 266.861 305.294 266.861 303.984C266.871 302.674 266.871 301.594 266.861 300.744H267.926V308.829C267.926 309.929 267.776 310.814 267.476 311.484C267.176 312.154 266.661 312.719 265.931 313.179C265.201 313.639 264.141 314.079 262.751 314.499L262.226 313.434ZM264.386 309.429C265.066 310.479 266.021 311.299 267.251 311.889C268.491 312.479 270.161 312.884 272.261 313.104L271.946 314.259C269.766 313.939 268.021 313.454 266.711 312.804C265.401 312.144 264.366 311.234 263.606 310.074L264.386 309.429ZM263.276 305.034H271.496V308.964H263.276V305.034ZM264.311 306.024V307.929H270.446V306.024H264.311ZM258.836 307.344C259.326 306.654 259.816 305.719 260.306 304.539C260.806 303.349 261.246 302.079 261.626 300.729L262.691 301.014C262.301 302.514 261.831 303.879 261.281 305.109C260.731 306.329 260.071 307.494 259.301 308.604L258.836 307.344ZM260.576 304.479L261.626 303.939V314.454H260.576V304.479ZM280.241 302.004H281.396V314.124H280.241V302.004ZM273.986 313.929C274.406 313.239 274.711 312.644 274.901 312.144C275.091 311.634 275.221 311.059 275.291 310.419C275.361 309.769 275.396 308.854 275.396 307.674V301.584H286.331V312.519C286.331 312.959 286.271 313.299 286.151 313.539C286.031 313.789 285.836 313.964 285.566 314.064C285.306 314.164 284.936 314.214 284.456 314.214H282.926L282.746 313.059H284.111C284.421 313.059 284.646 313.039 284.786 312.999C284.936 312.949 285.036 312.859 285.086 312.729C285.136 312.599 285.161 312.399 285.161 312.129V302.709H276.551V308.079C276.551 309.109 276.506 309.974 276.416 310.674C276.326 311.364 276.176 312.004 275.966 312.594C275.756 313.174 275.451 313.804 275.051 314.484L273.986 313.929ZM275.951 308.919H285.536V310.044H275.951V308.919ZM275.951 305.319H285.506V306.444H275.951V305.319ZM291.521 300.699H292.556V305.559H291.521V300.699ZM289.691 302.529H294.191V303.444H289.691V302.529ZM289.121 305.094H295.646V306.054H289.121V305.094ZM288.941 309.234C290.391 308.204 291.646 307.084 292.706 305.874C293.766 304.664 294.661 303.329 295.391 301.869L296.246 302.334C295.466 303.904 294.546 305.279 293.486 306.459C292.436 307.629 291.106 308.819 289.496 310.029L288.941 309.234ZM289.481 307.344H295.136V308.244L293.231 309.894V312.819C293.231 313.209 293.186 313.504 293.096 313.704C293.006 313.904 292.851 314.044 292.631 314.124C292.411 314.214 292.086 314.259 291.656 314.259H290.186L289.991 313.209H291.221C291.511 313.209 291.721 313.189 291.851 313.149C291.991 313.109 292.081 313.034 292.121 312.924C292.171 312.804 292.196 312.624 292.196 312.384V309.609L293.771 308.259H289.481V307.344ZM289.121 310.689L295.691 309.849L295.706 310.509L295.721 310.884L289.211 311.724L289.121 310.689ZM295.316 306.864C295.806 306.134 296.286 305.164 296.756 303.954C297.226 302.744 297.551 301.659 297.731 300.699L298.826 300.819C298.526 302.149 298.136 303.414 297.656 304.614C297.176 305.814 296.621 306.854 295.991 307.734L295.316 306.864ZM297.731 303.189H302.171V304.254H297.416L297.731 303.189ZM294.611 313.509C295.911 312.599 296.931 311.714 297.671 310.854C298.411 309.984 298.971 309.004 299.351 307.914C299.741 306.824 300.026 305.454 300.206 303.804L301.226 303.819C301.036 305.579 300.731 307.059 300.311 308.259C299.901 309.459 299.306 310.544 298.526 311.514C297.746 312.484 296.686 313.474 295.346 314.484L294.611 313.509ZM297.461 304.674C297.621 305.994 297.876 307.149 298.226 308.139C298.586 309.129 299.091 310.044 299.741 310.884C300.391 311.714 301.236 312.529 302.276 313.329L301.586 314.394C300.536 313.584 299.671 312.729 298.991 311.829C298.311 310.929 297.781 309.964 297.401 308.934C297.021 307.904 296.746 306.744 296.576 305.454L297.461 304.674ZM316.481 309.864V310.869H309.371V309.864H316.481ZM313.511 307.584V313.179H312.401V307.584H313.511ZM316.856 307.014V308.004H309.146V307.014H316.856ZM317.291 312.729V313.794H308.471V312.729H317.291ZM307.076 302.229V314.409H306.071V302.229H307.076ZM308.906 304.914V306.039H304.106V304.914H308.906ZM316.271 301.539V305.634H309.641V301.539H316.271ZM310.721 304.644H315.191V302.514H310.721V304.644ZM303.776 310.734C304.356 309.864 304.871 308.904 305.321 307.854C305.771 306.804 306.106 305.814 306.326 304.884L306.821 306.009C306.581 306.979 306.246 307.974 305.816 308.994C305.396 310.004 304.921 310.909 304.391 311.709L303.776 310.734ZM307.001 307.209C307.711 307.799 308.416 308.409 309.116 309.039L308.471 309.849C308.031 309.409 307.346 308.784 306.416 307.974L307.001 307.209ZM304.166 302.034C304.936 301.924 305.741 301.794 306.581 301.644C307.421 301.484 308.141 301.329 308.741 301.179L308.996 302.244C308.406 302.384 307.666 302.534 306.776 302.694C305.886 302.854 305.046 302.989 304.256 303.099L304.166 302.034Z" fill="#3E3A39"/>
<g filter="url(#filter1_g_748_69)">
<circle cx="119.677" cy="505.415" r="27.194" stroke="#3E3A39"/>
</g>
<g filter="url(#filter2_dg_748_69)">
<path d="M865.437 193.858C865.437 280.711 795.028 351.12 708.174 351.12C621.321 351.12 550.912 280.711 550.912 193.858C550.912 107.004 621.321 36.5956 708.174 36.5956C795.028 36.5956 865.437 107.004 865.437 193.858ZM582.365 193.858C582.365 263.341 638.692 319.668 708.174 319.668C777.657 319.668 833.984 263.341 833.984 193.858C833.984 124.375 777.657 68.0481 708.174 68.0481C638.692 68.0481 582.365 124.375 582.365 193.858Z" fill="#3E3A39"/>
</g>
<path d="M415.909 351.67C417.032 351.901 417.876 352.896 417.876 354.087V412.442C417.876 413.634 417.032 414.627 415.909 414.858V351.67Z" stroke="#3E3A39"/>
<path d="M415.909 176.604C417.032 176.835 417.876 177.83 417.876 179.021V237.377C417.876 238.568 417.032 239.562 415.909 239.793V176.604Z" stroke="#3E3A39"/>
<path d="M415.909 93.5224C417.032 93.7535 417.876 94.7482 417.876 95.9394V154.295C417.876 155.486 417.032 156.48 415.909 156.711V93.5224Z" stroke="#3E3A39"/>
<path d="M535.576 351.67C534.453 351.901 533.61 352.896 533.609 354.087V412.442C533.609 413.634 534.453 414.627 535.576 414.858V351.67Z" stroke="#3E3A39"/>
<path d="M535.576 176.604C534.453 176.835 533.61 177.83 533.609 179.021V237.377C533.609 238.568 534.453 239.562 535.576 239.793V176.604Z" stroke="#3E3A39"/>
<path d="M535.576 93.5224C534.453 93.7535 533.61 94.7482 533.609 95.9394V154.295C533.609 155.486 534.453 156.48 535.576 156.711V93.5224Z" stroke="#3E3A39"/>
<g filter="url(#filter3_dg_748_69)">
<rect x="693.339" y="374.858" width="29.6721" height="89.0164" rx="14.8361" fill="#3E3A39"/>
</g>
<defs>
<filter id="filter0_ig_748_69" x="95.918" y="28.6612" width="296.787" height="439.213" filterUnits="userSpaceOnUse" color-interpolation-filters="sRGB">
<feFlood flood-opacity="0" result="BackgroundImageFix"/>
<feBlend mode="normal" in="SourceGraphic" in2="BackgroundImageFix" result="shape"/>
<feColorMatrix in="SourceAlpha" type="matrix" values="0 0 0 0 0 0 0 0 0 0 0 0 0 0 0 0 0 0 127 0" result="hardAlpha"/>
<feOffset dx="4" dy="4"/>
<feGaussianBlur stdDeviation="2"/>
<feComposite in2="hardAlpha" operator="arithmetic" k2="-1" k3="1"/>
<feColorMatrix type="matrix" values="0 0 0 0 0.243137 0 0 0 0 0.227451 0 0 0 0 0.223529 0 0 0 0.25 0"/>
<feBlend mode="normal" in2="shape" result="effect1_innerShadow_748_69"/>
<feTurbulence type="fractalNoise" baseFrequency="0.99900001287460327 0.99900001287460327" numOctaves="3" seed="8682" />
<feDisplacementMap in="effect1_innerShadow_748_69" scale="4" xChannelSelector="R" yChannelSelector="G" result="displacedImage" width="100%" height="100%" />
<feMerge result="effect2_texture_748_69">
<feMergeNode in="displacedImage"/>
</feMerge>
</filter>
<filter id="filter1_g_748_69" x="87.9834" y="473.721" width="63.3877" height="63.3879" filterUnits="userSpaceOnUse" color-interpolation-filters="sRGB">
<feFlood flood-opacity="0" result="BackgroundImageFix"/>
<feBlend mode="normal" in="SourceGraphic" in2="BackgroundImageFix" result="shape"/>
<feTurbulence type="fractalNoise" baseFrequency="0.99900001287460327 0.99900001287460327" numOctaves="3" seed="2059" />
<feDisplacementMap in="shape" scale="8" xChannelSelector="R" yChannelSelector="G" result="displacedImage" width="100%" height="100%" />
<feMerge result="effect1_texture_748_69">
<feMergeNode in="displacedImage"/>
</feMerge>
</filter>
<filter id="filter2_dg_748_69" x="546.912" y="32.5956" width="322.524" height="326.524" filterUnits="userSpaceOnUse" color-interpolation-filters="sRGB">
<feFlood flood-opacity="0" result="BackgroundImageFix"/>
<feColorMatrix in="SourceAlpha" type="matrix" values="0 0 0 0 0 0 0 0 0 0 0 0 0 0 0 0 0 0 127 0" result="hardAlpha"/>
<feOffset dy="4"/>
<feGaussianBlur stdDeviation="2"/>
<feComposite in2="hardAlpha" operator="out"/>
<feColorMatrix type="matrix" values="0 0 0 0 0.243137 0 0 0 0 0.227451 0 0 0 0 0.223529 0 0 0 0.25 0"/>
<feBlend mode="normal" in2="BackgroundImageFix" result="effect1_dropShadow_748_69"/>
<feBlend mode="normal" in="SourceGraphic" in2="effect1_dropShadow_748_69" result="shape"/>
<feTurbulence type="fractalNoise" baseFrequency="0.99900001287460327 0.99900001287460327" numOctaves="3" seed="8980" />
<feDisplacementMap in="shape" scale="8" xChannelSelector="R" yChannelSelector="G" result="displacedImage" width="100%" height="100%" />
<feMerge result="effect2_texture_748_69">
<feMergeNode in="displacedImage"/>
</feMerge>
</filter>
<filter id="filter3_dg_748_69" x="689.339" y="370.858" width="37.6719" height="101.016" filterUnits="userSpaceOnUse" color-interpolation-filters="sRGB">
<feFlood flood-opacity="0" result="BackgroundImageFix"/>
<feColorMatrix in="SourceAlpha" type="matrix" values="0 0 0 0 0 0 0 0 0 0 0 0 0 0 0 0 0 0 127 0" result="hardAlpha"/>
<feOffset dy="4"/>
<feGaussianBlur stdDeviation="2"/>
<feComposite in2="hardAlpha" operator="out"/>
<feColorMatrix type="matrix" values="0 0 0 0 0.243137 0 0 0 0 0.227451 0 0 0 0 0.223529 0 0 0 0.25 0"/>
<feBlend mode="normal" in2="BackgroundImageFix" result="effect1_dropShadow_748_69"/>
<feBlend mode="normal" in="SourceGraphic" in2="effect1_dropShadow_748_69" result="shape"/>
<feTurbulence type="fractalNoise" baseFrequency="0.99900001287460327 0.99900001287460327" numOctaves="3" seed="8980" />
<feDisplacementMap in="shape" scale="8" xChannelSelector="R" yChannelSelector="G" result="displacedImage" width="100%" height="100%" />
<feMerge result="effect2_texture_748_69">
<feMergeNode in="displacedImage"/>
</feMerge>
</filter>
</defs>
</svg>
