<svg width="75" height="40" viewBox="0 0 75 40" fill="none" xmlns="http://www.w3.org/2000/svg">
<g clip-path="url(#clip0_2021_89)">
<path d="M53.7789 0H21.2611C9.51889 0 0 8.67778 0 20C0 31.3222 9.51889 40 21.2611 40H43.7733C63.2 40 52.4933 20.7522 73.8 20.0211C73.9677 20.0141 74.1322 19.9735 74.2839 19.9017C74.4356 19.8298 74.5712 19.7282 74.6829 19.6029C74.7945 19.4776 74.8798 19.3311 74.9337 19.1722C74.9876 19.0133 75.009 18.8451 74.9967 18.6778C74.2911 7.97222 65.0611 0 53.7789 0Z" fill="url(#paint0_linear_2021_89)"/>
<path d="M53.7789 0H21.2611C9.51889 0 0 8.67778 0 20C0 31.3222 9.51889 40 21.2611 40H43.7733C63.2 40 52.4933 20.7522 73.8 20.0211C73.9677 20.0141 74.1322 19.9735 74.2839 19.9017C74.4356 19.8298 74.5712 19.7282 74.6829 19.6029C74.7945 19.4776 74.8798 19.3311 74.9337 19.1722C74.9876 19.0133 75.009 18.8451 74.9967 18.6778C74.2911 7.97222 65.0611 0 53.7789 0ZM74.3011 19.2789C74.2357 19.3522 74.156 19.4114 74.067 19.4531C73.978 19.4947 73.8815 19.5178 73.7833 19.5211C62.6289 19.9033 60.02 25.21 57.4967 30.3411C55.18 35.0511 52.9922 39.5 43.7733 39.5H21.2611C9.62 39.5 0.5 30.9344 0.5 20C0.5 9.06556 9.62 0.5 21.2611 0.5H53.7789C64.9056 0.5 73.8133 8.32889 74.4978 18.7111C74.5053 18.8142 74.4918 18.9176 74.4579 19.0153C74.4241 19.1129 74.3708 19.2026 74.3011 19.2789Z" fill="url(#paint1_radial_2021_89)"/>
<path d="M68.1254 35C69.851 35 71.2499 33.6011 71.2499 31.8756C71.2499 30.15 69.851 28.7511 68.1254 28.7511C66.3998 28.7511 65.001 30.15 65.001 31.8756C65.001 33.6011 66.3998 35 68.1254 35Z" fill="#0091FF"/>
<path d="M53.7789 0H21.2611C9.51889 0 0 8.67778 0 20C0 31.3222 9.51889 40 21.2611 40H43.7733C63.2 40 52.4933 20.7522 73.8 20.0211C73.9677 20.0141 74.1322 19.9735 74.2839 19.9017C74.4356 19.8298 74.5712 19.7282 74.6829 19.6029C74.7945 19.4776 74.8798 19.3311 74.9337 19.1722C74.9876 19.0133 75.009 18.8451 74.9967 18.6778C74.2911 7.97222 65.0611 0 53.7789 0ZM74.3011 19.2789C74.2357 19.3522 74.156 19.4114 74.067 19.4531C73.978 19.4947 73.8815 19.5178 73.7833 19.5211C62.6289 19.9033 60.02 25.21 57.4967 30.3411C55.18 35.0511 52.9922 39.5 43.7733 39.5H21.2611C9.62 39.5 0.5 30.9344 0.5 20C0.5 9.06556 9.62 0.5 21.2611 0.5H53.7789C64.9056 0.5 73.8133 8.32889 74.4978 18.7111C74.5053 18.8142 74.4918 18.9176 74.4579 19.0153C74.4241 19.1129 74.3708 19.2026 74.3011 19.2789Z" fill="url(#paint2_radial_2021_89)"/>
</g>
<defs>
<linearGradient id="paint0_linear_2021_89" x1="1.63111" y1="29.9978" x2="71.7356" y2="7.22" gradientUnits="userSpaceOnUse">
<stop offset="0.2" stop-color="#0086FF"/>
<stop offset="1" stop-color="#0086FF" stop-opacity="0.2"/>
</linearGradient>
<radialGradient id="paint1_radial_2021_89" cx="0" cy="0" r="1" gradientUnits="userSpaceOnUse" gradientTransform="translate(58.7756 23.8633) scale(30.0389)">
<stop offset="0.1" stop-color="#0086FF"/>
<stop offset="0.6" stop-color="#0091FF" stop-opacity="0.2"/>
</radialGradient>
<radialGradient id="paint2_radial_2021_89" cx="0" cy="0" r="1" gradientUnits="userSpaceOnUse" gradientTransform="translate(58.7756 23.8633) scale(30.0389)">
<stop offset="0.1" stop-color="#0086FF"/>
<stop offset="0.6" stop-color="#0091FF" stop-opacity="0.2"/>
</radialGradient>
<clipPath id="clip0_2021_89">
<rect width="75" height="40" fill="white"/>
</clipPath>
</defs>
</svg>
