<svg width="200" height="87" viewBox="0 0 200 87" fill="none" xmlns="http://www.w3.org/2000/svg">
<path d="M29.3698 10.7455H21.8262V18.0834H29.3698V30.4014H44.4589V37.7392H29.3698V50.0572H45.8063V57.3951H29.3746C29.3531 59.8743 28.8147 70.6244 21.152 78.3085C16.0056 83.4662 8.89174 86.0868 0 86.0868V78.749C6.74678 78.749 12.0278 76.9094 15.6976 73.2405C21.383 67.5744 21.7983 59.0829 21.8252 57.3951H5.3887V50.0572H21.8252V37.7392H6.73611V30.4014H21.8252L21.8262 18.0834H5.38966V10.7455H21.8262L21.8252 0H29.3698V10.7455Z" fill="#3E3A39"/>
<path fill-rule="evenodd" clip-rule="evenodd" d="M76.7225 24.5829C78.1991 28.1261 81.9122 38.7827 81.9122 56.3471V60.0155H60.3565V85.175H52.8119V0.262722H82.9738L76.7225 24.5829ZM60.3565 52.6777H74.2866C73.7261 35.5117 69.3882 26.6061 69.3451 26.5117L68.7472 25.3169L69.0707 24.011L73.2898 7.60058H60.3565V52.6777Z" fill="#3E3A39"/>
<path fill-rule="evenodd" clip-rule="evenodd" d="M138.21 83.6026H103.721V52.6777H138.21V83.6026ZM111.266 76.2647H130.666V60.0155H111.266V76.2647Z" fill="#3E3A39"/>
<path d="M183.747 41.6704H153.299V76.2647H176.472C177.076 76.2646 191.56 76.0634 191.56 66.8299H199.105C199.105 80.0646 184.297 83.6024 176.472 83.6026H145.755V34.3325H176.202V10.1901H144.946V2.85131H183.747V41.6704Z" fill="#3E3A39"/>
<path d="M134.723 46.9123H107.779V39.5735H134.723V46.9123Z" fill="#3E3A39"/>
<path d="M134.723 33.8081H107.779V26.4702H134.723V33.8081Z" fill="#3E3A39"/>
<path d="M140.113 20.7038H102.39V13.366H140.113V20.7038Z" fill="#3E3A39"/>
<path d="M45.8063 10.7455V18.0834H29.3698V10.7455H45.8063Z" fill="#3E3A39"/>
<path d="M130.682 7.56388H114.515V0.225052H130.682V7.56388Z" fill="#3E3A39"/>
</svg>
