<svg width="136" height="40" viewBox="0 0 136 40" fill="none" xmlns="http://www.w3.org/2000/svg">
<g clip-path="url(#clip0_648_618)">
<path d="M4.09397 0H0.714844V19.3073H4.09397V0Z" fill="#3E3A39"/>
<path d="M13.1545 0H9.77539V5.30952H13.1545V0Z" fill="#3E3A39"/>
<path d="M13.1544 8.68835H9.77532V26.2893C9.77532 26.3352 9.85258 30.8315 7.03102 33.7227C5.38732 35.4121 3.0219 36.2592 0 36.2592V39.638C3.98254 39.638 7.16857 38.4313 9.47361 36.0565C13.1882 32.2288 13.1665 26.7406 13.1544 26.2242V8.68835Z" fill="#3E3A39"/>
<path d="M21.7668 0.00241089H18.3877V38.6171H21.7668V0.00241089Z" fill="#3E3A39"/>
<path d="M30.4553 0.00241089H27.0762V38.6171H30.4553V0.00241089Z" fill="#3E3A39"/>
<path d="M38.9035 0.00241089H35.5244V9.65609H38.9035V0.00241089Z" fill="#3E3A39"/>
<path d="M70.4785 0.482727V39.5801H73.8576V27.9957H83.5123V26.3063C83.5123 18.2189 81.8493 13.3124 81.1879 11.681L83.9878 0.482727H70.4785ZM73.8576 24.6169V3.86151H79.6504L77.7605 11.4178L77.6157 12.0188L77.8836 12.569C77.9029 12.6125 79.8459 16.713 80.097 24.6169H73.8576Z" fill="#3E3A39"/>
<path d="M105.356 0.46579H98.1152V3.84458H105.356V0.46579Z" fill="#3E3A39"/>
<path d="M132.623 31.1332C132.623 35.3856 126.133 35.4773 125.865 35.4773H115.486V19.5487H129.123V1.67496H111.745V5.05374H125.744V16.17H112.107V38.8561H125.865C129.37 38.8561 136.002 37.227 136.002 31.1332H132.623Z" fill="#3E3A39"/>
<path d="M109.58 6.51624H92.6846V9.89502H109.58V6.51624Z" fill="#3E3A39"/>
<path d="M107.166 12.5498H95.0977V15.9286H107.166V12.5498Z" fill="#3E3A39"/>
<path d="M107.166 18.5833H95.0977V21.9621H107.166V18.5833Z" fill="#3E3A39"/>
<path d="M93.2803 38.8561H108.728V24.6169H93.2803V38.8561ZM96.6594 27.9957H105.349V35.4773H96.6594V27.9957Z" fill="#3E3A39"/>
<path d="M59.9797 0.362H56.6006V5.30951H59.9797V0.362Z" fill="#3E3A39"/>
<path d="M56.5999 5.30951H49.2383V8.6883H56.5999V5.30951Z" fill="#3E3A39"/>
<path d="M56.6005 8.68835V14.3599H49.8423V17.7387H56.6005V23.4102H49.2389V26.789H56.6005C56.5884 27.5661 56.4026 31.4758 53.8562 34.0848C52.2125 35.7741 49.8471 36.6212 46.8252 36.6212V40C50.8077 40 53.9938 38.7933 56.2988 36.4185C59.731 32.8804 59.9724 27.9305 59.982 26.789H67.3413V23.4102H59.9796V17.7387H66.7379V14.3599H59.9796V8.68835H56.6005Z" fill="#3E3A39"/>
<path d="M67.3412 5.30951H59.9795V8.6883H67.3412V5.30951Z" fill="#3E3A39"/>
</g>
<defs>
<clipPath id="clip0_648_618">
<rect width="136" height="40" fill="white"/>
</clipPath>
</defs>
</svg>
