<svg width="590" height="599" viewBox="0 0 590 599" fill="none" xmlns="http://www.w3.org/2000/svg">
<path d="M62.0585 0H10.8311V291.768H62.0585V0Z" fill="#FAFAFA" fill-opacity="0.4"/>
<path d="M199.421 0H148.193V80.2362H199.421V0Z" fill="#FAFAFA" fill-opacity="0.4"/>
<path d="M199.421 131.297H148.194V397.279C148.194 397.972 149.365 465.918 106.59 509.611C81.6717 535.14 45.812 547.941 0 547.941V599C60.3752 599 108.675 580.765 143.62 544.878C199.933 487.035 199.604 404.099 199.421 396.294V131.297Z" fill="#FAFAFA" fill-opacity="0.4"/>
<path d="M329.978 0.0366211H278.751V583.573H329.978V0.0366211Z" fill="#FAFAFA" fill-opacity="0.4"/>
<path d="M461.707 0.0366211H410.479V583.573H461.707V0.0366211Z" fill="#FAFAFA" fill-opacity="0.4"/>
<path d="M589.775 0.0366211H538.548V145.921H589.775V0.0366211Z" fill="#FAFAFA" fill-opacity="0.4"/>
</svg>
