<svg width="1326" height="720" viewBox="0 0 1326 720" fill="none" xmlns="http://www.w3.org/2000/svg">
<rect y="110" width="306.68" height="492" rx="21" fill="white"/>
<rect x="1" y="111" width="304.68" height="490" rx="20" stroke="#3E3A39" stroke-opacity="0.6" stroke-width="2" stroke-dasharray="4 4"/>
<g opacity="0.4" filter="url(#filter0_ig_761_246)">
<rect x="25.9199" y="137.56" width="254.84" height="381.94" rx="20.5" stroke="#3E3A39" stroke-opacity="0.6"/>
</g>
<rect x="1019" y="110" width="306.68" height="492" rx="21" fill="white"/>
<rect x="1020" y="111" width="304.68" height="490" rx="20" stroke="#3E3A39" stroke-opacity="0.6" stroke-width="2" stroke-dasharray="4 4"/>
<g opacity="0.4" filter="url(#filter1_ig_761_246)">
<rect x="1044.92" y="137.56" width="254.84" height="381.94" rx="20.5" stroke="#3E3A39" stroke-opacity="0.6"/>
</g>
<rect x="766" y="60" width="374" height="600" rx="21" fill="white"/>
<rect x="767" y="61" width="372" height="598" rx="20" stroke="#3E3A39" stroke-opacity="0.6" stroke-width="2" stroke-dasharray="4 4"/>
<rect x="196" y="60" width="374" height="600" rx="21" fill="white"/>
<rect x="197" y="61" width="372" height="598" rx="20" stroke="#3E3A39" stroke-opacity="0.6" stroke-width="2" stroke-dasharray="4 4"/>
<g opacity="0.4" filter="url(#filter2_ig_761_246)">
<rect x="227.5" y="93.5" width="311" height="466" rx="20.5" stroke="#3E3A39" stroke-opacity="0.6"/>
</g>
<g opacity="0.4" filter="url(#filter3_ig_761_246)">
<rect x="797.5" y="93.5" width="311" height="466" rx="20.5" stroke="#3E3A39" stroke-opacity="0.6"/>
</g>
<rect x="440" y="1" width="446.399" height="718" rx="20" fill="white" stroke="#3E3A39" stroke-width="2"/>
<g opacity="0.4" filter="url(#filter4_ig_761_246)">
<rect x="475.372" y="40.2153" width="375.655" height="560.139" rx="20.5" stroke="#3E3A39" stroke-opacity="0.6"/>
</g>
<g filter="url(#filter5_g_761_246)">
<circle cx="503.056" cy="654.662" r="35.3719" stroke="#3E3A39"/>
</g>
<path d="M605.498 279.68H618.308V281.75H605.498V279.68ZM608.378 288.5H615.728V290.33H608.378V288.5ZM608.438 292.67H615.728V294.5H608.438V292.67ZM604.868 288.35C606.128 286.77 607.238 285.02 608.198 283.1C609.158 281.16 609.928 278.96 610.508 276.5L612.458 276.89C611.858 279.41 610.968 281.84 609.788 284.18C608.608 286.52 607.238 288.63 605.678 290.51L604.868 288.35ZM607.628 285.44L608.588 284.3H616.808V296.78C616.808 297.48 616.718 298.01 616.538 298.37C616.378 298.73 616.098 298.99 615.698 299.15C615.318 299.29 614.748 299.36 613.988 299.36H611.978L611.618 297.44H613.178C613.658 297.44 614.018 297.4 614.258 297.32C614.498 297.24 614.658 297.1 614.738 296.9C614.838 296.7 614.888 296.41 614.888 296.03V286.28H609.518V299.57H607.628V285.44ZM593.288 278.18H600.098V280.34L598.358 287.63C599.098 289.13 599.588 290.44 599.828 291.56C600.088 292.68 600.218 293.77 600.218 294.83C600.218 295.87 600.118 296.67 599.918 297.23C599.718 297.79 599.388 298.19 598.928 298.43C598.468 298.65 597.808 298.76 596.948 298.76H595.988L595.568 296.69H596.498C597.018 296.69 597.418 296.63 597.698 296.51C597.978 296.39 598.168 296.17 598.268 295.85C598.388 295.51 598.448 295.02 598.448 294.38C598.448 293.52 598.268 292.57 597.908 291.53C597.548 290.47 597.018 289.31 596.318 288.05L598.148 280.34H595.208V304.04H593.288V278.18ZM602.708 277.07C602.908 277.51 603.178 278.18 603.518 279.08C603.858 279.98 604.178 280.84 604.478 281.66C604.538 281.82 604.688 282.23 604.928 282.89L603.038 283.67C602.738 282.77 602.388 281.78 601.988 280.7C601.608 279.6 601.248 278.6 600.908 277.7L602.708 277.07ZM598.718 301.91L602.288 297.89V288.59H599.978V286.37H604.268V297.89C604.848 298.77 605.428 299.44 606.008 299.9C606.608 300.36 607.268 300.68 607.988 300.86C608.728 301.04 609.658 301.13 610.778 301.13H618.578L618.248 303.23H610.478C609.318 303.23 608.348 303.13 607.568 302.93C606.788 302.75 606.068 302.43 605.408 301.97C604.768 301.49 604.098 300.8 603.398 299.9L600.008 303.74L598.718 301.91ZM642.968 293.03V295.01H622.328V293.03H642.968ZM642.848 284.03V285.92H627.548V284.03H642.848ZM642.848 288.53V290.42H627.548V288.53H642.848ZM644.168 299.9C644.168 300.84 644.038 301.57 643.778 302.09C643.538 302.63 643.118 303.02 642.518 303.26C641.918 303.5 641.068 303.62 639.968 303.62H635.558L635.168 301.4H639.158C639.958 301.4 640.548 301.34 640.928 301.22C641.308 301.1 641.568 300.89 641.708 300.59C641.868 300.27 641.948 299.78 641.948 299.12V281.45H628.478V293.66H626.258V279.5H644.168V299.9ZM621.848 301.01C627.668 299.75 632.668 298.07 636.848 295.97C641.028 293.87 644.518 291.28 647.318 288.2L648.728 289.64C646.228 292.58 642.748 295.21 638.288 297.53C633.848 299.83 628.608 301.74 622.568 303.26L621.848 301.01ZM631.388 280.4C632.008 279.26 632.668 277.92 633.368 276.38L635.768 276.92C635.768 276.92 635.558 277.34 635.138 278.18C634.678 279.14 634.228 280.04 633.788 280.88L631.388 280.4ZM650.708 302L658.958 279.8H661.658L669.908 302H667.148L660.398 283.58H660.218L653.468 302H650.708ZM664.568 291.83L665.198 294.29H655.418L656.018 291.83H664.568ZM675.279 302H672.699V279.8H675.279V302ZM679.392 299.24L692.712 297.5L692.802 299.75L679.692 301.52L679.392 299.24ZM682.812 285.08H690.192V287.18H682.812V285.08ZM682.812 291.35H690.192V293.39H682.812V291.35ZM704.622 282.32C704.562 284 704.472 286.74 704.352 290.54C704.232 294.32 704.132 297.31 704.052 299.51C704.012 300.47 703.852 301.21 703.572 301.73C703.292 302.25 702.842 302.61 702.222 302.81C701.622 303.03 700.772 303.14 699.672 303.14H697.062L696.642 300.98H698.802C699.662 300.98 700.302 300.92 700.722 300.8C701.162 300.66 701.462 300.42 701.622 300.08C701.782 299.74 701.882 299.22 701.922 298.52C702.002 296.62 702.092 293.78 702.192 290C702.312 286.44 702.372 284.6 702.372 284.48H692.622V282.32H704.622ZM690.432 302.57C691.832 300.91 692.862 299.46 693.522 298.22C694.202 296.96 694.702 295.44 695.022 293.66C695.342 291.88 695.542 289.42 695.622 286.28C695.642 285.84 695.672 283.83 695.712 280.25C695.732 279.07 695.742 277.88 695.742 276.68H697.932C697.932 277.66 697.912 279.12 697.872 281.06C697.852 283 697.812 284.81 697.752 286.49C697.632 289.77 697.392 292.4 697.032 294.38C696.672 296.34 696.122 298.04 695.382 299.48C694.642 300.9 693.562 302.49 692.142 304.25L690.432 302.57ZM681.432 278.48H691.032V298.25H688.932V280.67H683.532V299.45H681.432V278.48ZM721.122 284.15H733.122V286.16H721.122V284.15ZM719.832 278.3H734.292V292.01H719.832V278.3ZM722.052 280.37V289.94H732.162V280.37H722.052ZM725.982 279.44H728.172V302.15H725.982V279.44ZM719.382 295.31H734.982V297.35H719.382V295.31ZM717.882 300.86H735.822V302.93H717.882V300.86ZM713.202 280.73H715.302V299.39H713.202V280.73ZM709.332 299.51C710.112 299.37 711.642 299.04 713.922 298.52C716.222 298 717.772 297.63 718.572 297.41L718.662 298.58L718.752 299.63C717.952 299.77 716.422 300.09 714.162 300.59C711.922 301.09 710.422 301.44 709.662 301.64L709.332 299.51ZM709.572 279.23H718.602V281.36H709.572V279.23ZM709.812 288.32H718.392V290.45H709.812V288.32Z" fill="#3E3A39"/>
<path d="M585.49 390.16V392.38H562.51V390.16H585.49ZM587.11 396.01V398.23H560.89V396.01H587.11ZM565.15 405.43C565.71 405.61 566.29 405.81 566.89 406.03C567.51 406.25 568.15 406.48 568.81 406.72C571.25 407.6 573.78 408.54 576.4 409.54C579.02 410.54 581.15 411.38 582.79 412.06L581.92 414.37C580.44 413.71 578.59 412.94 576.37 412.06C574.15 411.2 571.77 410.3 569.23 409.36C568.35 409.04 567.5 408.74 566.68 408.46C565.88 408.16 565.12 407.88 564.4 407.62L565.15 405.43ZM566.17 401.89C567.17 399.83 568.15 397.38 569.11 394.54C570.09 391.7 570.89 389.01 571.51 386.47L573.85 386.77C573.29 389.23 572.57 391.78 571.69 394.42C570.83 397.04 569.92 399.44 568.96 401.62H583.72V403.93L576.46 410.83L574.33 409.66L580.6 403.81H566.17V401.89ZM601.81 386.89V411.46H599.47V386.89H601.81ZM608.65 386.89V411.46H606.28V386.89H608.65ZM593.77 391.9C594.25 392.9 594.86 394.33 595.6 396.19C596.36 398.03 597.14 399.98 597.94 402.04L598.75 404.14L596.53 405.22C595.53 402.5 594.61 400.08 593.77 397.96C592.95 395.82 592.24 394.13 591.64 392.89L593.77 391.9ZM609.19 404.17C610.03 402.57 610.92 400.63 611.86 398.35C612.82 396.05 613.64 393.94 614.32 392.02L616.54 392.98C615.88 394.76 615.03 396.88 613.99 399.34C612.97 401.78 612.07 403.77 611.29 405.31L609.19 404.17ZM617.17 410.11V412.39H590.86V410.11H617.17ZM631.72 410.26H643.81V412.27H631.72V410.26ZM629.17 388.09H646.18V390.1H629.17V388.09ZM632.59 400.18L634.63 388.69L636.76 389.17L634.75 400.6L632.59 400.18ZM628.15 399.28H647.17V401.35H628.15V399.28ZM620.77 396.28H625.96V408.82L629.14 406.15L629.77 408.43L624.37 413.08L622.93 411.4C623.31 411.02 623.55 410.72 623.65 410.5C623.75 410.26 623.8 409.96 623.8 409.6V398.38H620.77V396.28ZM623.74 386.98C624.38 387.76 625.07 388.61 625.81 389.53C626.55 390.43 627.22 391.26 627.82 392.02L626.11 393.52C625.71 392.94 625.09 392.13 624.25 391.09C623.41 390.05 622.66 389.14 622 388.36L623.74 386.98ZM630.61 403.87H644.92V414.04H642.67V405.91H632.77V414.04H630.61V403.87ZM629.62 393.49H644.23L644.02 400.36H641.77L641.92 395.47H629.62V393.49ZM672.73 410.53V412.51H655.33V410.53H672.73ZM672.7 405.61V407.53H655.39V405.61H672.7ZM675.85 389.53V391.54H652.21V389.53H675.85ZM677.23 395.8V397.87H650.83V395.8H677.23ZM673.78 400.48V414.01H671.41V402.52H656.65V414.01H654.31V400.48H673.78ZM659.05 390.61C659.13 390.87 659.22 391.15 659.32 391.45C659.42 391.73 659.52 392.02 659.62 392.32C660.22 394.1 660.65 395.47 660.91 396.43L658.69 397.06C658.61 396.74 658.51 396.39 658.39 396.01C658.27 395.63 658.14 395.23 658 394.81C657.64 393.63 657.24 392.44 656.8 391.24L659.05 390.61ZM667.21 396.34C667.41 395.96 667.67 395.33 667.99 394.45C668.53 392.95 668.89 391.8 669.07 391L671.56 391.21C671.32 391.91 671.04 392.73 670.72 393.67C670.4 394.59 670.11 395.36 669.85 395.98C669.77 396.2 669.69 396.41 669.61 396.61C669.53 396.79 669.46 396.95 669.4 397.09L667.21 396.34ZM664.48 386.32C665.18 387.8 665.77 389.07 666.25 390.13L663.85 390.67C663.45 389.75 662.82 388.47 661.96 386.83L664.48 386.32ZM706.69 394.03V396.34H681.34V394.03H706.69ZM680.86 411.73C683.24 410.41 685.31 408.93 687.07 407.29C688.83 405.65 690.22 403.81 691.24 401.77C692.26 399.73 692.77 397.53 692.77 395.17V386.65H695.17V395.17C695.17 397.87 694.61 400.37 693.49 402.67C692.39 404.95 690.89 407.01 688.99 408.85C687.11 410.69 684.89 412.41 682.33 414.01L680.86 411.73ZM694.87 395.53C695.25 397.91 695.93 400.06 696.91 401.98C697.89 403.88 699.23 405.63 700.93 407.23C702.63 408.81 704.76 410.29 707.32 411.67L705.88 413.92C702.1 411.7 699.15 409.18 697.03 406.36C694.93 403.54 693.63 400.46 693.13 397.12L694.87 395.53ZM734.08 397.9V399.46H721.81V397.9H734.08ZM735.1 394.09V403.36H720.73V394.09H735.1ZM722.71 401.62H733.21V395.83H722.71V401.62ZM716.62 386.68V414.01H714.55V386.68H716.62ZM719.83 392.38V394.42H711.04V392.38H719.83ZM737.02 405.43V407.41H719.2V405.43H737.02ZM725.77 386.59V393.22H723.76V386.59H725.77ZM732.4 386.59V393.22H730.39V386.59H732.4ZM736.69 389.38V391.36H719.44V389.38H736.69ZM710.29 404.05C711.17 402.67 712.04 400.92 712.9 398.8C713.78 396.68 714.43 394.66 714.85 392.74L716.29 394.63C715.75 396.61 715.01 398.73 714.07 400.99C713.15 403.23 712.2 405.14 711.22 406.72L710.29 404.05ZM716.41 397.15C716.71 397.39 717.02 397.66 717.34 397.96C717.68 398.24 718.02 398.53 718.36 398.83C718.66 399.09 718.95 399.35 719.23 399.61C719.51 399.87 719.77 400.12 720.01 400.36L718.93 402.16C718.23 401.46 717.4 400.68 716.44 399.82C716.24 399.62 716.04 399.43 715.84 399.25C715.64 399.07 715.45 398.89 715.27 398.71L716.41 397.15ZM718.03 412.21C720.17 411.71 721.87 411.13 723.13 410.47C724.41 409.81 725.33 409.04 725.89 408.16C726.45 407.28 726.76 406.25 726.82 405.07C726.82 404.91 726.82 404.74 726.82 404.56C726.84 404.38 726.85 404.19 726.85 403.99C726.85 403.75 726.85 403.52 726.85 403.3C726.85 403.08 726.85 402.87 726.85 402.67H729.01C728.99 403.13 728.98 403.93 728.98 405.07C728.96 407.27 728.16 409.1 726.58 410.56C725.02 412.02 722.43 413.23 718.81 414.19L718.03 412.21ZM728.74 406.09C729.3 407.63 730.25 408.88 731.59 409.84C732.95 410.8 734.91 411.54 737.47 412.06L736.81 414.13C734.17 413.51 732.04 412.61 730.42 411.43C728.82 410.25 727.67 408.75 726.97 406.93L728.74 406.09ZM755.98 388.33V390.43H742.03V388.33H755.98ZM741.34 402.31C742.42 401.23 743.2 400.31 743.68 399.55C744.18 398.77 744.5 397.99 744.64 397.21C744.8 396.43 744.88 395.37 744.88 394.03V389.05H746.98V394.06C746.98 395.6 746.88 396.86 746.68 397.84C746.5 398.82 746.14 399.76 745.6 400.66C745.06 401.56 744.23 402.55 743.11 403.63L741.34 402.31ZM753.16 389.11V402.37H751.06V389.11H753.16ZM756.61 394.84V396.85H741.28V394.84H756.61ZM759.88 388.72V398.77H757.78V388.72H759.88ZM761.26 400.6C761.84 400.6 762.28 400.55 762.58 400.45C762.88 400.35 763.1 400.17 763.24 399.91C763.38 399.63 763.45 399.23 763.45 398.71V387.16H765.55V399.28C765.55 400.16 765.44 400.84 765.22 401.32C765.02 401.8 764.66 402.15 764.14 402.37C763.64 402.57 762.91 402.67 761.95 402.67H759.34L758.95 400.6H761.26ZM755.23 403.03V411.58H752.95V403.03H755.23ZM764.35 405.16V407.23H743.77V405.16H764.35ZM767.14 410.98V413.02H740.89V410.98H767.14Z" fill="#3E3A39"/>
<path d="M556.632 172.29V174.45H547.272V172.29H556.632ZM553.032 166.62V193.92H550.932V166.62H553.032ZM546.522 184.5C547.482 183.1 548.422 181.28 549.342 179.04C550.282 176.78 550.972 174.65 551.412 172.65L552.252 175.53C551.772 177.41 551.112 179.37 550.272 181.41C549.432 183.43 548.542 185.19 547.602 186.69L546.522 184.5ZM552.402 176.94C553.882 178.1 555.132 179.16 556.152 180.12C556.292 180.24 556.422 180.36 556.542 180.48C556.662 180.6 556.772 180.71 556.872 180.81L555.732 182.73C553.932 180.85 552.442 179.47 551.262 178.59L552.402 176.94ZM553.932 191.58C555.032 189.92 555.912 188.31 556.572 186.75C557.252 185.19 557.762 183.53 558.102 181.77C558.462 179.99 558.692 177.95 558.792 175.65C558.832 174.67 558.872 173.58 558.912 172.38C558.952 171.18 558.972 170.25 558.972 169.59H561.012C561.012 169.83 560.962 171.5 560.862 174.6L560.802 175.86C560.702 178.3 560.472 180.45 560.112 182.31C559.772 184.17 559.232 185.98 558.492 187.74C557.772 189.48 556.762 191.37 555.462 193.41L553.932 191.58ZM570.312 168.39V170.49L567.852 176.01H572.112V178.08C571.272 180.6 570.292 182.79 569.172 184.65C568.052 186.51 566.682 188.2 565.062 189.72C563.442 191.24 561.442 192.74 559.062 194.22L557.772 192.27C559.892 191.01 561.712 189.69 563.232 188.31C564.772 186.93 566.072 185.41 567.132 183.75C568.212 182.09 569.112 180.21 569.832 178.11H565.422V176.28L567.942 170.58H555.822V168.39H570.312ZM560.532 171.72C561.132 175.08 561.982 177.96 563.082 180.36C564.182 182.76 565.572 184.86 567.252 186.66C568.932 188.44 571.032 190.14 573.552 191.76L572.262 193.89C569.682 192.07 567.542 190.24 565.842 188.4C564.162 186.54 562.792 184.47 561.732 182.19C560.692 179.91 559.902 177.24 559.362 174.18L560.532 171.72ZM586.212 174.96H601.542V190.14C601.542 191.12 601.432 191.85 601.212 192.33C601.012 192.83 600.632 193.17 600.072 193.35C599.532 193.55 598.722 193.65 597.642 193.65H594.282L593.832 191.52H597.162C597.862 191.52 598.362 191.47 598.662 191.37C598.962 191.25 599.142 191.06 599.202 190.8C599.282 190.54 599.322 190.11 599.322 189.51V177H586.212V174.96ZM576.912 173.73C577.832 172.77 578.782 171.56 579.762 170.1C580.762 168.62 581.522 167.3 582.042 166.14L584.262 166.56C583.602 167.94 582.742 169.43 581.682 171.03C580.622 172.63 579.542 174.04 578.442 175.26L576.912 173.73ZM580.332 171L581.262 169.02H590.532V171H580.332ZM585.402 170.28C585.762 170.82 586.242 171.57 586.842 172.53C586.922 172.67 587.002 172.81 587.082 172.95C587.162 173.07 587.242 173.19 587.322 173.31L585.522 174.24C585.322 173.88 584.712 172.92 583.692 171.36C583.612 171.22 583.522 171.1 583.422 171C583.342 170.88 583.272 170.76 583.212 170.64L585.402 170.28ZM589.542 173.43C590.402 172.29 591.182 171.1 591.882 169.86C592.602 168.62 593.202 167.39 593.682 166.17L595.812 166.62C595.272 167.94 594.622 169.29 593.862 170.67C593.102 172.03 592.302 173.3 591.462 174.48L589.542 173.43ZM592.572 171L593.502 169.02H603.282V171H592.572ZM597.432 170.22C597.612 170.44 598.002 171.02 598.602 171.96C598.762 172.18 598.912 172.41 599.052 172.65C599.192 172.87 599.322 173.09 599.442 173.31L597.642 174.18C597.182 173.32 596.442 172.14 595.422 170.64L597.432 170.22ZM579.042 178.02H581.232V193.74H579.042V178.02ZM581.592 173.67C581.772 173.85 581.962 174.04 582.162 174.24C582.382 174.44 582.592 174.64 582.792 174.84C583.152 175.18 583.512 175.53 583.872 175.89C584.232 176.25 584.592 176.61 584.952 176.97L583.482 178.5C583.022 178 582.512 177.46 581.952 176.88C581.112 176.04 580.522 175.46 580.182 175.14L581.592 173.67ZM584.802 179.61H595.692V190.44H584.802V179.61ZM586.782 181.5V188.61H593.742V181.5H586.782ZM585.762 184.11H594.702V185.97H585.762V184.11ZM618.943 189.54H630.493V192H616.363V169.8H630.103V172.26H618.943V179.22H629.473V181.65H618.943V189.54ZM643.93 179.13V181.47H632.83V179.13H643.93ZM650.113 192H647.623V176.1H650.113V192ZM650.563 171.09C650.563 171.61 650.403 172.02 650.083 172.32C649.763 172.62 649.343 172.77 648.823 172.77C648.303 172.77 647.893 172.62 647.593 172.32C647.313 172.02 647.173 171.61 647.173 171.09C647.173 170.57 647.323 170.16 647.623 169.86C647.923 169.54 648.323 169.38 648.823 169.38C649.343 169.38 649.763 169.54 650.083 169.86C650.403 170.16 650.563 170.57 650.563 171.09ZM654.647 192V176.1H657.137V178.35H657.287C657.767 177.55 658.467 176.91 659.387 176.43C660.327 175.93 661.267 175.68 662.207 175.68C663.967 175.68 665.347 176.23 666.347 177.33C667.347 178.41 667.847 179.94 667.847 181.92V192H665.357V182.28C665.357 181 664.997 179.96 664.277 179.16C663.557 178.36 662.657 177.96 661.577 177.96C660.697 177.96 659.917 178.16 659.237 178.56C658.577 178.94 658.057 179.48 657.677 180.18C657.317 180.88 657.137 181.68 657.137 182.58V192H654.647ZM674.539 169.8V192H672.049V169.8H674.539ZM674.239 186.66L674.389 183.24L681.199 176.1H684.499L674.239 186.66ZM676.279 183.3L678.229 181.71L684.889 192H681.769L676.279 183.3ZM709.788 168.78V181.56H707.688V168.78H709.788ZM719.598 167.94V175.71H697.908V167.94H719.598ZM700.098 174.09H717.408V169.56H700.098V174.09ZM709.848 184.95V192.09H707.628V184.95H709.848ZM719.178 187.44V189.06H698.298V187.44H719.178ZM721.788 191.34V193.08H695.718V191.34H721.788ZM720.168 177.39V179.04H697.308V177.39H720.168ZM721.818 180.84V182.52H695.658V180.84H721.818ZM711.738 172.5C712.818 171.6 713.588 170.92 714.048 170.46C714.168 170.34 714.268 170.24 714.348 170.16C714.448 170.06 714.538 169.96 714.618 169.86L715.848 170.97C715.708 171.13 715.428 171.42 715.008 171.84C714.688 172.16 714.348 172.49 713.988 172.83C713.648 173.15 713.318 173.46 712.998 173.76L711.738 172.5ZM702.738 169.86C703.078 170.14 703.518 170.54 704.058 171.06C704.618 171.56 705.128 172.05 705.588 172.53L704.358 173.7C703.978 173.3 703.578 172.9 703.158 172.5C702.738 172.08 702.338 171.69 701.958 171.33C701.878 171.27 701.808 171.21 701.748 171.15C701.688 171.07 701.628 171.01 701.568 170.97L702.738 169.86ZM695.808 186.72C696.388 186.2 696.968 185.59 697.548 184.89C698.148 184.19 698.638 183.53 699.018 182.91L700.758 183.69C700.418 184.35 699.918 185.1 699.258 185.94C698.598 186.76 697.958 187.49 697.338 188.13L695.808 186.72ZM705.618 182.85C705.838 183.39 706.058 183.96 706.278 184.56C706.518 185.16 706.728 185.72 706.908 186.24L704.838 186.75C704.718 186.25 704.548 185.68 704.328 185.04C704.128 184.38 703.928 183.79 703.728 183.27L705.618 182.85ZM712.158 182.76C712.478 183.28 712.798 183.83 713.118 184.41C713.458 184.97 713.738 185.47 713.958 185.91L712.098 186.78C711.718 185.88 711.138 184.78 710.358 183.48L712.158 182.76ZM718.038 182.73C718.638 183.33 719.298 184.01 720.018 184.77C720.738 185.53 721.318 186.17 721.758 186.69L720.348 188.07C719.908 187.49 719.318 186.79 718.578 185.97C717.858 185.13 717.198 184.41 716.598 183.81L718.038 182.73ZM725.538 189.21C727.478 187.31 729.028 185.31 730.188 183.21C731.368 181.09 732.268 178.71 732.888 176.07H726.228V173.7H735.018V176.01C734.458 178.93 733.538 181.62 732.258 184.08C730.978 186.52 729.168 188.94 726.828 191.34L725.538 189.21ZM735.228 191.07C735.928 191.07 736.438 191.02 736.758 190.92C737.098 190.8 737.328 190.6 737.448 190.32C737.568 190.02 737.628 189.56 737.628 188.94V166.65H739.938V189.96C739.938 190.9 739.818 191.62 739.578 192.12C739.338 192.62 738.938 192.97 738.378 193.17C737.818 193.39 737.028 193.5 736.008 193.5H732.528L732.048 191.07H735.228ZM739.458 168.36C740.178 171.6 741.098 174.47 742.218 176.97C743.358 179.45 744.738 181.65 746.358 183.57C747.998 185.47 749.938 187.17 752.178 188.67L750.768 191.13C748.408 189.19 746.438 187.24 744.858 185.28C743.278 183.3 741.958 181.13 740.898 178.77C739.858 176.39 738.978 173.61 738.258 170.43L739.458 168.36ZM741.168 178.08C742.508 177.02 743.878 175.83 745.278 174.51C746.678 173.19 747.858 171.97 748.818 170.85L750.558 172.68C749.458 173.84 748.168 175.1 746.688 176.46C745.208 177.8 743.838 178.97 742.578 179.97L741.168 178.08ZM776.238 179.61V193.98H773.988V179.61H776.238ZM780.498 179.1V181.11H762.198V179.1H780.498ZM781.878 184.89V186.9H760.998V184.89H781.878ZM755.388 192.51C756.108 191.29 756.678 190.06 757.098 188.82C757.518 187.56 757.828 186.04 758.028 184.26C758.248 182.46 758.358 180.21 758.358 177.51V167.91H780.378V174.93H759.348V172.92H778.128V169.92H760.608V177.99C760.608 180.63 760.488 182.93 760.248 184.89C760.008 186.83 759.648 188.53 759.168 189.99C758.708 191.45 758.108 192.82 757.368 194.1L755.388 192.51ZM766.758 175.35C767.098 175.83 767.438 176.32 767.778 176.82C768.118 177.32 768.458 177.82 768.798 178.32L766.998 179.49C766.838 179.23 766.668 178.97 766.488 178.71C766.308 178.45 766.128 178.19 765.948 177.93C765.608 177.41 765.268 176.9 764.928 176.4L766.758 175.35ZM772.218 179.88C772.818 179.1 773.318 178.42 773.718 177.84C774.138 177.24 774.538 176.62 774.918 175.98C774.998 175.88 775.068 175.78 775.128 175.68C775.188 175.58 775.248 175.48 775.308 175.38L777.498 176.01C777.238 176.41 776.988 176.79 776.748 177.15C776.508 177.51 776.258 177.87 775.998 178.23C776.038 178.19 775.488 178.95 774.348 180.51L772.218 179.88ZM761.868 192.78C763.148 191.8 764.058 190.97 764.598 190.29C765.158 189.59 765.528 188.79 765.708 187.89C765.908 186.97 766.008 185.62 766.008 183.84V179.61H768.198V183.72C768.198 185.7 768.068 187.28 767.808 188.46C767.548 189.62 767.088 190.64 766.428 191.52C765.768 192.38 764.768 193.31 763.428 194.31L761.868 192.78Z" fill="#3E3A39"/>
<defs>
<filter id="filter0_ig_761_246" x="23.4199" y="135.06" width="261.84" height="388.94" filterUnits="userSpaceOnUse" color-interpolation-filters="sRGB">
<feFlood flood-opacity="0" result="BackgroundImageFix"/>
<feBlend mode="normal" in="SourceGraphic" in2="BackgroundImageFix" result="shape"/>
<feColorMatrix in="SourceAlpha" type="matrix" values="0 0 0 0 0 0 0 0 0 0 0 0 0 0 0 0 0 0 127 0" result="hardAlpha"/>
<feOffset dx="4" dy="4"/>
<feGaussianBlur stdDeviation="2"/>
<feComposite in2="hardAlpha" operator="arithmetic" k2="-1" k3="1"/>
<feColorMatrix type="matrix" values="0 0 0 0 0.243137 0 0 0 0 0.227451 0 0 0 0 0.223529 0 0 0 0.25 0"/>
<feBlend mode="normal" in2="shape" result="effect1_innerShadow_761_246"/>
<feTurbulence type="fractalNoise" baseFrequency="0.99900001287460327 0.99900001287460327" numOctaves="3" seed="8682" />
<feDisplacementMap in="effect1_innerShadow_761_246" scale="4" xChannelSelector="R" yChannelSelector="G" result="displacedImage" width="100%" height="100%" />
<feMerge result="effect2_texture_761_246">
<feMergeNode in="displacedImage"/>
</feMerge>
</filter>
<filter id="filter1_ig_761_246" x="1042.42" y="135.06" width="261.84" height="388.94" filterUnits="userSpaceOnUse" color-interpolation-filters="sRGB">
<feFlood flood-opacity="0" result="BackgroundImageFix"/>
<feBlend mode="normal" in="SourceGraphic" in2="BackgroundImageFix" result="shape"/>
<feColorMatrix in="SourceAlpha" type="matrix" values="0 0 0 0 0 0 0 0 0 0 0 0 0 0 0 0 0 0 127 0" result="hardAlpha"/>
<feOffset dx="4" dy="4"/>
<feGaussianBlur stdDeviation="2"/>
<feComposite in2="hardAlpha" operator="arithmetic" k2="-1" k3="1"/>
<feColorMatrix type="matrix" values="0 0 0 0 0.243137 0 0 0 0 0.227451 0 0 0 0 0.223529 0 0 0 0.25 0"/>
<feBlend mode="normal" in2="shape" result="effect1_innerShadow_761_246"/>
<feTurbulence type="fractalNoise" baseFrequency="0.99900001287460327 0.99900001287460327" numOctaves="3" seed="8682" />
<feDisplacementMap in="effect1_innerShadow_761_246" scale="4" xChannelSelector="R" yChannelSelector="G" result="displacedImage" width="100%" height="100%" />
<feMerge result="effect2_texture_761_246">
<feMergeNode in="displacedImage"/>
</feMerge>
</filter>
<filter id="filter2_ig_761_246" x="225" y="91" width="318" height="473" filterUnits="userSpaceOnUse" color-interpolation-filters="sRGB">
<feFlood flood-opacity="0" result="BackgroundImageFix"/>
<feBlend mode="normal" in="SourceGraphic" in2="BackgroundImageFix" result="shape"/>
<feColorMatrix in="SourceAlpha" type="matrix" values="0 0 0 0 0 0 0 0 0 0 0 0 0 0 0 0 0 0 127 0" result="hardAlpha"/>
<feOffset dx="4" dy="4"/>
<feGaussianBlur stdDeviation="2"/>
<feComposite in2="hardAlpha" operator="arithmetic" k2="-1" k3="1"/>
<feColorMatrix type="matrix" values="0 0 0 0 0.243137 0 0 0 0 0.227451 0 0 0 0 0.223529 0 0 0 0.25 0"/>
<feBlend mode="normal" in2="shape" result="effect1_innerShadow_761_246"/>
<feTurbulence type="fractalNoise" baseFrequency="0.99900001287460327 0.99900001287460327" numOctaves="3" seed="8682" />
<feDisplacementMap in="effect1_innerShadow_761_246" scale="4" xChannelSelector="R" yChannelSelector="G" result="displacedImage" width="100%" height="100%" />
<feMerge result="effect2_texture_761_246">
<feMergeNode in="displacedImage"/>
</feMerge>
</filter>
<filter id="filter3_ig_761_246" x="795" y="91" width="318" height="473" filterUnits="userSpaceOnUse" color-interpolation-filters="sRGB">
<feFlood flood-opacity="0" result="BackgroundImageFix"/>
<feBlend mode="normal" in="SourceGraphic" in2="BackgroundImageFix" result="shape"/>
<feColorMatrix in="SourceAlpha" type="matrix" values="0 0 0 0 0 0 0 0 0 0 0 0 0 0 0 0 0 0 127 0" result="hardAlpha"/>
<feOffset dx="4" dy="4"/>
<feGaussianBlur stdDeviation="2"/>
<feComposite in2="hardAlpha" operator="arithmetic" k2="-1" k3="1"/>
<feColorMatrix type="matrix" values="0 0 0 0 0.243137 0 0 0 0 0.227451 0 0 0 0 0.223529 0 0 0 0.25 0"/>
<feBlend mode="normal" in2="shape" result="effect1_innerShadow_761_246"/>
<feTurbulence type="fractalNoise" baseFrequency="0.99900001287460327 0.99900001287460327" numOctaves="3" seed="8682" />
<feDisplacementMap in="effect1_innerShadow_761_246" scale="4" xChannelSelector="R" yChannelSelector="G" result="displacedImage" width="100%" height="100%" />
<feMerge result="effect2_texture_761_246">
<feMergeNode in="displacedImage"/>
</feMerge>
</filter>
<filter id="filter4_ig_761_246" x="472.872" y="37.7153" width="382.655" height="567.139" filterUnits="userSpaceOnUse" color-interpolation-filters="sRGB">
<feFlood flood-opacity="0" result="BackgroundImageFix"/>
<feBlend mode="normal" in="SourceGraphic" in2="BackgroundImageFix" result="shape"/>
<feColorMatrix in="SourceAlpha" type="matrix" values="0 0 0 0 0 0 0 0 0 0 0 0 0 0 0 0 0 0 127 0" result="hardAlpha"/>
<feOffset dx="4" dy="4"/>
<feGaussianBlur stdDeviation="2"/>
<feComposite in2="hardAlpha" operator="arithmetic" k2="-1" k3="1"/>
<feColorMatrix type="matrix" values="0 0 0 0 0.243137 0 0 0 0 0.227451 0 0 0 0 0.223529 0 0 0 0.25 0"/>
<feBlend mode="normal" in2="shape" result="effect1_innerShadow_761_246"/>
<feTurbulence type="fractalNoise" baseFrequency="0.99900001287460327 0.99900001287460327" numOctaves="3" seed="8682" />
<feDisplacementMap in="effect1_innerShadow_761_246" scale="4" xChannelSelector="R" yChannelSelector="G" result="displacedImage" width="100%" height="100%" />
<feMerge result="effect2_texture_761_246">
<feMergeNode in="displacedImage"/>
</feMerge>
</filter>
<filter id="filter5_g_761_246" x="463.185" y="614.79" width="79.7441" height="79.7437" filterUnits="userSpaceOnUse" color-interpolation-filters="sRGB">
<feFlood flood-opacity="0" result="BackgroundImageFix"/>
<feBlend mode="normal" in="SourceGraphic" in2="BackgroundImageFix" result="shape"/>
<feTurbulence type="fractalNoise" baseFrequency="0.99900001287460327 0.99900001287460327" numOctaves="3" seed="2059" />
<feDisplacementMap in="shape" scale="8" xChannelSelector="R" yChannelSelector="G" result="displacedImage" width="100%" height="100%" />
<feMerge result="effect1_texture_761_246">
<feMergeNode in="displacedImage"/>
</feMerge>
</filter>
</defs>
</svg>
