<svg width="1335" height="720" viewBox="0 0 1335 720" fill="none" xmlns="http://www.w3.org/2000/svg">
<rect y="110" width="286.645" height="500" rx="30" fill="white"/>
<rect x="0.5" y="110.5" width="285.645" height="499" rx="29.5" stroke="#3E3A39" stroke-opacity="0.6" stroke-dasharray="4 4"/>
<g opacity="0.4" filter="url(#filter0_g_2024_2762)">
<rect x="29.001" y="143.833" width="227.013" height="303.56" rx="11.5" stroke="#3E3A39" stroke-opacity="0.6"/>
</g>
<g opacity="0.6">
<rect x="-0.5" y="0.5" width="78.2804" height="33.5951" rx="16.7975" transform="matrix(-1 0 0 1 111.106 491.514)" stroke="#3E3A39" stroke-opacity="0.6" stroke-linejoin="round"/>
<rect x="-0.5" y="0.5" width="78.2804" height="33.5951" rx="16.7975" transform="matrix(-1 0 0 1 111.106 531.875)" stroke="#3E3A39" stroke-opacity="0.6" stroke-linejoin="round"/>
<rect x="29.001" y="487.689" width="86.9292" height="82.6048" rx="11.5" stroke="#3E3A39" stroke-opacity="0.2" stroke-linejoin="round"/>
</g>
<g opacity="0.6">
<rect x="137.309" y="507.622" width="118.435" height="43.1911" rx="21.5956" stroke="#3E3A39" stroke-opacity="0.6" stroke-linejoin="round"/>
<path d="M204.483 561.869C204.484 561.991 204.46 562.113 204.413 562.226C204.366 562.339 204.298 562.442 204.212 562.529L197.184 569.555C197.009 569.729 196.773 569.827 196.526 569.827C196.279 569.827 196.042 569.729 195.868 569.555L188.84 562.529C188.665 562.354 188.567 562.117 188.567 561.869C188.568 561.622 188.666 561.385 188.841 561.21C189.016 561.035 189.253 560.937 189.501 560.937C189.748 560.937 189.985 561.036 190.16 561.211L196.526 567.577L202.892 561.211C203.022 561.081 203.188 560.992 203.369 560.956C203.549 560.92 203.736 560.939 203.906 561.009C204.077 561.08 204.222 561.199 204.324 561.352C204.427 561.505 204.482 561.685 204.482 561.869L204.483 561.869Z" fill="#3E3A39" fill-opacity="0.2"/>
<path d="M188.569 496.566C188.568 496.444 188.592 496.323 188.639 496.209C188.685 496.096 188.754 495.993 188.84 495.906L195.868 488.881C196.042 488.706 196.279 488.608 196.526 488.608C196.773 488.608 197.01 488.706 197.184 488.881L204.212 495.906C204.386 496.081 204.485 496.319 204.484 496.566C204.484 496.813 204.386 497.051 204.211 497.225C204.036 497.4 203.799 497.498 203.551 497.498C203.304 497.498 203.067 497.4 202.892 497.225L196.526 490.859L190.16 497.225C190.03 497.355 189.864 497.443 189.683 497.479C189.503 497.515 189.315 497.497 189.145 497.426C188.975 497.356 188.83 497.236 188.727 497.083C188.625 496.93 188.57 496.75 188.57 496.566L188.569 496.566Z" fill="#3E3A39" fill-opacity="0.2"/>
</g>
<rect x="1048" y="110" width="286.645" height="500" rx="30" fill="white"/>
<rect x="1048.5" y="110.5" width="285.645" height="499" rx="29.5" stroke="#3E3A39" stroke-opacity="0.6" stroke-dasharray="4 4"/>
<g opacity="0.4" filter="url(#filter1_g_2024_2762)">
<rect x="1077" y="143.833" width="227.013" height="303.56" rx="11.5" stroke="#3E3A39" stroke-opacity="0.6"/>
</g>
<g opacity="0.6">
<rect x="-0.5" y="0.5" width="78.2804" height="33.5951" rx="16.7975" transform="matrix(-1 0 0 1 1159.11 491.514)" stroke="#3E3A39" stroke-opacity="0.6" stroke-linejoin="round"/>
<rect x="-0.5" y="0.5" width="78.2804" height="33.5951" rx="16.7975" transform="matrix(-1 0 0 1 1159.11 531.875)" stroke="#3E3A39" stroke-opacity="0.6" stroke-linejoin="round"/>
<rect x="1077" y="487.689" width="86.9292" height="82.6048" rx="11.5" stroke="#3E3A39" stroke-opacity="0.2" stroke-linejoin="round"/>
</g>
<g opacity="0.6">
<rect x="1185.31" y="507.622" width="118.435" height="43.1911" rx="21.5956" stroke="#3E3A39" stroke-opacity="0.6" stroke-linejoin="round"/>
<path d="M1252.48 561.869C1252.48 561.991 1252.46 562.113 1252.41 562.226C1252.37 562.339 1252.3 562.442 1252.21 562.529L1245.18 569.555C1245.01 569.729 1244.77 569.827 1244.53 569.827C1244.28 569.827 1244.04 569.729 1243.87 569.555L1236.84 562.529C1236.67 562.354 1236.57 562.117 1236.57 561.869C1236.57 561.622 1236.67 561.385 1236.84 561.21C1237.02 561.035 1237.25 560.937 1237.5 560.937C1237.75 560.937 1237.99 561.036 1238.16 561.211L1244.53 567.577L1250.89 561.211C1251.02 561.081 1251.19 560.992 1251.37 560.956C1251.55 560.92 1251.74 560.939 1251.91 561.009C1252.08 561.08 1252.22 561.199 1252.32 561.352C1252.43 561.505 1252.48 561.685 1252.48 561.869L1252.48 561.869Z" fill="#3E3A39" fill-opacity="0.2"/>
<path d="M1236.57 496.566C1236.57 496.444 1236.59 496.323 1236.64 496.209C1236.69 496.096 1236.75 495.993 1236.84 495.906L1243.87 488.881C1244.04 488.706 1244.28 488.608 1244.53 488.608C1244.77 488.608 1245.01 488.706 1245.18 488.881L1252.21 495.906C1252.39 496.081 1252.48 496.319 1252.48 496.566C1252.48 496.813 1252.39 497.051 1252.21 497.225C1252.04 497.4 1251.8 497.498 1251.55 497.498C1251.3 497.498 1251.07 497.4 1250.89 497.225L1244.53 490.859L1238.16 497.225C1238.03 497.355 1237.86 497.443 1237.68 497.479C1237.5 497.515 1237.32 497.497 1237.15 497.426C1236.98 497.356 1236.83 497.236 1236.73 497.083C1236.62 496.93 1236.57 496.75 1236.57 496.566L1236.57 496.566Z" fill="#3E3A39" fill-opacity="0.2"/>
</g>
<rect x="187" y="60" width="343.974" height="600" rx="30" fill="white"/>
<rect x="187.5" y="60.5" width="342.974" height="599" rx="29.5" stroke="#3E3A39" stroke-opacity="0.6" stroke-dasharray="4 4"/>
<g opacity="0.4" filter="url(#filter2_g_2024_2762)">
<rect x="221.701" y="100.5" width="272.616" height="364.472" rx="11.5" stroke="#3E3A39" stroke-opacity="0.6"/>
</g>
<g opacity="0.6">
<rect x="-0.5" y="0.5" width="94.1365" height="40.5141" rx="20.257" transform="matrix(-1 0 0 1 320.527 517.817)" stroke="#3E3A39" stroke-opacity="0.6" stroke-linejoin="round"/>
<rect x="-0.5" y="0.5" width="94.1365" height="40.5141" rx="20.257" transform="matrix(-1 0 0 1 320.527 566.25)" stroke="#3E3A39" stroke-opacity="0.6" stroke-linejoin="round"/>
<rect x="221.701" y="513.127" width="104.515" height="99.3257" rx="11.5" stroke="#3E3A39" stroke-opacity="0.2" stroke-linejoin="round"/>
</g>
<g opacity="0.6">
<rect x="351.67" y="537.047" width="142.322" height="52.0293" rx="26.0147" stroke="#3E3A39" stroke-opacity="0.6" stroke-linejoin="round"/>
<path d="M432.38 602.243C432.381 602.39 432.352 602.535 432.296 602.671C432.24 602.807 432.158 602.931 432.054 603.035L423.621 611.466C423.412 611.675 423.128 611.793 422.831 611.793C422.535 611.793 422.251 611.675 422.041 611.466L413.609 603.035C413.399 602.825 413.281 602.54 413.281 602.243C413.281 601.946 413.4 601.662 413.61 601.452C413.82 601.242 414.104 601.125 414.401 601.125C414.698 601.125 414.983 601.243 415.192 601.453L422.831 609.092L430.47 601.453C430.627 601.297 430.826 601.191 431.043 601.147C431.259 601.104 431.484 601.127 431.688 601.211C431.892 601.296 432.067 601.439 432.19 601.622C432.313 601.806 432.378 602.022 432.378 602.243L432.38 602.243Z" fill="#3E3A39" fill-opacity="0.2"/>
<path d="M413.283 523.88C413.282 523.733 413.311 523.587 413.367 523.451C413.423 523.315 413.505 523.192 413.609 523.088L422.042 514.657C422.251 514.447 422.535 514.33 422.832 514.33C423.128 514.33 423.412 514.447 423.622 514.657L432.054 523.088C432.264 523.298 432.382 523.582 432.382 523.879C432.382 524.176 432.264 524.461 432.054 524.67C431.844 524.88 431.559 524.998 431.262 524.998C430.965 524.998 430.681 524.88 430.471 524.67L422.832 517.03L415.193 524.67C415.036 524.826 414.837 524.932 414.62 524.975C414.404 525.018 414.179 524.996 413.975 524.911C413.771 524.827 413.596 524.684 413.473 524.5C413.351 524.316 413.285 524.101 413.285 523.88L413.283 523.88Z" fill="#3E3A39" fill-opacity="0.2"/>
</g>
<rect x="803" y="60" width="343.974" height="600" rx="30" fill="white"/>
<rect x="803.5" y="60.5" width="342.974" height="599" rx="29.5" stroke="#3E3A39" stroke-opacity="0.6" stroke-dasharray="4 4"/>
<g opacity="0.4" filter="url(#filter3_g_2024_2762)">
<rect x="837.701" y="100.5" width="272.616" height="364.472" rx="11.5" stroke="#3E3A39" stroke-opacity="0.6"/>
</g>
<g opacity="0.6">
<rect x="-0.5" y="0.5" width="94.1365" height="40.5141" rx="20.257" transform="matrix(-1 0 0 1 936.527 517.817)" stroke="#3E3A39" stroke-opacity="0.6" stroke-linejoin="round"/>
<rect x="-0.5" y="0.5" width="94.1365" height="40.5141" rx="20.257" transform="matrix(-1 0 0 1 936.527 566.25)" stroke="#3E3A39" stroke-opacity="0.6" stroke-linejoin="round"/>
<rect x="837.701" y="513.127" width="104.515" height="99.3257" rx="11.5" stroke="#3E3A39" stroke-opacity="0.2" stroke-linejoin="round"/>
</g>
<g opacity="0.6">
<rect x="967.67" y="537.047" width="142.322" height="52.0293" rx="26.0147" stroke="#3E3A39" stroke-opacity="0.6" stroke-linejoin="round"/>
<path d="M1048.38 602.243C1048.38 602.39 1048.35 602.535 1048.3 602.671C1048.24 602.807 1048.16 602.931 1048.05 603.035L1039.62 611.466C1039.41 611.675 1039.13 611.793 1038.83 611.793C1038.54 611.793 1038.25 611.675 1038.04 611.466L1029.61 603.035C1029.4 602.825 1029.28 602.54 1029.28 602.243C1029.28 601.946 1029.4 601.662 1029.61 601.452C1029.82 601.242 1030.1 601.125 1030.4 601.125C1030.7 601.125 1030.98 601.243 1031.19 601.453L1038.83 609.092L1046.47 601.453C1046.63 601.297 1046.83 601.191 1047.04 601.147C1047.26 601.104 1047.48 601.127 1047.69 601.211C1047.89 601.296 1048.07 601.439 1048.19 601.622C1048.31 601.806 1048.38 602.022 1048.38 602.243L1048.38 602.243Z" fill="#3E3A39" fill-opacity="0.2"/>
<path d="M1029.28 523.88C1029.28 523.733 1029.31 523.587 1029.37 523.451C1029.42 523.315 1029.51 523.192 1029.61 523.088L1038.04 514.657C1038.25 514.447 1038.54 514.33 1038.83 514.33C1039.13 514.33 1039.41 514.447 1039.62 514.657L1048.05 523.088C1048.26 523.298 1048.38 523.582 1048.38 523.879C1048.38 524.176 1048.26 524.461 1048.05 524.67C1047.84 524.88 1047.56 524.998 1047.26 524.998C1046.97 524.998 1046.68 524.88 1046.47 524.67L1038.83 517.03L1031.19 524.67C1031.04 524.826 1030.84 524.932 1030.62 524.975C1030.4 525.018 1030.18 524.996 1029.97 524.911C1029.77 524.827 1029.6 524.684 1029.47 524.5C1029.35 524.316 1029.28 524.101 1029.28 523.88L1029.28 523.88Z" fill="#3E3A39" fill-opacity="0.2"/>
</g>
<rect x="461.5" y="0.5" width="411.769" height="719" rx="29.5" fill="white" stroke="#3E3A39"/>
<rect x="470.085" y="9.63135" width="393.507" height="700.738" rx="26.75" fill="white" stroke="#3E3A39" stroke-width="0.5"/>
<rect x="-0.5" y="0.5" width="113.164" height="48.8169" rx="24.4085" transform="matrix(-1 0 0 1 621.433 549.381)" stroke="#3E3A39" stroke-opacity="0.6" stroke-linejoin="round"/>
<rect x="-0.5" y="0.5" width="113.164" height="48.8169" rx="24.4085" transform="matrix(-1 0 0 1 621.433 607.5)" stroke="#3E3A39" stroke-opacity="0.6" stroke-linejoin="round"/>
<rect x="502.542" y="543.652" width="125.618" height="119.391" rx="11.5" stroke="#3E3A39" stroke-opacity="0.2" stroke-linejoin="round"/>
<g opacity="0.4" filter="url(#filter4_g_2024_2762)">
<rect x="502.542" y="48.5" width="327.339" height="437.567" rx="11.5" stroke="#3E3A39" stroke-opacity="0.6"/>
</g>
<path d="M620.26 259.68V261.96H606.1V259.68H620.26ZM607.69 264.15C608.29 265.01 608.8 265.76 609.22 266.4C609.8 267.28 610.36 268.14 610.9 268.98C611.44 269.82 611.92 270.56 612.34 271.2L610.54 272.37C609.86 271.29 609.1 270.1 608.26 268.8C607.42 267.48 606.67 266.32 606.01 265.32L607.69 264.15ZM612.19 278.1C612.89 278.1 613.4 278.05 613.72 277.95C614.06 277.83 614.29 277.62 614.41 277.32C614.53 277.02 614.59 276.55 614.59 275.91V253.62H616.9V276.54C616.9 277.54 616.77 278.32 616.51 278.88C616.27 279.42 615.85 279.81 615.25 280.05C614.65 280.31 613.8 280.44 612.7 280.44H609.1L608.62 278.1H612.19ZM593.5 278.01C596.16 275.13 598.19 272.2 599.59 269.22C601.01 266.24 602.03 262.89 602.65 259.17H594.37V256.89H604.9V259.2C604.16 263.4 603.03 267.13 601.51 270.39C600.01 273.65 597.8 276.93 594.88 280.23L593.5 278.01ZM596.08 261.27C597.44 263.09 599.14 265.48 601.18 268.44C603.24 271.38 605 273.96 606.46 276.18L604.57 277.62C603.17 275.4 601.46 272.82 599.44 269.88C597.42 266.92 595.71 264.48 594.31 262.56L596.08 261.27ZM635.17 276.99H646.84V279.18H635.17V276.99ZM639.85 257.01H642.19V270.36H639.85V257.01ZM631.84 262.44H650.29V264.72H631.84V262.44ZM623.8 263.61H629.08V275.94L632.08 273.3L632.86 275.67L627.37 280.41L625.93 278.55C626.31 278.21 626.56 277.92 626.68 277.68C626.82 277.44 626.89 277.14 626.89 276.78V265.86H623.8V263.61ZM626.62 254.07C627.28 254.85 628.03 255.76 628.87 256.8C629.73 257.82 630.36 258.62 630.76 259.2L629.02 260.82C628.64 260.22 628.02 259.38 627.16 258.3C626.3 257.22 625.54 256.3 624.88 255.54L626.62 254.07ZM632.74 256.29C635.4 256.19 638.23 256.01 641.23 255.75C644.25 255.49 646.73 255.19 648.67 254.85L649.06 257.01C647.12 257.35 644.59 257.66 641.47 257.94C638.37 258.2 635.52 258.38 632.92 258.48L632.74 256.29ZM634.06 269.19H648.01V281.13H645.73V271.44H636.34V281.13H634.06V269.19ZM656.59 261.03H664.93V263.04H656.59V261.03ZM669.22 255.51H678.7V272.97C678.7 274.21 678.43 275.09 677.89 275.61C677.37 276.11 676.48 276.36 675.22 276.36H672.67L672.25 274.08H674.38C675 274.08 675.46 274.02 675.76 273.9C676.06 273.76 676.26 273.56 676.36 273.3C676.46 273.02 676.51 272.62 676.51 272.1V257.82H671.38V281.01H669.22V255.51ZM654.49 277.71C654.83 277.41 655.07 277.14 655.21 276.9C655.35 276.66 655.42 276.38 655.42 276.06V255.15H666.16V268.8H656.44V266.79H664.06V257.19H657.55V276.27L664.03 273.27L664.96 275.25L655.45 279.6L654.49 277.71ZM663.1 269.94C663.66 270.82 664.39 272.02 665.29 273.54C666.19 275.06 666.98 276.43 667.66 277.65L665.71 278.73C665.11 277.59 664.37 276.24 663.49 274.68C662.63 273.1 661.91 271.84 661.33 270.9L663.1 269.94ZM683.8 263.31H689.5V275.97L692.86 273.12L693.52 275.49L687.85 280.17L686.41 278.34C686.77 278.02 686.99 277.76 687.07 277.56C687.17 277.34 687.22 277.04 687.22 276.66V265.59H683.8V263.31ZM687.07 254.07C687.73 254.87 688.49 255.82 689.35 256.92C690.21 258 690.9 258.9 691.42 259.62L689.59 261.18C688.93 260.28 688.17 259.27 687.31 258.15C686.45 257.01 685.76 256.12 685.24 255.48L687.07 254.07ZM694.12 255.57H708.1V267.21H696.91V275.31C696.91 276.07 696.98 276.63 697.12 276.99C697.26 277.33 697.51 277.57 697.87 277.71C698.23 277.83 698.79 277.89 699.55 277.89H704.77C705.57 277.89 706.13 277.84 706.45 277.74C706.79 277.62 707.02 277.41 707.14 277.11C707.26 276.81 707.35 276.27 707.41 275.49L707.56 271.77L709.81 272.22C709.73 274.2 709.66 275.55 709.6 276.27C709.52 277.39 709.38 278.21 709.18 278.73C708.98 279.25 708.62 279.61 708.1 279.81C707.58 280.03 706.75 280.14 705.61 280.14H698.71C697.63 280.14 696.8 280.02 696.22 279.78C695.66 279.56 695.26 279.16 695.02 278.58C694.8 277.98 694.69 277.12 694.69 276V264.93H705.85V257.91H694.12V255.57ZM714.01 264.72H740.17V266.76H714.01V264.72ZM713.59 276.63L726.22 270.78L726.7 271.83L727.18 272.76L714.58 278.73L713.59 276.63ZM717.13 259.83H734.83V261.81H717.13V259.83ZM723.49 278.61C724.23 278.61 724.77 278.56 725.11 278.46C725.47 278.36 725.71 278.18 725.83 277.92C725.97 277.64 726.04 277.22 726.04 276.66V265.47H728.32V277.5C728.32 278.36 728.2 279.02 727.96 279.48C727.72 279.94 727.31 280.27 726.73 280.47C726.17 280.67 725.38 280.77 724.36 280.77H721.33L720.88 278.61H723.49ZM727.66 266.28C728.38 268.02 729.27 269.54 730.33 270.84C731.39 272.14 732.73 273.32 734.35 274.38C735.97 275.42 737.96 276.39 740.32 277.29L739.27 279.39C736.87 278.35 734.88 277.32 733.3 276.3C731.74 275.28 730.4 274.11 729.28 272.79C728.18 271.47 727.19 269.86 726.31 267.96L727.66 266.28ZM730.12 272.31C731.34 271.49 732.57 270.64 733.81 269.76C735.05 268.86 736.04 268.09 736.78 267.45L738.25 269.28C737.87 269.58 737.34 269.97 736.66 270.45C735 271.63 733.25 272.83 731.41 274.05L730.12 272.31ZM717.25 267.21C717.87 267.63 718.7 268.23 719.74 269.01C720.78 269.79 721.59 270.43 722.17 270.93L720.82 272.61C720.12 272.03 719.28 271.37 718.3 270.63C717.34 269.87 716.57 269.28 715.99 268.86L717.25 267.21ZM716.32 254.94H736.21V265.59H733.96V256.95H716.32V254.94Z" fill="#3E3A39"/>
<path d="M544.09 377.5H560.32V379.66H544.09V377.5ZM545.8 369.25H558.76V371.53H545.8V369.25ZM551.2 370.42H553.42V378.19H551.2V370.42ZM544.75 365.86C546.95 364.78 548.9 363.57 550.6 362.23C552.32 360.87 553.75 359.4 554.89 357.82H545.95V355.57H557.86V357.7C556.42 359.76 554.73 361.63 552.79 363.31C550.85 364.99 548.58 366.51 545.98 367.87L544.75 365.86ZM552.97 361.24C553.35 361.46 553.76 361.71 554.2 361.99C554.66 362.27 555.15 362.56 555.67 362.86C558.57 364.66 560.23 365.7 560.65 365.98L559.45 367.9C556.93 366.22 554.41 364.62 551.89 363.1L552.97 361.24ZM533.74 374.08L544.87 372.46L545.05 374.71L533.98 376.33L533.74 374.08ZM534.4 366.52C535.04 365 535.74 362.98 536.5 360.46C537.28 357.92 537.91 355.6 538.39 353.5L540.37 353.89C539.99 355.59 539.51 357.46 538.93 359.5C538.37 361.54 537.81 363.36 537.25 364.96C537.01 365.66 536.82 366.19 536.68 366.55H544.3V368.71H534.4V366.52ZM539.41 361.18H541.51V381.07H539.35V367.81L539.41 367.21V361.18ZM533.95 357.58H544.9V359.77H533.95V357.58ZM585.79 357.46V358.84H568.15V357.46H585.79ZM587.14 354.64V361.69H566.8V354.64H587.14ZM569.05 360.25H584.95V356.11H569.05V360.25ZM587.17 366.46V373.9H566.8V366.46H587.17ZM569.02 372.4H584.95V367.9H569.02V372.4ZM578.08 367.15V379.78H575.92V367.15H578.08ZM588.04 375.52V377.08H565.93V375.52H588.04ZM590.02 378.67V380.26H563.95V378.67H590.02ZM590.32 363.25V364.84H563.65V363.25H590.32ZM585.91 369.43V370.87H568.06V369.43H585.91ZM616.87 355.54V380.83H614.47V357.88H599.71V380.86H597.31V355.54H616.87ZM615.4 376.42V378.73H598.39V376.42H615.4ZM615.4 365.86V368.2H598.39V365.86H615.4ZM648.7 371.95V373.96H634.48V371.95H648.7ZM642.76 367.39V378.58H640.54V367.39H642.76ZM649.45 366.25V368.23H634.03V366.25H649.45ZM650.32 377.68V379.81H632.68V377.68H650.32ZM629.89 356.68V381.04H627.88V356.68H629.89ZM633.55 362.05V364.3H623.95V362.05H633.55ZM648.28 355.3V363.49H635.02V355.3H648.28ZM637.18 361.51H646.12V357.25H637.18V361.51ZM623.29 373.69C624.45 371.95 625.48 370.03 626.38 367.93C627.28 365.83 627.95 363.85 628.39 361.99L629.38 364.24C628.9 366.18 628.23 368.17 627.37 370.21C626.53 372.23 625.58 374.04 624.52 375.64L623.29 373.69ZM629.74 366.64C631.16 367.82 632.57 369.04 633.97 370.3L632.68 371.92C631.8 371.04 630.43 369.79 628.57 368.17L629.74 366.64ZM624.07 356.29C625.61 356.07 627.22 355.81 628.9 355.51C630.58 355.19 632.02 354.88 633.22 354.58L633.73 356.71C632.55 356.99 631.07 357.29 629.29 357.61C627.51 357.93 625.83 358.2 624.25 358.42L624.07 356.29ZM657.43 382.27C657.93 382.03 658.34 381.75 658.66 381.43C658.98 381.13 659.22 380.78 659.38 380.38C659.54 379.98 659.62 379.52 659.62 379H657.91V375.85H661.03V379C661.03 379.96 660.8 380.82 660.34 381.58C659.9 382.34 659.17 382.98 658.15 383.5L657.43 382.27ZM687.01 355.45H706.96V369.58H687.01V355.45ZM689.35 357.67V367.3H704.62V357.67H689.35ZM701.41 371.11C702.79 372.29 705.17 374.41 708.55 377.47C708.83 377.71 709.09 377.95 709.33 378.19C709.59 378.41 709.83 378.62 710.05 378.82L708.31 380.89C707.29 379.83 705.92 378.52 704.2 376.96C702.5 375.38 701.02 374.04 699.76 372.94L701.41 371.11ZM683.53 378.94C685.01 377.98 686.55 376.78 688.15 375.34C689.77 373.9 691.17 372.47 692.35 371.05L694.09 372.79C692.99 374.15 691.62 375.6 689.98 377.14C688.36 378.66 686.79 379.95 685.27 381.01L683.53 378.94ZM740.08 376.93V379.12H721.51V376.93H740.08ZM739 366.79V368.95H722.8V366.79H739ZM731.98 361.66V377.8H729.7V361.66H731.98ZM739.81 357.25V359.47H713.8V357.25H739.81ZM720.19 365.62V380.92H717.91V365.65L720.19 365.62ZM713.56 370C715.82 368.12 717.87 365.71 719.71 362.77C721.57 359.81 723.04 356.63 724.12 353.23L726.34 353.74C725.1 357.64 723.53 361.11 721.63 364.15C719.73 367.19 717.4 369.94 714.64 372.4L713.56 370ZM758.14 353.62V364.87H755.8V353.62H758.14ZM766.45 377.17V379.33H744.55V377.17H766.45ZM766.72 370.06V372.28H746.05V370.06H766.72ZM747.46 354.49C747.54 354.57 747.86 354.91 748.42 355.51C749.2 356.37 750 357.26 750.82 358.18C751.66 359.1 752.39 359.92 753.01 360.64L751.21 362.2C750.63 361.44 749.79 360.45 748.69 359.23C747.59 357.99 746.63 356.93 745.81 356.05L747.46 354.49ZM760.96 360.82C761.82 359.9 762.79 358.83 763.87 357.61C764.95 356.39 765.8 355.37 766.42 354.55L768.19 355.99C767.53 356.83 766.63 357.89 765.49 359.17C764.37 360.45 763.41 361.51 762.61 362.35L760.96 360.82ZM768.01 363.4V380.92H765.61V365.62H745.21V363.4H768.01ZM800.08 355.81V358.06H773.95V355.81H800.08ZM787.48 356.53V380.86H784.9V356.53H787.48ZM789.28 362.56C790.66 363.54 792.31 364.77 794.23 366.25C796.17 367.71 797.61 368.83 798.55 369.61L797.08 371.65C795.98 370.71 794.53 369.54 792.73 368.14C790.93 366.72 789.34 365.5 787.96 364.48L789.28 362.56Z" fill="#3E3A39"/>
<path d="M550.212 162.98C550.872 162.18 551.532 161.28 552.192 160.28C552.852 159.28 553.472 158.26 554.052 157.22C554.652 156.16 555.242 155.06 555.822 153.92L557.802 154.79C557.022 156.27 556.182 157.75 555.282 159.23C554.402 160.69 553.602 161.88 552.882 162.8L557.652 162.32L557.202 164.3L550.662 164.96L550.212 162.98ZM550.602 170.36C552.042 168.76 553.492 166.89 554.952 164.75C556.432 162.59 557.622 160.64 558.522 158.9L560.382 159.98C559.602 161.46 558.542 163.2 557.202 165.2C555.882 167.2 554.732 168.81 553.752 170.03L559.512 169.13L559.542 171.29L551.112 172.58L550.602 170.36ZM549.972 176.78L559.632 174.92L559.842 177.23L550.272 179.09L549.972 176.78ZM560.562 178.85C560.882 178.57 561.082 178.36 561.162 178.22C561.242 178.08 561.282 177.87 561.282 177.59V156.62C563.282 156.44 565.392 156.19 567.612 155.87C569.852 155.55 571.952 155.19 573.912 154.79C574.112 154.75 574.312 154.71 574.512 154.67C574.712 154.63 574.912 154.59 575.112 154.55L575.502 156.74C573.822 157.12 571.812 157.5 569.472 157.88C567.152 158.24 565.142 158.51 563.442 158.69V177.53L568.032 175.01L568.482 177.23L561.552 180.92L560.562 178.85ZM562.452 165.38H576.402V167.57H562.452V165.38ZM570.432 157.1C570.472 161.7 570.612 165.62 570.852 168.86C571.112 172.08 571.542 174.64 572.142 176.54C572.322 177.16 572.522 177.62 572.742 177.92C572.962 178.2 573.192 178.34 573.432 178.34C573.672 178.34 573.862 178.22 574.002 177.98C574.142 177.72 574.292 177.25 574.452 176.57C574.472 176.45 574.492 176.3 574.512 176.12C574.552 175.92 574.592 175.71 574.632 175.49C574.692 174.95 574.792 174.35 574.932 173.69L576.702 174.38C576.602 174.9 576.482 175.49 576.342 176.15C576.222 176.79 576.102 177.38 575.982 177.92C575.742 178.78 575.432 179.44 575.052 179.9C574.672 180.36 574.132 180.59 573.432 180.59C572.612 180.59 571.922 180.29 571.362 179.69C570.802 179.09 570.342 178.14 569.982 176.84C569.462 174.98 569.072 172.43 568.812 169.19C568.552 165.95 568.392 161.92 568.332 157.1H570.432ZM595.242 161.21V162.89H585.822V161.21H595.242ZM588.882 176.69C588.882 177.35 589.012 177.8 589.272 178.04C589.552 178.26 590.062 178.37 590.802 178.37H595.722C596.322 178.37 596.772 178.33 597.072 178.25C597.372 178.17 597.582 178.03 597.702 177.83C597.842 177.61 597.942 177.28 598.002 176.84L598.062 176.15C598.082 175.81 598.112 175.2 598.152 174.32L600.162 174.8C600.142 174.96 600.122 175.17 600.102 175.43C600.082 175.69 600.062 175.98 600.042 176.3C600.042 176.3 600.002 176.78 599.922 177.74C599.842 178.42 599.672 178.94 599.412 179.3C599.172 179.68 598.782 179.95 598.242 180.11C597.702 180.27 596.962 180.35 596.022 180.35H590.172C588.932 180.35 588.052 180.13 587.532 179.69C587.012 179.27 586.752 178.55 586.752 177.53V172.88H588.882V176.69ZM579.582 178.85C580.182 178.05 580.772 177.12 581.352 176.06C581.952 175 582.462 173.96 582.882 172.94L584.892 173.75C584.492 174.73 583.992 175.77 583.392 176.87C582.792 177.97 582.162 179.02 581.502 180.02L579.582 178.85ZM602.532 172.85C603.252 173.81 604.192 175.17 605.352 176.93L606.282 178.34L604.362 179.54C603.702 178.44 603.182 177.59 602.802 176.99C601.922 175.63 601.252 174.62 600.792 173.96L602.532 172.85ZM592.692 171.41C593.012 171.71 594.192 172.92 596.232 175.04L594.762 176.57C594.402 176.13 593.862 175.52 593.142 174.74C592.422 173.96 591.802 173.31 591.282 172.79L592.692 171.41ZM594.282 164.87V170.72H586.332V164.87H594.282ZM588.102 169.1H592.512V166.4H588.102V169.1ZM580.392 171.92C581.012 170.78 581.472 169.75 581.772 168.83C582.092 167.91 582.312 166.88 582.432 165.74C582.552 164.6 582.612 163.12 582.612 161.3V157.13H606.042V159.14H584.742V162.02C584.742 163.74 584.672 165.21 584.532 166.43C584.392 167.65 584.142 168.79 583.782 169.85C583.442 170.89 582.962 171.99 582.342 173.15L580.392 171.92ZM594.822 170.03C596.522 168.83 598.032 167.42 599.352 165.8C600.692 164.16 601.862 162.33 602.862 160.31L604.662 161.18C603.482 163.46 602.192 165.48 600.792 167.24C599.412 168.98 597.802 170.52 595.962 171.86L594.822 170.03ZM597.552 153.53C597.672 155.05 597.842 156.57 598.062 158.09C598.102 158.35 598.132 158.61 598.152 158.87C598.192 159.13 598.232 159.39 598.272 159.65C598.532 161.29 598.782 162.66 599.022 163.76C599.262 164.86 599.562 165.84 599.922 166.7C600.282 167.56 600.732 168.32 601.272 168.98C601.632 169.42 601.952 169.73 602.232 169.91C602.512 170.07 602.782 170.15 603.042 170.15C603.322 170.15 603.582 169.97 603.822 169.61C604.062 169.25 604.242 168.73 604.362 168.05C604.382 167.95 604.402 167.85 604.422 167.75C604.442 167.63 604.462 167.51 604.482 167.39C604.522 167.09 604.562 166.79 604.602 166.49C604.662 166.17 604.702 165.87 604.722 165.59L606.522 166.16C606.362 167.26 606.202 168.18 606.042 168.92C605.762 170.14 605.362 171.03 604.842 171.59C604.322 172.13 603.722 172.4 603.042 172.4C602.422 172.4 601.832 172.23 601.272 171.89C600.732 171.55 600.122 170.96 599.442 170.12C598.562 168.98 597.852 167.46 597.312 165.56C596.792 163.64 596.312 161.07 595.872 157.85C595.732 156.85 595.582 155.43 595.422 153.59L597.552 153.53ZM601.872 153.74C602.152 154.32 602.442 154.96 602.742 155.66C603.042 156.34 603.292 156.93 603.492 157.43L601.752 158.06C601.312 156.88 600.812 155.65 600.252 154.37L601.872 153.74ZM621.943 176.54H633.493V179H619.363V156.8H633.103V159.26H621.943V166.22H632.473V168.65H621.943V176.54ZM646.93 166.13V168.47H635.83V166.13H646.93ZM653.113 179H650.623V163.1H653.113V179ZM653.563 158.09C653.563 158.61 653.403 159.02 653.083 159.32C652.763 159.62 652.343 159.77 651.823 159.77C651.303 159.77 650.893 159.62 650.593 159.32C650.313 159.02 650.173 158.61 650.173 158.09C650.173 157.57 650.323 157.16 650.623 156.86C650.923 156.54 651.323 156.38 651.823 156.38C652.343 156.38 652.763 156.54 653.083 156.86C653.403 157.16 653.563 157.57 653.563 158.09ZM657.647 179V163.1H660.137V165.35H660.287C660.767 164.55 661.467 163.91 662.387 163.43C663.327 162.93 664.267 162.68 665.207 162.68C666.967 162.68 668.347 163.23 669.347 164.33C670.347 165.41 670.847 166.94 670.847 168.92V179H668.357V169.28C668.357 168 667.997 166.96 667.277 166.16C666.557 165.36 665.657 164.96 664.577 164.96C663.697 164.96 662.917 165.16 662.237 165.56C661.577 165.94 661.057 166.48 660.677 167.18C660.317 167.88 660.137 168.68 660.137 169.58V179H657.647ZM677.539 156.8V179H675.049V156.8H677.539ZM677.239 173.66L677.389 170.24L684.199 163.1H687.499L677.239 173.66ZM679.279 170.3L681.229 168.71L687.889 179H684.769L679.279 170.3ZM712.788 155.78V168.56H710.688V155.78H712.788ZM722.598 154.94V162.71H700.908V154.94H722.598ZM703.098 161.09H720.408V156.56H703.098V161.09ZM712.848 171.95V179.09H710.628V171.95H712.848ZM722.178 174.44V176.06H701.298V174.44H722.178ZM724.788 178.34V180.08H698.718V178.34H724.788ZM723.168 164.39V166.04H700.308V164.39H723.168ZM724.818 167.84V169.52H698.658V167.84H724.818ZM714.738 159.5C715.818 158.6 716.588 157.92 717.048 157.46C717.168 157.34 717.268 157.24 717.348 157.16C717.448 157.06 717.538 156.96 717.618 156.86L718.848 157.97C718.708 158.13 718.428 158.42 718.008 158.84C717.688 159.16 717.348 159.49 716.988 159.83C716.648 160.15 716.318 160.46 715.998 160.76L714.738 159.5ZM705.738 156.86C706.078 157.14 706.518 157.54 707.058 158.06C707.618 158.56 708.128 159.05 708.588 159.53L707.358 160.7C706.978 160.3 706.578 159.9 706.158 159.5C705.738 159.08 705.338 158.69 704.958 158.33C704.878 158.27 704.808 158.21 704.748 158.15C704.688 158.07 704.628 158.01 704.568 157.97L705.738 156.86ZM698.808 173.72C699.388 173.2 699.968 172.59 700.548 171.89C701.148 171.19 701.638 170.53 702.018 169.91L703.758 170.69C703.418 171.35 702.918 172.1 702.258 172.94C701.598 173.76 700.958 174.49 700.338 175.13L698.808 173.72ZM708.618 169.85C708.838 170.39 709.058 170.96 709.278 171.56C709.518 172.16 709.728 172.72 709.908 173.24L707.838 173.75C707.718 173.25 707.548 172.68 707.328 172.04C707.128 171.38 706.928 170.79 706.728 170.27L708.618 169.85ZM715.158 169.76C715.478 170.28 715.798 170.83 716.118 171.41C716.458 171.97 716.738 172.47 716.958 172.91L715.098 173.78C714.718 172.88 714.138 171.78 713.358 170.48L715.158 169.76ZM721.038 169.73C721.638 170.33 722.298 171.01 723.018 171.77C723.738 172.53 724.318 173.17 724.758 173.69L723.348 175.07C722.908 174.49 722.318 173.79 721.578 172.97C720.858 172.13 720.198 171.41 719.598 170.81L721.038 169.73ZM728.538 176.21C730.478 174.31 732.028 172.31 733.188 170.21C734.368 168.09 735.268 165.71 735.888 163.07H729.228V160.7H738.018V163.01C737.458 165.93 736.538 168.62 735.258 171.08C733.978 173.52 732.168 175.94 729.828 178.34L728.538 176.21ZM738.228 178.07C738.928 178.07 739.438 178.02 739.758 177.92C740.098 177.8 740.328 177.6 740.448 177.32C740.568 177.02 740.628 176.56 740.628 175.94V153.65H742.938V176.96C742.938 177.9 742.818 178.62 742.578 179.12C742.338 179.62 741.938 179.97 741.378 180.17C740.818 180.39 740.028 180.5 739.008 180.5H735.528L735.048 178.07H738.228ZM742.458 155.36C743.178 158.6 744.098 161.47 745.218 163.97C746.358 166.45 747.738 168.65 749.358 170.57C750.998 172.47 752.938 174.17 755.178 175.67L753.768 178.13C751.408 176.19 749.438 174.24 747.858 172.28C746.278 170.3 744.958 168.13 743.898 165.77C742.858 163.39 741.978 160.61 741.258 157.43L742.458 155.36ZM744.168 165.08C745.508 164.02 746.878 162.83 748.278 161.51C749.678 160.19 750.858 158.97 751.818 157.85L753.558 159.68C752.458 160.84 751.168 162.1 749.688 163.46C748.208 164.8 746.838 165.97 745.578 166.97L744.168 165.08ZM779.238 166.61V180.98H776.988V166.61H779.238ZM783.498 166.1V168.11H765.198V166.1H783.498ZM784.878 171.89V173.9H763.998V171.89H784.878ZM758.388 179.51C759.108 178.29 759.678 177.06 760.098 175.82C760.518 174.56 760.828 173.04 761.028 171.26C761.248 169.46 761.358 167.21 761.358 164.51V154.91H783.378V161.93H762.348V159.92H781.128V156.92H763.608V164.99C763.608 167.63 763.488 169.93 763.248 171.89C763.008 173.83 762.648 175.53 762.168 176.99C761.708 178.45 761.108 179.82 760.368 181.1L758.388 179.51ZM769.758 162.35C770.098 162.83 770.438 163.32 770.778 163.82C771.118 164.32 771.458 164.82 771.798 165.32L769.998 166.49C769.838 166.23 769.668 165.97 769.488 165.71C769.308 165.45 769.128 165.19 768.948 164.93C768.608 164.41 768.268 163.9 767.928 163.4L769.758 162.35ZM775.218 166.88C775.818 166.1 776.318 165.42 776.718 164.84C777.138 164.24 777.538 163.62 777.918 162.98C777.998 162.88 778.068 162.78 778.128 162.68C778.188 162.58 778.248 162.48 778.308 162.38L780.498 163.01C780.238 163.41 779.988 163.79 779.748 164.15C779.508 164.51 779.258 164.87 778.998 165.23C779.038 165.19 778.488 165.95 777.348 167.51L775.218 166.88ZM764.868 179.78C766.148 178.8 767.058 177.97 767.598 177.29C768.158 176.59 768.528 175.79 768.708 174.89C768.908 173.97 769.008 172.62 769.008 170.84V166.61H771.198V170.72C771.198 172.7 771.068 174.28 770.808 175.46C770.548 176.62 770.088 177.64 769.428 178.52C768.768 179.38 767.768 180.31 766.428 181.31L764.868 179.78Z" fill="#3E3A39"/>
<rect x="658.504" y="572.356" width="170.987" height="62.6352" rx="29.5" stroke="#3E3A39" stroke-opacity="0.6" stroke-linejoin="round"/>
<path d="M755.457 650.692C755.457 650.868 755.423 651.043 755.356 651.206C755.289 651.369 755.19 651.517 755.066 651.642L744.946 661.759C744.695 662.01 744.354 662.151 743.998 662.151C743.643 662.151 743.302 662.01 743.05 661.759L732.931 651.642C732.679 651.39 732.538 651.048 732.538 650.692C732.538 650.336 732.68 649.994 732.932 649.743C733.184 649.491 733.526 649.35 733.882 649.35C734.238 649.35 734.58 649.492 734.831 649.744L743.998 658.911L753.165 649.744C753.353 649.556 753.592 649.429 753.852 649.377C754.112 649.325 754.381 649.352 754.626 649.453C754.871 649.555 755.081 649.727 755.228 649.947C755.376 650.167 755.454 650.427 755.455 650.692L755.457 650.692Z" fill="#3E3A39" fill-opacity="0.2"/>
<path d="M732.539 556.655C732.539 556.479 732.573 556.304 732.64 556.141C732.707 555.978 732.806 555.83 732.93 555.705L743.05 545.588C743.301 545.337 743.642 545.196 743.998 545.196C744.353 545.196 744.694 545.337 744.946 545.588L755.065 555.705C755.317 555.957 755.458 556.299 755.458 556.655C755.458 557.011 755.316 557.353 755.064 557.605C754.812 557.856 754.47 557.998 754.114 557.997C753.758 557.997 753.416 557.855 753.165 557.603L743.998 548.437L734.831 557.603C734.643 557.791 734.404 557.918 734.144 557.97C733.884 558.022 733.615 557.995 733.37 557.894C733.125 557.792 732.915 557.621 732.768 557.4C732.62 557.18 732.542 556.921 732.541 556.655L732.539 556.655Z" fill="#3E3A39" fill-opacity="0.2"/>
<rect x="597.026" y="21.1074" width="140.717" height="17.5896" rx="8.79479" fill="#D9D9D9"/>
<defs>
<filter id="filter0_g_2024_2762" x="26.501" y="141.333" width="232.013" height="308.56" filterUnits="userSpaceOnUse" color-interpolation-filters="sRGB">
<feFlood flood-opacity="0" result="BackgroundImageFix"/>
<feBlend mode="normal" in="SourceGraphic" in2="BackgroundImageFix" result="shape"/>
<feTurbulence type="fractalNoise" baseFrequency="0.99900001287460327 0.99900001287460327" numOctaves="3" seed="8682" />
<feDisplacementMap in="shape" scale="4" xChannelSelector="R" yChannelSelector="G" result="displacedImage" width="100%" height="100%" />
<feMerge result="effect1_texture_2024_2762">
<feMergeNode in="displacedImage"/>
</feMerge>
</filter>
<filter id="filter1_g_2024_2762" x="1074.5" y="141.333" width="232.013" height="308.56" filterUnits="userSpaceOnUse" color-interpolation-filters="sRGB">
<feFlood flood-opacity="0" result="BackgroundImageFix"/>
<feBlend mode="normal" in="SourceGraphic" in2="BackgroundImageFix" result="shape"/>
<feTurbulence type="fractalNoise" baseFrequency="0.99900001287460327 0.99900001287460327" numOctaves="3" seed="8682" />
<feDisplacementMap in="shape" scale="4" xChannelSelector="R" yChannelSelector="G" result="displacedImage" width="100%" height="100%" />
<feMerge result="effect1_texture_2024_2762">
<feMergeNode in="displacedImage"/>
</feMerge>
</filter>
<filter id="filter2_g_2024_2762" x="219.201" y="98" width="277.615" height="369.472" filterUnits="userSpaceOnUse" color-interpolation-filters="sRGB">
<feFlood flood-opacity="0" result="BackgroundImageFix"/>
<feBlend mode="normal" in="SourceGraphic" in2="BackgroundImageFix" result="shape"/>
<feTurbulence type="fractalNoise" baseFrequency="0.99900001287460327 0.99900001287460327" numOctaves="3" seed="8682" />
<feDisplacementMap in="shape" scale="4" xChannelSelector="R" yChannelSelector="G" result="displacedImage" width="100%" height="100%" />
<feMerge result="effect1_texture_2024_2762">
<feMergeNode in="displacedImage"/>
</feMerge>
</filter>
<filter id="filter3_g_2024_2762" x="835.201" y="98" width="277.615" height="369.472" filterUnits="userSpaceOnUse" color-interpolation-filters="sRGB">
<feFlood flood-opacity="0" result="BackgroundImageFix"/>
<feBlend mode="normal" in="SourceGraphic" in2="BackgroundImageFix" result="shape"/>
<feTurbulence type="fractalNoise" baseFrequency="0.99900001287460327 0.99900001287460327" numOctaves="3" seed="8682" />
<feDisplacementMap in="shape" scale="4" xChannelSelector="R" yChannelSelector="G" result="displacedImage" width="100%" height="100%" />
<feMerge result="effect1_texture_2024_2762">
<feMergeNode in="displacedImage"/>
</feMerge>
</filter>
<filter id="filter4_g_2024_2762" x="500.042" y="46" width="332.339" height="442.567" filterUnits="userSpaceOnUse" color-interpolation-filters="sRGB">
<feFlood flood-opacity="0" result="BackgroundImageFix"/>
<feBlend mode="normal" in="SourceGraphic" in2="BackgroundImageFix" result="shape"/>
<feTurbulence type="fractalNoise" baseFrequency="0.99900001287460327 0.99900001287460327" numOctaves="3" seed="8682" />
<feDisplacementMap in="shape" scale="4" xChannelSelector="R" yChannelSelector="G" result="displacedImage" width="100%" height="100%" />
<feMerge result="effect1_texture_2024_2762">
<feMergeNode in="displacedImage"/>
</feMerge>
</filter>
</defs>
</svg>
