<svg width="41" height="47" viewBox="0 0 41 47" fill="none" xmlns="http://www.w3.org/2000/svg">
<g opacity="0.6">
<path d="M32.0304 26.8315C30.7759 26.6363 29.5214 26.2461 28.267 25.7582C26.7616 25.0752 25.089 25.5631 23.9182 26.8315L22.831 28.0999C20.0711 26.0509 17.7295 23.4166 16.0569 20.1968L17.1441 18.9284C18.2313 17.5624 18.6494 15.611 18.064 13.8548C17.6458 12.4888 17.3113 11.0252 17.1441 9.46413C16.8932 7.12246 15.1369 5.36621 13.0461 5.36621H8.78097C7.5265 5.36621 6.4393 5.95163 5.68662 6.92732C4.93394 7.90302 4.51579 9.26899 4.59942 10.635C5.10121 16.0013 6.69019 21.1725 9.19912 25.6607C11.4572 29.8561 14.5515 33.4662 18.1476 36.1006C21.9947 39.0277 26.4271 40.8815 31.0268 41.4669H31.3613C32.3649 41.4669 33.3685 40.9791 34.1211 40.1985C34.9575 39.3204 35.4592 37.9544 35.4592 36.686V31.71C35.6265 29.2707 34.0375 27.2218 32.0304 26.8315ZM33.0339 31.71V36.686C33.0339 37.1738 32.8667 37.7593 32.5322 38.052C32.1976 38.4423 31.7795 38.5398 31.3613 38.5398C27.1798 38.052 23.0819 36.2957 19.5694 33.6613C16.3078 31.2221 13.4643 27.9048 11.3735 24.0995C9.11549 20.0016 7.61013 15.2207 7.19198 10.3423C7.19198 9.8544 7.27561 9.26899 7.61013 8.87871C7.94466 8.48843 8.36281 8.29329 8.78097 8.29329H13.0461C13.8825 8.29329 14.5515 8.97628 14.6351 9.8544C14.8024 11.5131 15.2206 13.2693 15.7223 14.8304C15.9732 15.5134 15.806 16.294 15.3878 16.7818L13.5479 18.9284C13.1298 19.4162 13.0461 20.0992 13.3807 20.6846C15.5551 25.0752 18.6494 28.6853 22.4128 31.2221C22.9146 31.5148 23.5 31.4173 23.9182 31.027L25.758 28.8804C26.1762 28.3926 26.8453 28.1975 27.4307 28.4902C28.8524 29.0756 30.2741 29.4659 31.6958 29.7586C32.4485 29.8561 33.0339 30.6367 33.0339 31.71C33.0339 31.6124 33.0339 31.6124 33.0339 31.71Z" fill="#3E3A39"/>
</g>
</svg>
